<svg width="604" height="311" viewBox="0 0 604 311" fill="none" xmlns="http://www.w3.org/2000/svg">
<path d="M279.799 1.16135C253.999 4.87638 230.699 15.1331 212.099 30.8008C189.599 49.9413 178.499 72.3123 178.499 99.2058C178.399 125.373 189.499 148.147 211.499 167.046C243.599 194.585 290.599 204.842 336.899 194.504C347.299 192.162 364.999 185.055 374.499 179.321C394.599 167.288 410.299 149.44 418.199 129.814C421.299 122.223 423.899 110.189 423.899 103.486V98.3982H330.399H236.799L237.099 103.002L237.399 107.686L251.899 108.17C279.999 109.22 294.699 113.743 299.999 123.03C308.599 138.052 282.599 153.881 251.899 152.266C234.699 151.378 219.499 145.724 207.999 135.952C195.699 125.453 190.499 114.712 190.499 100.013C190.399 84.1034 196.199 72.8776 210.299 61.6517C224.099 50.5874 238.199 46.2263 258.399 46.8724C276.499 47.5185 289.299 52.0411 302.399 62.5401C307.299 66.4974 310.699 70.1317 313.499 74.4121L317.399 80.6307H369.699C413.599 80.6307 421.899 80.4692 421.899 79.5C421.899 76.9157 416.499 63.59 412.799 57.2906C395.799 27.8934 361.599 6.65313 322.499 1.08059C311.599 -0.373118 290.299 -0.373118 279.799 1.16135Z" fill="#FF3F00" style="fill:#FF3F00;fill:color(display-p3 1.0000 0.2471 0.0000);fill-opacity:1;"/>
<path d="M60.8984 197.412C52.2984 198.543 46.7984 199.754 42.3984 201.208C4.29844 214.049 -11.2016 251.118 8.69844 282.131C13.5984 289.803 25.8984 299.737 35.3984 303.694C46.1984 308.217 55.9984 310.074 68.7984 310.074C88.5984 310.074 102.298 305.713 115.498 295.133C128.698 284.392 133.698 275.347 134.598 260.244C134.898 255.237 134.898 250.23 134.498 249.099L133.898 246.999H100.898H67.8984V255.883V264.767H87.4984H107.198L106.598 267.674C105.198 274.458 97.6984 282.535 89.6984 285.846C79.2984 290.126 64.8984 290.853 54.1984 287.542C25.2984 278.658 17.4984 245.627 39.9984 227.455C52.2984 217.522 72.0984 215.099 88.2984 221.64C94.1984 223.982 101.298 229.313 102.998 232.624L104.098 234.885H118.498H132.898V232.947C132.898 228.909 125.698 219.298 118.198 213.322C110.198 206.942 97.5984 201.208 86.3984 198.946C80.1984 197.654 65.3984 196.766 60.8984 197.412Z" fill="#FF3F00" style="fill:#FF3F00;fill:color(display-p3 1.0000 0.2471 0.0000);fill-opacity:1;"/>
<path d="M449.898 221.56V231.655H440.898H431.898V241.346V251.038H440.798H449.698L450.098 269.371C450.498 286.088 450.698 288.188 452.798 292.388C458.798 304.825 474.598 311.528 493.298 309.671L498.898 309.105V299.575V290.126L492.998 290.449C488.298 290.692 486.098 290.449 482.498 289.076C475.698 286.33 474.898 284.069 474.898 265.979V251.038H486.898H498.898V241.346V231.655H486.898H474.898V221.56V211.465H462.398H449.898V221.56Z" fill="#FF3F00" style="fill:#FF3F00;fill:color(display-p3 1.0000 0.2471 0.0000);fill-opacity:1;"/>
<path d="M171.699 231.332C164.399 233.109 154.999 238.762 149.699 244.335C139.099 255.722 136.199 271.067 142.299 284.473C150.299 302.402 169.099 312.093 191.299 309.832C199.199 308.944 204.899 306.763 210.899 302.241L215.899 298.445V303.856V309.186H228.399H240.899V270.421V231.655H228.399H215.899V236.662V241.669L211.699 238.439C206.399 234.401 203.799 233.109 197.499 231.413C191.399 229.717 178.299 229.717 171.699 231.332ZM201.999 251.603C211.599 255.56 216.599 263.152 215.599 272.117C214.999 277.77 212.099 282.373 206.899 285.927C202.099 289.319 197.099 290.611 189.199 290.611C168.399 290.611 156.899 272.036 168.999 257.822C173.899 252.088 180.199 249.584 190.499 249.503C195.199 249.423 197.699 249.907 201.999 251.603Z" fill="#FF3F00" style="fill:#FF3F00;fill:color(display-p3 1.0000 0.2471 0.0000);fill-opacity:1;"/>
<path d="M369.698 231.897C346.998 238.196 333.298 256.529 336.798 275.831C339.598 291.256 352.798 303.936 370.698 308.378C378.198 310.235 391.398 310.639 399.298 309.185C412.198 306.843 424.898 298.686 428.798 290.206C432.498 282.372 432.698 282.534 419.198 282.534H407.398L405.398 285.603C403.998 287.703 401.798 289.237 397.898 290.852C392.998 292.952 391.598 293.114 384.898 292.791C373.098 292.306 365.598 288.187 361.898 280.353C360.798 277.931 359.898 275.831 359.898 275.669C359.898 275.427 376.098 275.265 395.898 275.265H431.898L432.598 273.085C433.798 269.047 431.298 257.013 427.998 251.36C424.598 245.464 416.498 238.115 410.098 235.127C398.798 229.716 382.298 228.424 369.698 231.897ZM395.398 249.099C399.898 250.956 404.498 255.317 405.398 258.467L406.098 260.728H383.998C369.198 260.728 361.898 260.486 361.898 259.921C361.898 256.367 370.698 249.26 376.698 247.887C382.198 246.676 390.898 247.241 395.398 249.099Z" fill="#FF3F00" style="fill:#FF3F00;fill:color(display-p3 1.0000 0.2471 0.0000);fill-opacity:1;"/>
<path d="M535.399 231.09C527.999 233.109 522.499 235.855 516.799 240.458C497.499 256.045 497.099 283.019 515.799 298.929C524.499 306.44 534.699 310.075 546.899 310.155C559.599 310.155 568.199 307.49 575.199 301.191L578.899 297.88V303.533V309.186H591.399H603.899V270.421V231.655H591.399H578.899V236.905V242.154L575.299 238.924C573.299 237.147 568.699 234.562 565.099 233.109C559.299 230.767 557.499 230.444 548.999 230.282C542.999 230.121 537.899 230.444 535.399 231.09ZM566.599 252.33C583.499 260.729 582.499 281.162 564.999 288.35C557.699 291.338 548.699 291.499 541.399 288.673C522.199 281.323 521.899 259.679 540.899 251.603C545.899 249.503 547.099 249.261 554.099 249.584C560.499 249.907 562.699 250.392 566.599 252.33Z" fill="#FF3F00" style="fill:#FF3F00;fill:color(display-p3 1.0000 0.2471 0.0000);fill-opacity:1;"/>
<path d="M251.898 241.346V251.037L274.298 251.199L296.598 251.441L272.298 272.843L247.898 294.245V301.755V309.186L291.198 309.024L334.398 308.782L334.698 299.333L334.998 289.803L309.798 289.641L284.598 289.399L309.298 267.674L333.898 245.949V238.842V231.654H292.898H251.898V241.346Z" fill="#FF3F00" style="fill:#FF3F00;fill:color(display-p3 1.0000 0.2471 0.0000);fill-opacity:1;"/>
</svg>
