<svg width="245" height="34" viewBox="0 0 245 34" fill="none" xmlns="http://www.w3.org/2000/svg">
<path d="M47.7533 1.94302C43.9076 2.45429 41.4117 3.42572 39.5016 5.24076C37.8207 6.80016 36.8784 8.35956 36.0125 10.8648C35.3757 12.731 35.2993 13.2423 35.2993 16.7445C35.2739 22.2919 36.1907 25.2062 38.8649 28.0949C41.3608 30.8047 44.6207 32.0317 49.4087 32.0317C57.1765 32.0317 61.8626 28.3761 63.3143 21.2438C63.8746 18.3295 63.6963 13.6513 62.9068 11.1205C61.4551 6.46783 58.2971 3.42572 53.942 2.45429C52.1847 2.04527 48.9503 1.78963 47.7533 1.94302ZM51.5735 9.43324C53.6874 10.4047 54.7061 12.3731 54.9353 15.8498C55.0881 18.355 54.7316 20.7581 53.9675 22.2663C52.4139 25.334 48.1608 25.9987 45.8177 23.519C44.4169 22.0618 43.933 20.3746 43.933 17.0002C43.933 13.8558 44.3915 12.0663 45.5375 10.6859C46.9128 9.04978 49.5615 8.48738 51.5735 9.43324Z" fill="#006576" style="fill:#006576;fill:color(display-p3 0.0000 0.3961 0.4627);fill-opacity:1;"/>
<path d="M104.368 2.07103C98.6379 2.83795 95.2506 6.16126 95.2506 10.9928C95.2506 16.1567 97.8993 18.5598 105.361 20.1703C109.487 21.0395 110.735 21.5252 110.939 22.3688C111.372 24.0816 110.073 24.9252 107.042 24.9252C104.648 24.9252 103.706 24.465 103.273 23.059L103.044 22.241H98.7397H94.4102L94.563 23.6214C94.8431 26.3312 96.4985 28.862 98.969 30.3191C102.433 32.3643 110.888 32.5688 114.632 30.677C116.287 29.8334 117.306 28.9898 118.146 27.7883C120.642 24.1327 120.006 18.3552 116.822 15.85C115.472 14.7763 113.206 13.9838 109.105 13.1658C103.961 12.1176 103.12 11.6575 103.502 10.0981C103.782 8.99885 105.896 8.2575 107.883 8.56426C109.156 8.74321 110.532 9.76577 110.532 10.5071C110.532 10.9673 110.761 10.9928 114.759 10.9928H118.987L118.809 9.89359C118.223 6.21238 115.345 3.32366 111.296 2.35223C109.564 1.94321 106.278 1.78983 104.368 2.07103Z" fill="#006576" style="fill:#006576;fill:color(display-p3 0.0000 0.3961 0.4627);fill-opacity:1;"/>
<path d="M132.868 2.07086C126.985 2.86334 123.216 6.31447 121.84 12.1686C121.255 14.7506 121.305 19.5055 121.968 22.0618C123.649 28.5551 128.258 31.9806 135.237 32.0062C138.267 32.0318 140.254 31.6227 142.368 30.5491C144.507 29.4754 146.239 27.6092 147.334 25.2318C148.429 22.8288 148.735 21.2694 148.913 17.4348L149.066 14.316H142.138H135.237V17.5115V20.707H137.809C140.33 20.707 140.356 20.707 140.203 21.2694C139.77 22.7009 139.159 23.6212 138.216 24.2348C137.35 24.8227 136.892 24.925 135.491 24.925C133.326 24.925 131.977 24.1325 131.034 22.2408C129.43 19.0709 129.71 13.2679 131.544 10.8137C133.53 8.2062 138.267 8.43628 139.337 11.1716C139.541 11.7596 139.617 11.7596 143.921 11.7596H148.302L148.123 10.6603C147.869 8.99868 146.595 6.54455 145.373 5.29191C142.826 2.73552 137.707 1.43176 132.868 2.07086Z" fill="#006576" style="fill:#006576;fill:color(display-p3 0.0000 0.3961 0.4627);fill-opacity:1;"/>
<path d="M2.03711 17V31.188H11.5877H21.1382V27.2256V23.2632H15.9173H10.6963V13.0376V2.81205H6.3667H2.03711V17Z" fill="#006576" style="fill:#006576;fill:color(display-p3 0.0000 0.3961 0.4627);fill-opacity:1;"/>
<path d="M23.6855 17V31.188H28.0151H32.3447V17V2.81205H28.0151H23.6855V17Z" fill="#006576" style="fill:#006576;fill:color(display-p3 0.0000 0.3961 0.4627);fill-opacity:1;"/>
<path d="M66.7254 9.89347C66.6999 21.6017 66.7508 31.0348 66.8272 31.1115C67.0819 31.3672 69.6797 31.4694 72.1756 31.316L75.1299 31.1371L75.1808 24.3371L75.2572 17.5115L79.4085 24.4649L83.5598 31.4183H87.7366L91.9389 31.4438V17.1281V2.81227H87.7366H83.5344V9.76565V16.7446L79.4085 9.84234L75.2572 2.94009L71.004 2.8634L66.7254 2.81227V9.89347Z" fill="#006576" style="fill:#006576;fill:color(display-p3 0.0000 0.3961 0.4627);fill-opacity:1;"/>
<path d="M156.451 6.85115C155.585 9.04964 153.318 14.8271 151.408 19.6842C149.498 24.5414 147.715 29.0406 147.461 29.7053C147.18 30.3699 146.951 30.9579 146.951 31.0346C146.951 31.1113 148.989 31.188 151.485 31.188H156.018L156.553 29.7053L157.062 28.2481H161.876H166.689L167.198 29.7308L167.708 31.188H172.216C174.711 31.188 176.749 31.1113 176.749 30.9835C176.749 30.8812 174.839 25.973 172.521 20.0677C170.204 14.1624 167.733 7.8737 167.046 6.05866L165.772 2.81205H161.901H158.03L156.451 6.85115ZM163.276 17.5624C163.989 19.7865 164.652 21.7549 164.728 21.9083C164.804 22.1639 164.168 22.2406 162.003 22.2406C160.169 22.2406 159.176 22.1384 159.176 21.9594C159.176 21.6782 161.799 13.5489 161.876 13.5489C161.901 13.5489 162.538 15.3639 163.276 17.5624Z" fill="#006576" style="fill:#006576;fill:color(display-p3 0.0000 0.3961 0.4627);fill-opacity:1;"/>
<path d="M172.164 6.77445V10.7369H176.112H180.059V20.9624V31.188H184.389H188.718V20.9624V10.7369H192.539H196.359V6.77445V2.81205H184.261H172.164V6.77445Z" fill="#006576" style="fill:#006576;fill:color(display-p3 0.0000 0.3961 0.4627);fill-opacity:1;"/>
<path d="M198.396 17V31.188H209.73H221.063V27.2256V23.2632H214.059H207.056V21.985V20.7068H212.149H217.243V17V13.2933H212.149H207.056V12.0151V10.7369H214.059H221.063V6.77445V2.81205H209.73H198.396V17Z" fill="#006576" style="fill:#006576;fill:color(display-p3 0.0000 0.3961 0.4627);fill-opacity:1;"/>
<path d="M226.59 6.28912C226.488 6.39138 226.412 8.00191 226.412 9.89363V13.2936H222.973H219.535V17.0004V20.7072H222.973H226.412V24.2861V27.8906L229.926 27.8139L233.415 27.7372L233.492 24.2094L233.568 20.7072H236.039H238.509L240.495 17.1538C241.565 15.1854 242.457 13.5237 242.457 13.447C242.457 13.3703 240.445 13.2936 238 13.2936H233.568L233.492 9.76582L233.415 6.26356L230.079 6.18687C228.271 6.1613 226.692 6.21243 226.59 6.28912Z" fill="#006576" style="fill:#006576;fill:color(display-p3 0.0000 0.3961 0.4627);fill-opacity:1;"/>
<path d="M238.203 28.1202C237.057 28.5804 236.802 29.9608 237.642 31.0345C238.356 31.9293 239.425 31.9293 240.138 31.0345C240.8 30.1909 240.826 29.3729 240.24 28.6826C239.68 28.0435 238.941 27.839 238.203 28.1202ZM238.967 28.8105C238.406 28.9127 238.254 29.3473 238.305 30.6255C238.33 30.8811 238.254 30.8811 237.973 30.6511C237.184 29.9864 237.897 28.6059 238.967 28.6571C239.527 28.7082 239.527 28.7082 238.967 28.8105ZM240.036 30.1909C239.782 30.9578 239.4 30.421 239.578 29.5518C239.705 28.9383 239.756 28.8871 239.96 29.245C240.087 29.4751 240.113 29.9097 240.036 30.1909ZM238.992 30.5488C239.069 30.7533 239.018 30.9323 238.89 30.9323C238.738 30.9323 238.636 30.7533 238.636 30.5488C238.636 30.3443 238.687 30.1653 238.738 30.1653C238.788 30.1653 238.89 30.3443 238.992 30.5488Z" fill="#006576" style="fill:#006576;fill:color(display-p3 0.0000 0.3961 0.4627);fill-opacity:1;"/>
</svg>
