<svg width="1496" height="315" viewBox="0 0 1496 315" fill="none" xmlns="http://www.w3.org/2000/svg">
<g clip-path="url(#clip0_6049_1778)">
<path d="M889.8 309.3H811.8V79.0004H889.8V309.3ZM1142.2 309.3H1063.6V178.6C1063.6 148.7 1053.6 140.8 1037.6 140.8C1021.6 140.8 1011.2 148.7 1011.2 177.7V309.3H933.2V79.0004H1011.2V94.3005C1015.13 90.9671 1019.37 88.0338 1023.9 85.5004C1028.37 82.9004 1033.03 80.7671 1037.9 79.1004C1042.83 77.3671 1047.83 76.0671 1052.9 75.2004C1058.03 74.4004 1063.2 74.0671 1068.4 74.2004C1118.2 74.2004 1142 107.9 1142 168.5L1142.2 309.3ZM1371.8 259.3C1345.4 298.8 1320.7 314.1 1280.4 314.1C1213.7 314.1 1173.8 271.1 1173.8 193.5C1173.8 122.8 1209.3 74.2004 1282.1 74.2004C1325 74.2004 1349.7 94.3005 1369.6 126.8L1316 168C1305.2 147.8 1297.9 138.2 1281 138.2C1261 138.2 1251.1 158.4 1251.1 194.8C1251.1 231.2 1261.9 250.1 1283.1 250.1C1297.9 250.1 1308.3 241.7 1322.5 220.2L1371.8 259.3ZM1495.8 263.7C1495.67 266.9 1495.27 270.1 1494.6 273.3C1493.87 276.434 1492.87 279.5 1491.6 282.5C1490.27 285.434 1488.7 288.267 1486.9 291C1485.03 293.667 1482.97 296.134 1480.7 298.4C1478.37 300.667 1475.87 302.667 1473.2 304.4C1470.53 306.2 1467.7 307.7 1464.7 308.9C1461.7 310.167 1458.63 311.1 1455.5 311.7C1452.37 312.3 1449.17 312.6 1445.9 312.6C1433 312.6 1420.5 307.5 1411.2 298.4C1408.93 296.134 1406.87 293.667 1405 291C1403.2 288.267 1401.63 285.434 1400.3 282.5C1399.03 279.5 1398.03 276.434 1397.3 273.3C1396.63 270.1 1396.23 266.9 1396.1 263.7C1396.1 234.7 1417.3 213.9 1445.9 213.9C1474.5 213.9 1495.8 234.7 1495.8 263.7Z" fill="#121212" style="fill:#121212;fill:color(display-p3 0.0706 0.0706 0.0706);fill-opacity:1;"/>
<path d="M433.1 0.799805C504.6 0.799805 551.9 28.5998 551.9 103.1C551.9 181.5 500.5 209.3 427.4 209.3H385.2V309.3H759.9L935.8 0.799805H433.1Z" fill="#0084D5" style="fill:#0084D5;fill:color(display-p3 0.0000 0.5176 0.8353);fill-opacity:1;"/>
<path d="M427.5 209.3C500.5 209.3 551.9 181.5 551.9 103.1C551.9 28.5998 504.5 0.799805 433.1 0.799805H302.1V309.3H385.2V209.3H427.5ZM385.3 70.4998H431C457.8 70.4998 468 83.9998 468 104.4C468 127.7 457.1 139.6 429.7 139.6H385.3V70.4998ZM273.7 309.3L183.9 151.9L270.1 0.899805H176.8L137.3 70.0998L97.8004 0.899805H8.20039L92.5004 148.7L0.900391 309.3H94.1004L139.1 230.5L184.1 309.3H273.7Z" fill="#121212" style="fill:#121212;fill:color(display-p3 0.0706 0.0706 0.0706);fill-opacity:1;"/>
</g>
<defs>
<clipPath id="clip0_6049_1778">
<rect width="1496" height="315" fill="white" style="fill:white;fill-opacity:1;"/>
</clipPath>
</defs>
</svg>
