<svg width="145" height="48" viewBox="0 0 145 48" fill="none" xmlns="http://www.w3.org/2000/svg">
<rect x="0.5" y="0.5" width="144" height="47" rx="11.5" stroke="#003F99" style="stroke:#003F99;stroke:color(display-p3 0.0000 0.2471 0.6000);stroke-opacity:1;"/>
<path d="M34.9392 17.19C35.7028 16.31 36.0842 15.162 35.9992 14C34.8386 14.0937 33.7612 14.6396 32.9992 15.52C32.262 16.3725 31.9013 17.4872 31.9992 18.61C33.1467 18.6196 34.2333 18.0947 34.9392 17.19ZM37.4592 24.63C37.4729 23.0722 38.2895 21.6317 39.6192 20.82C38.7823 19.6141 37.4261 18.873 35.9592 18.82C34.3992 18.66 32.9592 19.73 32.1292 19.73Cnan nan 30.1292 18.84 28.8292 18.86C27.1004 18.9169 25.5285 19.8775 24.6892 21.39C22.8592 24.29 23.9992 29 25.9292 31.51C26.8792 32.86 27.9992 34.39 29.4692 34.34Cnan nan 31.3692 33.44 33.0392 33.44Cnan nan 35.1592 34.34 36.5992 34.31Cnan nan 39.0892 32.92 40.0292 31.56C40.7106 30.5899 41.2306 29.5161 41.5692 28.38C39.7039 27.5925 38.6238 25.6268 38.9592 23.63L37.4592 24.63Z" fill="#003F99" style="fill:#003F99;fill:color(display-p3 0.0000 0.2471 0.6000);fill-opacity:1;"/>
<path d="M57.38 20C57.2 20 57.06 19.9533 56.96 19.86C56.8667 19.76 56.82 19.62 56.82 19.44V13.51C56.82 13.33 56.8667 13.1933 56.96 13.1C57.06 13 57.2 12.95 57.38 12.95H59.31C60.47 12.95 61.3633 13.2533 61.99 13.86C62.6233 14.46 62.94 15.33 62.94 16.47C62.94 17.0367 62.86 17.54 62.7 17.98C62.54 18.42 62.3033 18.79 61.99 19.09C61.6833 19.3833 61.3067 19.61 60.86 19.77C60.4133 19.9233 59.8967 20 59.31 20H57.38ZM57.86 19.13H59.25C59.69 19.13 60.07 19.0767 60.39 18.97C60.7167 18.8567 60.99 18.69 61.21 18.47C61.43 18.25 61.5933 17.9733 61.7 17.64C61.8067 17.3067 61.86 16.9167 61.86 16.47C61.86 15.5833 61.64 14.92 61.2 14.48C60.7667 14.04 60.1167 13.82 59.25 13.82H57.86V19.13ZM64.7198 20.06C64.5598 20.06 64.4364 20.0133 64.3498 19.92C64.2631 19.82 64.2198 19.6833 64.2198 19.51V15.61C64.2198 15.4367 64.2631 15.3033 64.3498 15.21C64.4364 15.1167 64.5598 15.07 64.7198 15.07C64.8798 15.07 65.0031 15.1167 65.0898 15.21C65.1831 15.3033 65.2298 15.4367 65.2298 15.61V19.51C65.2298 19.6833 65.1864 19.82 65.0998 19.92C65.0131 20.0133 64.8864 20.06 64.7198 20.06ZM64.7198 14.03C64.5198 14.03 64.3631 13.98 64.2498 13.88C64.1431 13.78 64.0898 13.64 64.0898 13.46C64.0898 13.2733 64.1431 13.1333 64.2498 13.04C64.3631 12.94 64.5198 12.89 64.7198 12.89C64.9198 12.89 65.0731 12.94 65.1798 13.04C65.2931 13.1333 65.3498 13.2733 65.3498 13.46C65.3498 13.64 65.2931 13.78 65.1798 13.88C65.0731 13.98 64.9198 14.03 64.7198 14.03ZM68.3614 20.09C68.0681 20.09 67.7647 20.0567 67.4514 19.99C67.1447 19.9233 66.8614 19.81 66.6014 19.65C66.5147 19.59 66.4547 19.5233 66.4214 19.45C66.3881 19.3767 66.3747 19.3033 66.3814 19.23C66.3947 19.15 66.4247 19.0833 66.4714 19.03C66.5247 18.97 66.5881 18.9333 66.6614 18.92C66.7414 18.9067 66.8247 18.9233 66.9114 18.97C67.1714 19.1167 67.4214 19.22 67.6614 19.28C67.9014 19.3333 68.1381 19.36 68.3714 19.36C68.7247 19.36 68.9914 19.2967 69.1714 19.17C69.3514 19.0433 69.4414 18.8733 69.4414 18.66C69.4414 18.4867 69.3814 18.3533 69.2614 18.26C69.1414 18.16 68.9614 18.0833 68.7214 18.03L67.7714 17.84C67.3581 17.7533 67.0447 17.6 66.8314 17.38C66.6181 17.16 66.5114 16.88 66.5114 16.54C66.5114 16.2333 66.5947 15.9667 66.7614 15.74C66.9281 15.5133 67.1614 15.34 67.4614 15.22C67.7614 15.0933 68.1081 15.03 68.5014 15.03C68.7947 15.03 69.0714 15.0667 69.3314 15.14C69.5914 15.2133 69.8314 15.3233 70.0514 15.47C70.1381 15.5167 70.1947 15.58 70.2214 15.66C70.2481 15.7333 70.2514 15.8067 70.2314 15.88C70.2181 15.9533 70.1847 16.02 70.1314 16.08C70.0781 16.1333 70.0114 16.1667 69.9314 16.18C69.8581 16.1867 69.7747 16.1667 69.6814 16.12C69.4814 15.9933 69.2814 15.9033 69.0814 15.85C68.8881 15.7967 68.6947 15.77 68.5014 15.77C68.1481 15.77 67.8814 15.8367 67.7014 15.97C67.5281 16.0967 67.4414 16.27 67.4414 16.49C67.4414 16.6567 67.4947 16.7933 67.6014 16.9C67.7081 17.0067 67.8747 17.0833 68.1014 17.13L69.0514 17.32C69.4847 17.4067 69.8114 17.5533 70.0314 17.76C70.2581 17.9667 70.3714 18.2467 70.3714 18.6C70.3714 19.06 70.1881 19.4233 69.8214 19.69C69.4547 19.9567 68.9681 20.09 68.3614 20.09ZM71.9952 21.87C71.8352 21.87 71.7118 21.8267 71.6252 21.74C71.5385 21.6533 71.4952 21.5267 71.4952 21.36V15.56C71.4952 15.3933 71.5385 15.2667 71.6252 15.18C71.7118 15.0933 71.8318 15.05 71.9852 15.05C72.1452 15.05 72.2685 15.0933 72.3552 15.18C72.4418 15.2667 72.4852 15.3933 72.4852 15.56V16.43L72.3752 16.22C72.4818 15.86 72.6918 15.5733 73.0052 15.36C73.3185 15.14 73.6885 15.03 74.1152 15.03C74.5485 15.03 74.9252 15.1333 75.2452 15.34C75.5718 15.5467 75.8218 15.8367 75.9952 16.21C76.1752 16.5833 76.2652 17.0333 76.2652 17.56C76.2652 18.0733 76.1752 18.5233 75.9952 18.91C75.8218 19.29 75.5752 19.5833 75.2552 19.79C74.9352 19.99 74.5552 20.09 74.1152 20.09C73.6952 20.09 73.3285 19.9833 73.0152 19.77C72.7018 19.5567 72.4918 19.2733 72.3852 18.92H72.5052V21.36C72.5052 21.5267 72.4585 21.6533 72.3652 21.74C72.2785 21.8267 72.1552 21.87 71.9952 21.87ZM73.8652 19.31C74.1452 19.31 74.3885 19.2433 74.5952 19.11C74.8018 18.9767 74.9618 18.78 75.0752 18.52C75.1885 18.26 75.2452 17.94 75.2452 17.56C75.2452 16.9867 75.1185 16.5533 74.8652 16.26C74.6185 15.9667 74.2852 15.82 73.8652 15.82C73.5918 15.82 73.3485 15.8867 73.1352 16.02C72.9285 16.1467 72.7685 16.34 72.6552 16.6C72.5418 16.86 72.4852 17.18 72.4852 17.56C72.4852 18.1267 72.6118 18.56 72.8652 18.86C73.1185 19.16 73.4518 19.31 73.8652 19.31ZM79.5234 20.09C79.03 20.09 78.6034 19.9867 78.2434 19.78C77.89 19.5733 77.6134 19.28 77.4134 18.9C77.2134 18.52 77.1134 18.0733 77.1134 17.56C77.1134 17.1667 77.17 16.8167 77.2834 16.51C77.3967 16.2033 77.5567 15.94 77.7634 15.72C77.9767 15.4933 78.23 15.3233 78.5234 15.21C78.8234 15.09 79.1567 15.03 79.5234 15.03C80.01 15.03 80.43 15.1333 80.7834 15.34C81.1434 15.5467 81.4234 15.84 81.6234 16.22C81.8234 16.5933 81.9234 17.04 81.9234 17.56C81.9234 17.9467 81.8667 18.2967 81.7534 18.61C81.64 18.9233 81.4767 19.19 81.2634 19.41C81.0567 19.63 80.8034 19.8 80.5034 19.92C80.21 20.0333 79.8834 20.09 79.5234 20.09ZM79.5234 19.31C79.7967 19.31 80.0367 19.2433 80.2434 19.11C80.45 18.9767 80.61 18.78 80.7234 18.52C80.8434 18.26 80.9034 17.94 80.9034 17.56C80.9034 16.9867 80.7767 16.5533 80.5234 16.26C80.27 15.9667 79.9367 15.82 79.5234 15.82C79.2434 15.82 79 15.8867 78.7934 16.02C78.5867 16.1467 78.4234 16.34 78.3034 16.6C78.19 16.86 78.1334 17.18 78.1334 17.56C78.1334 18.1267 78.26 18.56 78.5134 18.86C78.7667 19.16 79.1034 19.31 79.5234 19.31ZM83.5577 20.07C83.3977 20.07 83.2743 20.0267 83.1877 19.94C83.101 19.8467 83.0577 19.72 83.0577 19.56V15.56C83.0577 15.3933 83.101 15.2667 83.1877 15.18C83.2743 15.0933 83.3943 15.05 83.5477 15.05C83.7077 15.05 83.8277 15.0933 83.9077 15.18C83.9943 15.2667 84.0377 15.3933 84.0377 15.56V16.34L83.9277 16.16C84.0743 15.7867 84.3043 15.5067 84.6177 15.32C84.931 15.1267 85.291 15.03 85.6977 15.03C86.0843 15.03 86.4043 15.1033 86.6577 15.25C86.9177 15.39 87.111 15.6067 87.2377 15.9C87.3643 16.1867 87.4277 16.55 87.4277 16.99V19.56C87.4277 19.72 87.3843 19.8467 87.2977 19.94C87.211 20.0267 87.0877 20.07 86.9277 20.07C86.761 20.07 86.6343 20.0267 86.5477 19.94C86.461 19.8467 86.4177 19.72 86.4177 19.56V17.05C86.4177 16.63 86.3343 16.3233 86.1677 16.13C86.0077 15.9367 85.7543 15.84 85.4077 15.84C85.001 15.84 84.6743 15.9667 84.4277 16.22C84.1877 16.4733 84.0677 16.8133 84.0677 17.24V19.56C84.0677 19.9 83.8977 20.07 83.5577 20.07ZM89.3194 20.06C89.1594 20.06 89.036 20.0133 88.9494 19.92C88.8627 19.82 88.8194 19.6833 88.8194 19.51V15.61C88.8194 15.4367 88.8627 15.3033 88.9494 15.21C89.036 15.1167 89.1594 15.07 89.3194 15.07C89.4794 15.07 89.6027 15.1167 89.6894 15.21C89.7827 15.3033 89.8294 15.4367 89.8294 15.61V19.51C89.8294 19.6833 89.786 19.82 89.6994 19.92C89.6127 20.0133 89.486 20.06 89.3194 20.06ZM89.7094 14.42C89.656 14.5 89.5894 14.5467 89.5094 14.56C89.436 14.5733 89.3627 14.56 89.2894 14.52C89.216 14.48 89.1627 14.4233 89.1294 14.35C89.1027 14.2767 89.1094 14.1967 89.1494 14.11L89.9594 12.54C90.0127 12.4333 90.0794 12.3633 90.1594 12.33C90.246 12.2967 90.3327 12.2933 90.4194 12.32C90.5127 12.34 90.5894 12.38 90.6494 12.44C90.716 12.5 90.756 12.5767 90.7694 12.67C90.7827 12.7567 90.7594 12.8433 90.6994 12.93L89.7094 14.42ZM93.141 20.07C93.001 20.07 92.8777 20.0333 92.771 19.96C92.671 19.8867 92.5877 19.7733 92.521 19.62L90.851 15.74C90.7977 15.62 90.7777 15.5067 90.791 15.4C90.8043 15.2933 90.8543 15.21 90.941 15.15C91.0277 15.0833 91.1443 15.05 91.291 15.05C91.4177 15.05 91.5177 15.08 91.591 15.14C91.6643 15.2 91.731 15.3033 91.791 15.45L93.301 19.17H93.021L94.561 15.45C94.621 15.3033 94.6877 15.2 94.761 15.14C94.841 15.08 94.951 15.05 95.091 15.05C95.211 15.05 95.3043 15.0833 95.371 15.15C95.4443 15.21 95.4877 15.2933 95.501 15.4C95.521 15.5 95.5043 15.61 95.451 15.73L93.761 19.62C93.701 19.7733 93.6177 19.8867 93.511 19.96C93.4043 20.0333 93.281 20.07 93.141 20.07ZM98.6484 20.09C98.1151 20.09 97.6551 19.99 97.2684 19.79C96.8884 19.5833 96.5918 19.2933 96.3784 18.92C96.1718 18.54 96.0684 18.09 96.0684 17.57C96.0684 17.0633 96.1718 16.62 96.3784 16.24C96.5851 15.86 96.8684 15.5633 97.2284 15.35C97.5884 15.1367 97.9984 15.03 98.4584 15.03C98.7984 15.03 99.1018 15.0867 99.3684 15.2C99.6351 15.3067 99.8618 15.4667 100.048 15.68C100.242 15.8867 100.385 16.14 100.478 16.44C100.578 16.74 100.628 17.0767 100.628 17.45C100.628 17.5633 100.595 17.65 100.528 17.71C100.462 17.7633 100.362 17.79 100.228 17.79H96.8684V17.17H99.9484L99.7784 17.31C99.7784 16.9767 99.7284 16.6933 99.6284 16.46C99.5351 16.2267 99.3918 16.05 99.1984 15.93C99.0118 15.8033 98.7784 15.74 98.4984 15.74C98.1851 15.74 97.9184 15.8133 97.6984 15.96C97.4851 16.1067 97.3218 16.31 97.2084 16.57C97.0951 16.83 97.0384 17.1333 97.0384 17.48V17.54C97.0384 18.1267 97.1751 18.57 97.4484 18.87C97.7284 19.1633 98.1318 19.31 98.6584 19.31C98.8584 19.31 99.0684 19.2833 99.2884 19.23C99.5151 19.1767 99.7284 19.0867 99.9284 18.96C100.042 18.8933 100.142 18.8633 100.228 18.87C100.322 18.8767 100.395 18.9067 100.448 18.96C100.508 19.0133 100.545 19.08 100.558 19.16C100.572 19.24 100.558 19.3233 100.518 19.41C100.478 19.49 100.408 19.5633 100.308 19.63C100.082 19.7833 99.8184 19.9 99.5184 19.98C99.2184 20.0533 98.9284 20.09 98.6484 20.09ZM103.3 20.09C102.78 20.09 102.386 19.94 102.12 19.64C101.86 19.3333 101.73 18.8933 101.73 18.32V13.39C101.73 13.2233 101.773 13.0967 101.86 13.01C101.946 12.9233 102.07 12.88 102.23 12.88C102.39 12.88 102.513 12.9233 102.6 13.01C102.693 13.0967 102.74 13.2233 102.74 13.39V18.26C102.74 18.5933 102.806 18.8433 102.94 19.01C103.08 19.17 103.28 19.25 103.54 19.25C103.6 19.25 103.653 19.25 103.7 19.25C103.746 19.2433 103.793 19.2367 103.84 19.23C103.92 19.2233 103.976 19.2467 104.01 19.3C104.043 19.3467 104.06 19.4467 104.06 19.6C104.06 19.74 104.03 19.85 103.97 19.93C103.91 20.0033 103.813 20.05 103.68 20.07C103.62 20.0767 103.556 20.08 103.49 20.08C103.423 20.0867 103.36 20.09 103.3 20.09ZM107.923 20.07C107.763 20.07 107.64 20.0267 107.553 19.94C107.466 19.8467 107.423 19.72 107.423 19.56V15.56C107.423 15.3933 107.466 15.2667 107.553 15.18C107.64 15.0933 107.76 15.05 107.913 15.05C108.073 15.05 108.193 15.0933 108.273 15.18C108.36 15.2667 108.403 15.3933 108.403 15.56V16.34L108.293 16.16C108.44 15.7867 108.67 15.5067 108.983 15.32C109.296 15.1267 109.656 15.03 110.063 15.03C110.45 15.03 110.77 15.1033 111.023 15.25C111.283 15.39 111.476 15.6067 111.603 15.9C111.73 16.1867 111.793 16.55 111.793 16.99V19.56C111.793 19.72 111.75 19.8467 111.663 19.94C111.576 20.0267 111.453 20.07 111.293 20.07C111.126 20.07 111 20.0267 110.913 19.94C110.826 19.8467 110.783 19.72 110.783 19.56V17.05C110.783 16.63 110.7 16.3233 110.533 16.13C110.373 15.9367 110.12 15.84 109.773 15.84C109.366 15.84 109.04 15.9667 108.793 16.22C108.553 16.4733 108.433 16.8133 108.433 17.24V19.56C108.433 19.9 108.263 20.07 107.923 20.07ZM115.305 20.09C114.811 20.09 114.385 19.9867 114.025 19.78C113.671 19.5733 113.395 19.28 113.195 18.9C112.995 18.52 112.895 18.0733 112.895 17.56C112.895 17.1667 112.951 16.8167 113.065 16.51C113.178 16.2033 113.338 15.94 113.545 15.72C113.758 15.4933 114.011 15.3233 114.305 15.21C114.605 15.09 114.938 15.03 115.305 15.03C115.791 15.03 116.211 15.1333 116.565 15.34C116.925 15.5467 117.205 15.84 117.405 16.22C117.605 16.5933 117.705 17.04 117.705 17.56C117.705 17.9467 117.648 18.2967 117.535 18.61C117.421 18.9233 117.258 19.19 117.045 19.41C116.838 19.63 116.585 19.8 116.285 19.92C115.991 20.0333 115.665 20.09 115.305 20.09ZM115.305 19.31C115.578 19.31 115.818 19.2433 116.025 19.11C116.231 18.9767 116.391 18.78 116.505 18.52C116.625 18.26 116.685 17.94 116.685 17.56C116.685 16.9867 116.558 16.5533 116.305 16.26C116.051 15.9667 115.718 15.82 115.305 15.82C115.025 15.82 114.781 15.8867 114.575 16.02C114.368 16.1467 114.205 16.34 114.085 16.6C113.971 16.86 113.915 17.18 113.915 17.56C113.915 18.1267 114.041 18.56 114.295 18.86C114.548 19.16 114.885 19.31 115.305 19.31Z" fill="#003F99" style="fill:#003F99;fill:color(display-p3 0.0000 0.2471 0.6000);fill-opacity:1;"/>
<path d="M57.092 34.098C56.9053 34.098 56.756 34.056 56.644 33.972C56.532 33.888 56.4667 33.776 56.448 33.636C56.4293 33.496 56.4573 33.3373 56.532 33.16L60.326 24.648C60.4193 24.424 60.536 24.2653 60.676 24.172C60.8253 24.0787 60.9887 24.032 61.166 24.032C61.334 24.032 61.488 24.0787 61.628 24.172C61.7773 24.2653 61.8987 24.424 61.992 24.648L65.786 33.16C65.87 33.3373 65.9027 33.5007 65.884 33.65C65.8653 33.79 65.8047 33.902 65.702 33.986C65.5993 34.0607 65.4547 34.098 65.268 34.098C65.0627 34.098 64.8993 34.0467 64.778 33.944C64.6567 33.8413 64.5493 33.6827 64.456 33.468L63.476 31.2L64.134 31.592H58.17L58.814 31.2L57.848 33.468C57.7547 33.692 57.652 33.8553 57.54 33.958C57.428 34.0513 57.2787 34.098 57.092 34.098ZM61.138 25.74L59.024 30.752L58.674 30.416H63.616L63.294 30.752L61.166 25.74H61.138ZM68.0026 36.618C67.7786 36.618 67.6059 36.5573 67.4846 36.436C67.3633 36.3147 67.3026 36.1373 67.3026 35.904V27.784C67.3026 27.5507 67.3633 27.3733 67.4846 27.252C67.6059 27.1307 67.7739 27.07 67.9886 27.07C68.2126 27.07 68.3853 27.1307 68.5066 27.252C68.6279 27.3733 68.6886 27.5507 68.6886 27.784V29.002L68.5346 28.708C68.6839 28.204 68.9779 27.8027 69.4166 27.504C69.8553 27.196 70.3733 27.042 70.9706 27.042C71.5773 27.042 72.1046 27.1867 72.5526 27.476C73.0099 27.7653 73.3599 28.1713 73.6026 28.694C73.8546 29.2167 73.9806 29.8467 73.9806 30.584C73.9806 31.3027 73.8546 31.9327 73.6026 32.474C73.3599 33.006 73.0146 33.4167 72.5666 33.706C72.1186 33.986 71.5866 34.126 70.9706 34.126C70.3826 34.126 69.8693 33.9767 69.4306 33.678C68.9919 33.3793 68.6979 32.9827 68.5486 32.488H68.7166V35.904C68.7166 36.1373 68.6513 36.3147 68.5206 36.436C68.3993 36.5573 68.2266 36.618 68.0026 36.618ZM70.6206 33.034C71.0126 33.034 71.3533 32.9407 71.6426 32.754C71.9319 32.5673 72.1559 32.292 72.3146 31.928C72.4733 31.564 72.5526 31.116 72.5526 30.584C72.5526 29.7813 72.3753 29.1747 72.0206 28.764C71.6753 28.3533 71.2086 28.148 70.6206 28.148C70.2379 28.148 69.8973 28.2413 69.5986 28.428C69.3093 28.6053 69.0853 28.876 68.9266 29.24C68.7679 29.604 68.6886 30.052 68.6886 30.584C68.6886 31.3773 68.8659 31.984 69.2206 32.404C69.5753 32.824 70.0419 33.034 70.6206 33.034ZM76.2741 36.618C76.0501 36.618 75.8774 36.5573 75.7561 36.436C75.6347 36.3147 75.5741 36.1373 75.5741 35.904V27.784C75.5741 27.5507 75.6347 27.3733 75.7561 27.252C75.8774 27.1307 76.0454 27.07 76.2601 27.07C76.4841 27.07 76.6567 27.1307 76.7781 27.252C76.8994 27.3733 76.9601 27.5507 76.9601 27.784V29.002L76.8061 28.708C76.9554 28.204 77.2494 27.8027 77.6881 27.504C78.1267 27.196 78.6447 27.042 79.2421 27.042C79.8487 27.042 80.3761 27.1867 80.8241 27.476C81.2814 27.7653 81.6314 28.1713 81.8741 28.694C82.1261 29.2167 82.2521 29.8467 82.2521 30.584C82.2521 31.3027 82.1261 31.9327 81.8741 32.474C81.6314 33.006 81.2861 33.4167 80.8381 33.706C80.3901 33.986 79.8581 34.126 79.2421 34.126C78.6541 34.126 78.1407 33.9767 77.7021 33.678C77.2634 33.3793 76.9694 32.9827 76.8201 32.488H76.9881V35.904C76.9881 36.1373 76.9227 36.3147 76.7921 36.436C76.6707 36.5573 76.4981 36.618 76.2741 36.618ZM78.8921 33.034C79.2841 33.034 79.6247 32.9407 79.9141 32.754C80.2034 32.5673 80.4274 32.292 80.5861 31.928C80.7447 31.564 80.8241 31.116 80.8241 30.584C80.8241 29.7813 80.6467 29.1747 80.2921 28.764C79.9467 28.3533 79.4801 28.148 78.8921 28.148C78.5094 28.148 78.1687 28.2413 77.8701 28.428C77.5807 28.6053 77.3567 28.876 77.1981 29.24C77.0394 29.604 76.9601 30.052 76.9601 30.584C76.9601 31.3773 77.1374 31.984 77.4921 32.404C77.8467 32.824 78.3134 33.034 78.8921 33.034ZM90.981 34.126C90.5516 34.126 90.1316 34.0933 89.721 34.028C89.3103 33.9627 88.923 33.8647 88.559 33.734C88.195 33.594 87.8683 33.426 87.579 33.23C87.439 33.1273 87.341 33.0107 87.285 32.88C87.2383 32.7493 87.2243 32.6233 87.243 32.502C87.271 32.3713 87.327 32.2593 87.411 32.166C87.495 32.0727 87.5976 32.0167 87.719 31.998C87.8403 31.97 87.9756 32.0073 88.125 32.11C88.545 32.3807 88.9883 32.5813 89.455 32.712C89.9216 32.8333 90.4303 32.894 90.981 32.894C91.7743 32.894 92.3576 32.754 92.731 32.474C93.1136 32.1847 93.305 31.8113 93.305 31.354C93.305 30.9807 93.1696 30.6867 92.899 30.472C92.6283 30.248 92.1756 30.0707 91.541 29.94L90.043 29.632C89.1563 29.4453 88.4936 29.1373 88.055 28.708C87.6256 28.2787 87.411 27.7 87.411 26.972C87.411 26.5333 87.4996 26.132 87.677 25.768C87.8636 25.404 88.1203 25.0913 88.447 24.83C88.7736 24.5593 89.1656 24.354 89.623 24.214C90.0803 24.074 90.5796 24.004 91.121 24.004C91.6996 24.004 92.241 24.0787 92.745 24.228C93.2583 24.3773 93.7156 24.606 94.117 24.914C94.2383 24.998 94.3176 25.1053 94.355 25.236C94.4016 25.3573 94.411 25.4787 94.383 25.6C94.3643 25.7213 94.313 25.824 94.229 25.908C94.145 25.992 94.0376 26.0433 93.907 26.062C93.7763 26.0713 93.6316 26.0247 93.473 25.922C93.109 25.6793 92.7356 25.5067 92.353 25.404C91.9796 25.292 91.5643 25.236 91.107 25.236C90.6496 25.236 90.2483 25.306 89.903 25.446C89.567 25.586 89.3056 25.782 89.119 26.034C88.9416 26.286 88.853 26.5847 88.853 26.93C88.853 27.322 88.979 27.6347 89.231 27.868C89.483 28.1013 89.903 28.2787 90.491 28.4L91.975 28.708C92.9083 28.904 93.6036 29.2073 94.061 29.618C94.5183 30.0287 94.747 30.5747 94.747 31.256C94.747 31.6947 94.6583 32.0913 94.481 32.446C94.3036 32.7913 94.0516 33.09 93.725 33.342C93.3983 33.594 93.0016 33.79 92.535 33.93C92.0776 34.0607 91.5596 34.126 90.981 34.126ZM99.1169 34.126C98.5569 34.126 98.0856 34.028 97.7029 33.832C97.3203 33.636 97.0356 33.3467 96.8489 32.964C96.6623 32.5813 96.5689 32.1147 96.5689 31.564V28.26H95.7289C95.5423 28.26 95.3976 28.2133 95.2949 28.12C95.1923 28.0173 95.1409 27.882 95.1409 27.714C95.1409 27.5367 95.1923 27.4013 95.2949 27.308C95.3976 27.2147 95.5423 27.168 95.7289 27.168H96.5689V25.726C96.5689 25.4927 96.6296 25.3153 96.7509 25.194C96.8816 25.0727 97.0589 25.012 97.2829 25.012C97.5069 25.012 97.6796 25.0727 97.8009 25.194C97.9223 25.3153 97.9829 25.4927 97.9829 25.726V27.168H99.6209C99.8076 27.168 99.9523 27.2147 100.055 27.308C100.158 27.4013 100.209 27.5367 100.209 27.714C100.209 27.882 100.158 28.0173 100.055 28.12C99.9523 28.2133 99.8076 28.26 99.6209 28.26H97.9829V31.452C97.9829 31.9467 98.0856 32.32 98.2909 32.572C98.5056 32.824 98.8509 32.95 99.3269 32.95C99.4949 32.95 99.6396 32.936 99.7609 32.908C99.8916 32.8707 99.9989 32.8473 100.083 32.838C100.186 32.838 100.27 32.8753 100.335 32.95C100.4 33.0153 100.433 33.146 100.433 33.342C100.433 33.482 100.405 33.6127 100.349 33.734C100.302 33.8553 100.214 33.9347 100.083 33.972C99.9709 34.0093 99.8169 34.042 99.6209 34.07C99.4343 34.1073 99.2663 34.126 99.1169 34.126ZM104.218 34.126C103.527 34.126 102.93 33.9813 102.426 33.692C101.931 33.4027 101.544 32.992 101.264 32.46C100.984 31.928 100.844 31.3027 100.844 30.584C100.844 30.0333 100.923 29.5433 101.082 29.114C101.241 28.6847 101.465 28.316 101.754 28.008C102.053 27.6907 102.407 27.4527 102.818 27.294C103.238 27.126 103.705 27.042 104.218 27.042C104.899 27.042 105.487 27.1867 105.982 27.476C106.486 27.7653 106.878 28.176 107.158 28.708C107.438 29.2307 107.578 29.856 107.578 30.584C107.578 31.1253 107.499 31.6153 107.34 32.054C107.181 32.4927 106.953 32.866 106.654 33.174C106.365 33.482 106.01 33.72 105.59 33.888C105.179 34.0467 104.722 34.126 104.218 34.126ZM104.218 33.034C104.601 33.034 104.937 32.9407 105.226 32.754C105.515 32.5673 105.739 32.292 105.898 31.928C106.066 31.564 106.15 31.116 106.15 30.584C106.15 29.7813 105.973 29.1747 105.618 28.764C105.263 28.3533 104.797 28.148 104.218 28.148C103.826 28.148 103.485 28.2413 103.196 28.428C102.907 28.6053 102.678 28.876 102.51 29.24C102.351 29.604 102.272 30.052 102.272 30.584C102.272 31.3773 102.449 31.984 102.804 32.404C103.159 32.824 103.63 33.034 104.218 33.034ZM109.88 34.098C109.647 34.098 109.469 34.0373 109.348 33.916C109.227 33.7853 109.166 33.608 109.166 33.384V27.784C109.166 27.5507 109.227 27.3733 109.348 27.252C109.469 27.1307 109.637 27.07 109.852 27.07C110.076 27.07 110.244 27.1307 110.356 27.252C110.477 27.3733 110.538 27.5507 110.538 27.784V28.806H110.398C110.547 28.246 110.823 27.8213 111.224 27.532C111.625 27.2427 112.139 27.0747 112.764 27.028C112.932 27.0187 113.063 27.0607 113.156 27.154C113.259 27.2473 113.315 27.392 113.324 27.588C113.343 27.784 113.301 27.9427 113.198 28.064C113.095 28.176 112.937 28.2413 112.722 28.26L112.456 28.288C111.849 28.344 111.387 28.5353 111.07 28.862C110.753 29.1887 110.594 29.6367 110.594 30.206V33.384C110.594 33.608 110.533 33.7853 110.412 33.916C110.3 34.0373 110.123 34.098 109.88 34.098ZM117.499 34.126C116.752 34.126 116.108 33.986 115.567 33.706C115.035 33.4167 114.619 33.0107 114.321 32.488C114.031 31.956 113.887 31.326 113.887 30.598C113.887 29.8887 114.031 29.268 114.321 28.736C114.61 28.204 115.007 27.7887 115.511 27.49C116.015 27.1913 116.589 27.042 117.233 27.042C117.709 27.042 118.133 27.1213 118.507 27.28C118.88 27.4293 119.197 27.6533 119.459 27.952C119.729 28.2413 119.93 28.596 120.061 29.016C120.201 29.436 120.271 29.9073 120.271 30.43C120.271 30.5887 120.224 30.71 120.131 30.794C120.037 30.8687 119.897 30.906 119.711 30.906H115.007V30.038H119.319L119.081 30.234C119.081 29.7673 119.011 29.3707 118.871 29.044C118.74 28.7173 118.539 28.47 118.269 28.302C118.007 28.1247 117.681 28.036 117.289 28.036C116.85 28.036 116.477 28.1387 116.169 28.344C115.87 28.5493 115.641 28.834 115.483 29.198C115.324 29.562 115.245 29.9867 115.245 30.472V30.556C115.245 31.3773 115.436 31.998 115.819 32.418C116.211 32.8287 116.775 33.034 117.513 33.034C117.793 33.034 118.087 32.9967 118.395 32.922C118.712 32.8473 119.011 32.7213 119.291 32.544C119.449 32.4507 119.589 32.4087 119.711 32.418C119.841 32.4273 119.944 32.4693 120.019 32.544C120.103 32.6187 120.154 32.712 120.173 32.824C120.191 32.936 120.173 33.0527 120.117 33.174C120.061 33.286 119.963 33.3887 119.823 33.482C119.505 33.6967 119.137 33.86 118.717 33.972C118.297 34.0747 117.891 34.126 117.499 34.126Z" fill="#003F99" style="fill:#003F99;fill:color(display-p3 0.0000 0.2471 0.6000);fill-opacity:1;"/>
</svg>
