<svg width="915" height="515" viewBox="0 0 915 515" fill="none" xmlns="http://www.w3.org/2000/svg">
<g clip-path="url(#clip0_6049_1782)">
<mask id="mask0_6049_1782" style="mask-type:luminance" maskUnits="userSpaceOnUse" x="0" y="0" width="915" height="239">
<path d="M0 0H914.997V238.354H0V0Z" fill="white" style="fill:white;fill-opacity:1;"/>
</mask>
<g mask="url(#mask0_6049_1782)">
<path fill-rule="evenodd" clip-rule="evenodd" d="M0.0458984 156.129L66.8756 151.947C68.3101 162.769 71.2861 171.042 75.7424 176.659C83.0069 185.847 93.3541 190.457 106.815 190.457C116.841 190.457 124.594 188.121 129.997 183.405C135.46 178.673 138.162 173.209 138.162 167.012C138.162 161.12 135.628 155.794 130.47 151.138C125.342 146.483 113.347 142.118 94.5139 137.92C63.6401 131.036 41.679 121.802 28.5237 110.293C15.2615 98.8152 8.63807 84.1928 8.63807 66.3652C8.63807 54.6887 12.0414 43.6685 18.8174 33.2741C25.6087 22.8186 35.8034 14.6374 49.4318 8.69997C63.0602 2.74724 81.7249 -0.213867 105.441 -0.213867C134.56 -0.213867 156.735 5.18938 172.011 16.0875C187.288 26.9092 196.353 44.1416 199.268 67.7999L133.079 71.7226C131.324 61.3893 127.616 53.8492 121.984 49.1786C116.307 44.4622 108.524 42.1269 98.604 42.1269C90.4239 42.1269 84.2278 43.8822 80.1072 47.3317C75.9408 50.7812 73.8805 55.0092 73.8805 60.0003C73.8805 63.6178 75.5746 66.8536 78.9321 69.7689C82.1522 72.7911 89.9966 75.5537 102.419 78.1333C133.186 84.7881 155.193 91.5193 168.455 98.3115C181.763 105.104 191.47 113.468 197.528 123.557C203.572 133.585 206.594 144.834 206.594 157.305C206.594 171.896 202.565 185.359 194.507 197.722C186.403 210.009 175.155 219.427 160.611 225.792C146.128 232.156 127.875 235.331 105.823 235.331C67.0892 235.331 40.2444 227.852 25.3493 212.94C10.4389 198.043 1.99936 179.101 0.0458984 156.129ZM241.97 3.61725H430.387V52.3076H312.63V88.604H421.81V135.066H312.63V179.956H433.882V231.5H241.97V3.61725ZM459.734 156.129L526.549 151.947C527.983 162.769 530.944 171.042 535.4 176.659C542.68 185.847 553.012 190.457 566.488 190.457C576.515 190.457 584.267 188.121 589.67 183.405C595.134 178.673 597.835 173.209 597.835 167.012C597.835 161.12 595.286 155.794 590.143 151.138C585 146.483 573.035 142.118 554.187 137.92C523.313 131.036 501.352 121.802 488.212 110.293C474.935 98.8152 468.311 84.1928 468.311 66.3652C468.311 54.6887 471.699 43.6685 478.491 33.2741C485.297 22.8186 495.461 14.6374 509.09 8.69997C522.733 2.74724 541.398 -0.213867 565.114 -0.213867C594.233 -0.213867 616.408 5.18938 631.685 16.0875C646.961 26.9092 656.027 44.1416 658.941 67.7999L592.753 71.7226C590.998 61.3893 587.289 53.8492 581.658 49.1786C575.98 44.4622 568.182 42.1269 558.262 42.1269C550.097 42.1269 543.901 43.8822 539.765 47.3317C535.614 50.7812 533.554 55.0092 533.554 60.0003C533.554 63.6178 535.263 66.8536 538.59 69.7689C541.825 72.7911 549.67 75.5537 562.093 78.1333C592.86 84.7881 614.867 91.5193 628.129 98.3115C641.437 105.104 651.143 113.468 657.202 123.557C663.245 133.585 666.267 144.834 666.267 157.305C666.267 171.896 662.238 185.359 654.18 197.722C646.061 210.009 634.813 219.427 620.269 225.792C605.801 232.156 587.549 235.331 565.481 235.331C526.762 235.331 499.933 227.852 485.023 212.94C470.112 198.043 461.688 179.101 459.734 156.129ZM853.463 138.256L915.211 156.877C911.06 174.171 904.543 188.656 895.569 200.225C886.657 211.841 875.623 220.587 862.361 226.478C849.159 232.37 832.357 235.331 811.922 235.331C787.107 235.331 766.885 231.729 751.136 224.571C735.432 217.336 721.91 204.667 710.51 186.565C699.094 168.493 693.371 145.247 693.371 117.04C693.371 79.3696 703.398 50.3996 723.451 30.1451C743.551 9.92105 771.922 -0.213867 808.625 -0.213867C837.332 -0.213867 859.934 5.57097 876.371 17.1864C892.761 28.8019 905.016 46.6296 912.967 70.7152L850.915 84.4676C848.732 77.5685 846.458 72.5316 844.077 69.3415C840.094 63.9688 835.256 59.8477 829.594 56.9629C823.856 54.0629 817.492 52.6281 810.441 52.6281C794.432 52.6281 782.162 59.054 773.677 71.8295C767.267 81.3386 764.016 96.2967 764.016 116.612C764.016 141.858 767.847 159.106 775.539 168.493C783.23 177.834 793.99 182.505 807.893 182.505C821.368 182.505 831.548 178.734 838.446 171.133C845.344 163.608 850.319 152.634 853.463 138.256Z" fill="#2E3092" style="fill:#2E3092;fill:color(display-p3 0.1804 0.1882 0.5723);fill-opacity:1;"/>
</g>
<path fill-rule="evenodd" clip-rule="evenodd" d="M216.36 275.489H434.659V332.91H361.359V507.753H289.661V332.91H216.36V275.489ZM444.106 275.489H519.085L571.417 442.654L623 275.489H695.797L609.585 507.753H531.844L444.106 275.489Z" fill="white" style="fill:white;fill-opacity:1;"/>
<mask id="mask1_6049_1782" style="mask-type:luminance" maskUnits="userSpaceOnUse" x="207" y="265" width="501" height="251">
<path d="M207.066 265.706H707.152V515.003H207.066V265.706Z" fill="white" style="fill:white;fill-opacity:1;"/>
</mask>
<g mask="url(#mask1_6049_1782)">
<path fill-rule="evenodd" clip-rule="evenodd" d="M216.36 268.514H524.213L525.755 273.383L571.417 419.301L616.423 273.414L617.933 268.514H705.824L702.344 277.871L616.117 510.165L614.439 514.683H527.128L525.404 510.18L441.619 288.387V339.825H368.318V514.683H282.732V339.825H209.432V268.514H216.36ZM427.746 282.389H223.304V325.935H296.62V500.808H354.43V325.935H427.746V282.389ZM514.049 282.389H454.163L536.666 500.808H604.839L685.908 282.389H628.143L578.086 444.685L571.508 465.977L564.854 444.7L514.049 282.389Z" fill="#2E3092" style="fill:#2E3092;fill:color(display-p3 0.1804 0.1882 0.5723);fill-opacity:1;"/>
</g>
</g>
<defs>
<clipPath id="clip0_6049_1782">
<rect width="915" height="515" fill="white" style="fill:white;fill-opacity:1;"/>
</clipPath>
</defs>
</svg>
