<svg width="18" height="18" viewBox="0 0 18 18" fill="none" xmlns="http://www.w3.org/2000/svg">
<path d="M14.5284 9.57234C14.5467 8.18282 15.3111 6.86803 16.5236 6.14024C15.7587 5.07366 14.4774 4.39742 13.1444 4.3567C11.7227 4.211 10.3443 5.18729 9.61983 5.18729C8.88131 5.18729 7.76583 4.37117 6.56464 4.39529C4.99894 4.44468 3.53932 5.31376 2.77757 6.65015C1.14012 9.41796 2.36151 13.4857 3.93005 15.723C4.71483 16.8185 5.632 18.0423 6.83211 17.9989C8.00649 17.9513 8.44509 17.2678 9.86267 17.2678C11.2671 17.2678 11.6786 17.9989 12.903 17.9713C14.1632 17.9513 14.9572 16.8709 15.7144 15.765C16.2783 14.9844 16.7122 14.1216 17 13.2087C15.5191 12.5972 14.5301 11.1422 14.5284 9.57234Z" fill="#E8E8E8" style="fill:#E8E8E8;fill:color(display-p3 0.9098 0.9098 0.9098);fill-opacity:1;"/>
<path d="M12.2156 2.88535C12.9027 2.08007 13.2412 1.04502 13.1592 0C12.1095 0.10764 11.1398 0.59745 10.4434 1.37184C9.76249 2.12845 9.40811 3.14529 9.47511 4.15037C10.5252 4.16092 11.5575 3.68439 12.2156 2.88535Z" fill="#E8E8E8" style="fill:#E8E8E8;fill:color(display-p3 0.9098 0.9098 0.9098);fill-opacity:1;"/>
</svg>
