<svg width="64" height="20" viewBox="0 0 64 20" fill="none" xmlns="http://www.w3.org/2000/svg">
<path d="M16.7402 7.74022H13.7598V4.75978C13.7598 3.5115 12.7483 2.5 11.5 2.5C10.2517 2.5 9.24022 3.5115 9.24022 4.75978V7.74022H6.25978C5.0115 7.74022 4 8.75172 4 10C4 11.2483 5.0115 12.2598 6.25978 12.2598H9.24022V15.2402C9.24022 16.4885 10.2517 17.5 11.5 17.5C12.7483 17.5 13.7598 16.4885 13.7598 15.2402V12.2598H16.7402C17.9885 12.2598 19 11.2483 19 10C19 8.75172 17.9885 7.74022 16.7402 7.74022Z" fill="#95EB1D" style="fill:#95EB1D;fill:color(display-p3 0.5843 0.9216 0.1137);fill-opacity:1;"/>
<path d="M23.6067 5.438V1.94H29.7007V18H25.7847V5.438H23.6067ZM32.2742 9.75C32.2742 7.22733 32.7582 5.24 33.7262 3.788C34.7088 2.336 36.2855 1.61 38.4562 1.61C40.6268 1.61 42.1962 2.336 43.1642 3.788C44.1468 5.24 44.6382 7.22733 44.6382 9.75C44.6382 12.302 44.1468 14.304 43.1642 15.756C42.1962 17.208 40.6268 17.934 38.4562 17.934C36.2855 17.934 34.7088 17.208 33.7262 15.756C32.7582 14.304 32.2742 12.302 32.2742 9.75ZM40.9422 9.75C40.9422 8.26867 40.7808 7.132 40.4582 6.34C40.1355 5.53333 39.4682 5.13 38.4562 5.13C37.4442 5.13 36.7768 5.53333 36.4542 6.34C36.1315 7.132 35.9702 8.26867 35.9702 9.75C35.9702 10.7473 36.0288 11.576 36.1462 12.236C36.2635 12.8813 36.4982 13.4093 36.8502 13.82C37.2168 14.216 37.7522 14.414 38.4562 14.414C39.1602 14.414 39.6882 14.216 40.0402 13.82C40.4068 13.4093 40.6488 12.8813 40.7662 12.236C40.8835 11.576 40.9422 10.7473 40.9422 9.75ZM46.6257 9.75C46.6257 7.22733 47.1097 5.24 48.0777 3.788C49.0604 2.336 50.6371 1.61 52.8077 1.61C54.9784 1.61 56.5477 2.336 57.5157 3.788C58.4984 5.24 58.9897 7.22733 58.9897 9.75C58.9897 12.302 58.4984 14.304 57.5157 15.756C56.5477 17.208 54.9784 17.934 52.8077 17.934C50.6371 17.934 49.0604 17.208 48.0777 15.756C47.1097 14.304 46.6257 12.302 46.6257 9.75ZM55.2937 9.75C55.2937 8.26867 55.1324 7.132 54.8097 6.34C54.4871 5.53333 53.8197 5.13 52.8077 5.13C51.7957 5.13 51.1284 5.53333 50.8057 6.34C50.4831 7.132 50.3217 8.26867 50.3217 9.75C50.3217 10.7473 50.3804 11.576 50.4977 12.236C50.6151 12.8813 50.8497 13.4093 51.2017 13.82C51.5684 14.216 52.1037 14.414 52.8077 14.414C53.5117 14.414 54.0397 14.216 54.3917 13.82C54.7584 13.4093 55.0004 12.8813 55.1177 12.236C55.2351 11.576 55.2937 10.7473 55.2937 9.75Z" fill="white" style="fill:white;fill-opacity:1;"/>
</svg>
