<svg width="28" height="28" viewBox="0 0 28 28" fill="none" xmlns="http://www.w3.org/2000/svg">
<path d="M4.66675 16.3331C4.21612 16.3347 3.80491 16.0766 3.61039 15.6701C3.41588 15.2636 3.47285 14.7814 3.75675 14.4315L15.3067 2.53148C15.4852 2.32551 15.7825 2.27053 16.0228 2.39906C16.2631 2.5276 16.3824 2.80538 16.3101 3.06814L14.0701 10.0915C13.936 10.4503 13.9866 10.8521 14.2055 11.1665C14.4244 11.4808 14.7837 11.6677 15.1667 11.6665H23.3334C23.784 11.6649 24.1953 11.9231 24.3898 12.3295C24.5843 12.736 24.5273 13.2182 24.2434 13.5681L12.6934 25.4681C12.515 25.6741 12.2177 25.7291 11.9774 25.6006C11.7371 25.472 11.6178 25.1942 11.6901 24.9315L13.9301 17.9081C14.0642 17.5493 14.0135 17.1475 13.7946 16.8331C13.5758 16.5188 13.2165 16.3319 12.8334 16.3331H4.66675" stroke="white" style="stroke:white;stroke-opacity:1;" stroke-width="2.33333" stroke-linecap="round" stroke-linejoin="round"/>
</svg>
