<svg width="18" height="18" viewBox="0 0 18 18" fill="none" xmlns="http://www.w3.org/2000/svg">
<g clip-path="url(#clip0_6317_829)">
<path d="M5.25 1.5H12.75C14.8197 1.5 16.5 3.18032 16.5 5.25V12.75C16.5 14.8197 14.8197 16.5 12.75 16.5H5.25C3.18032 16.5 1.5 14.8197 1.5 12.75V5.25C1.5 3.18032 3.18032 1.5 5.25 1.5V1.5" stroke="white" stroke-opacity="0.8" style="stroke:white;stroke-opacity:0.8;" stroke-width="1.5" stroke-linecap="round" stroke-linejoin="round"/>
<path d="M12.0008 8.52737C12.1907 9.8076 11.5381 11.0653 10.3821 11.6471C9.22601 12.229 7.82712 12.0039 6.91197 11.0887C5.99681 10.1736 5.77171 8.7747 6.35358 7.61865C6.93545 6.4626 8.19311 5.81003 9.47334 5.99987C10.7806 6.19372 11.807 7.22014 12.0008 8.52737V8.52737" stroke="white" stroke-opacity="0.8" style="stroke:white;stroke-opacity:0.8;" stroke-width="1.5" stroke-linecap="round" stroke-linejoin="round"/>
<path d="M13.125 4.875H13.1325" stroke="white" stroke-opacity="0.8" style="stroke:white;stroke-opacity:0.8;" stroke-width="1.5" stroke-linecap="round" stroke-linejoin="round"/>
</g>
<defs>
<clipPath id="clip0_6317_829">
<rect width="18" height="18" fill="white" style="fill:white;fill-opacity:1;"/>
</clipPath>
</defs>
</svg>
