<svg width="20" height="20" viewBox="0 0 20 20" fill="none" xmlns="http://www.w3.org/2000/svg">
<path d="M7.26368 20L6.86567 16.8C6.65008 16.7167 6.44693 16.6167 6.25622 16.5C6.06551 16.3833 5.87894 16.2583 5.69652 16.125L2.73632 17.375L0 12.625L2.56219 10.675C2.54561 10.5583 2.53731 10.4458 2.53731 10.3375V9.6625C2.53731 9.55417 2.54561 9.44167 2.56219 9.325L0 7.375L2.73632 2.625L5.69652 3.875C5.87894 3.74167 6.06965 3.61667 6.26866 3.5C6.46766 3.38333 6.66667 3.28333 6.86567 3.2L7.26368 0H12.7363L13.1343 3.2C13.3499 3.28333 13.5531 3.38333 13.7438 3.5C13.9345 3.61667 14.1211 3.74167 14.3035 3.875L17.2637 2.625L20 7.375L17.4378 9.325C17.4544 9.44167 17.4627 9.55417 17.4627 9.6625V10.3375C17.4627 10.4458 17.4461 10.5583 17.4129 10.675L19.9751 12.625L17.2388 17.375L14.3035 16.125C14.1211 16.2583 13.9303 16.3833 13.7313 16.5C13.5323 16.6167 13.3333 16.7167 13.1343 16.8L12.7363 20H7.26368ZM9.00498 18H10.9701L11.3184 15.35C11.8325 15.2167 12.3093 15.0208 12.7488 14.7625C13.1882 14.5042 13.5904 14.1917 13.9552 13.825L16.4179 14.85L17.3881 13.15L15.2488 11.525C15.3317 11.2917 15.3897 11.0458 15.4229 10.7875C15.4561 10.5292 15.4726 10.2667 15.4726 10C15.4726 9.73333 15.4561 9.47083 15.4229 9.2125C15.3897 8.95417 15.3317 8.70833 15.2488 8.475L17.3881 6.85L16.4179 5.15L13.9552 6.2C13.5904 5.81667 13.1882 5.49583 12.7488 5.2375C12.3093 4.97917 11.8325 4.78333 11.3184 4.65L10.995 2H9.02985L8.68159 4.65C8.1675 4.78333 7.69071 4.97917 7.25124 5.2375C6.81177 5.49583 6.40962 5.80833 6.04478 6.175L3.58209 5.15L2.61194 6.85L4.75124 8.45C4.66832 8.7 4.61028 8.95 4.57711 9.2C4.54395 9.45 4.52736 9.71667 4.52736 10C4.52736 10.2667 4.54395 10.525 4.57711 10.775C4.61028 11.025 4.66832 11.275 4.75124 11.525L2.61194 13.15L3.58209 14.85L6.04478 13.8C6.40962 14.1833 6.81177 14.5042 7.25124 14.7625C7.69071 15.0208 8.1675 15.2167 8.68159 15.35L9.00498 18ZM10.0498 13.5C11.0116 13.5 11.8325 13.1583 12.5124 12.475C13.1924 11.7917 13.5323 10.9667 13.5323 10C13.5323 9.03333 13.1924 8.20833 12.5124 7.525C11.8325 6.84167 11.0116 6.5 10.0498 6.5C9.07131 6.5 8.24627 6.84167 7.57463 7.525C6.90299 8.20833 6.56716 9.03333 6.56716 10C6.56716 10.9667 6.90299 11.7917 7.57463 12.475C8.24627 13.1583 9.07131 13.5 10.0498 13.5Z" fill="#E3E3E3" style="fill:#E3E3E3;fill:color(display-p3 0.8902 0.8902 0.8902);fill-opacity:1;"/>
</svg>
