<svg width="47" height="16" viewBox="0 0 47 16" fill="none" xmlns="http://www.w3.org/2000/svg">
<g clip-path="url(#clip0_6310_424)">
<rect width="47" height="16" rx="2" fill="#49C501" style="fill:#49C501;fill:color(display-p3 0.2863 0.7725 0.0039);fill-opacity:1;"/>
<path d="M4.0204 13V3.2H5.8964L10.0684 10.116H9.0744L13.1764 3.2H15.0384L15.0664 13H12.9384L12.9244 6.462H13.3164L10.0404 11.964H9.0184L5.6724 6.462H6.1484V13H4.0204ZM16.3915 13V3.2H23.7975V5.02H18.6455V11.18H23.9795V13H16.3915ZM18.4775 8.912V7.148H23.1955V8.912H18.4775ZM29.5161 13.168C28.7414 13.168 28.0274 13.0467 27.3741 12.804C26.7301 12.552 26.1654 12.1973 25.6801 11.74C25.2041 11.2827 24.8307 10.746 24.5601 10.13C24.2987 9.514 24.1681 8.83733 24.1681 8.1C24.1681 7.36267 24.2987 6.686 24.5601 6.07C24.8307 5.454 25.2087 4.91733 25.6941 4.46C26.1794 4.00267 26.7487 3.65267 27.4021 3.41C28.0554 3.158 28.7741 3.032 29.5581 3.032C30.4261 3.032 31.2054 3.17667 31.8961 3.466C32.5961 3.75533 33.1841 4.17533 33.6601 4.726L32.2041 6.07C31.8494 5.69667 31.4621 5.42133 31.0421 5.244C30.6221 5.05733 30.1647 4.964 29.6701 4.964C29.1941 4.964 28.7601 5.03867 28.3681 5.188C27.9761 5.33733 27.6354 5.552 27.3461 5.832C27.0661 6.112 26.8467 6.44333 26.6881 6.826C26.5387 7.20867 26.4641 7.63333 26.4641 8.1C26.4641 8.55733 26.5387 8.97733 26.6881 9.36C26.8467 9.74267 27.0661 10.0787 27.3461 10.368C27.6354 10.648 27.9714 10.8627 28.3541 11.012C28.7461 11.1613 29.1754 11.236 29.6421 11.236C30.0901 11.236 30.5241 11.166 30.9441 11.026C31.3734 10.8767 31.7887 10.6293 32.1901 10.284L33.4781 11.922C32.9461 12.3233 32.3254 12.6313 31.6161 12.846C30.9161 13.0607 30.2161 13.168 29.5161 13.168ZM33.4781 11.922L31.4061 11.628V7.946H33.4781V11.922ZM33.2969 13L37.6649 3.2H39.9049L44.2869 13H41.9069L38.3229 4.348H39.2189L35.6209 13H33.2969ZM35.4809 10.9L36.0829 9.178H41.1229L41.7389 10.9H35.4809Z" fill="white" style="fill:white;fill-opacity:1;"/>
</g>
<defs>
<clipPath id="clip0_6310_424">
<rect width="47" height="16" rx="2" fill="white" style="fill:white;fill-opacity:1;"/>
</clipPath>
</defs>
</svg>
