<svg width="29" height="20" viewBox="0 0 29 20" fill="none" xmlns="http://www.w3.org/2000/svg">
<path d="M12.3552 19.1471C11.7712 18.5784 11.4792 17.8824 11.4792 17.0588C11.4792 16.2353 11.7712 15.5392 12.3552 14.9706C12.9392 14.402 13.6542 14.1176 14.5 14.1176C15.3458 14.1176 16.0608 14.402 16.6448 14.9706C17.2288 15.5392 17.5208 16.2353 17.5208 17.0588C17.5208 17.8824 17.2288 18.5784 16.6448 19.1471C16.0608 19.7157 15.3458 20 14.5 20C13.6542 20 12.9392 19.7157 12.3552 19.1471ZM7.67292 13.3529L5.13542 10.8235C6.32361 9.66667 7.71823 8.75 9.31927 8.07353C10.9203 7.39706 12.6472 7.05882 14.5 7.05882C16.3528 7.05882 18.0797 7.40196 19.6807 8.08823C21.2818 8.77451 22.6764 9.70588 23.8646 10.8824L21.3271 13.3529C20.441 12.4902 19.4139 11.8137 18.2458 11.3235C17.0778 10.8333 15.8292 10.5882 14.5 10.5882C13.1708 10.5882 11.9222 10.8333 10.7542 11.3235C9.58611 11.8137 8.55903 12.4902 7.67292 13.3529ZM2.5375 8.35294L0 5.88235C1.85278 4.03922 4.01771 2.59804 6.49479 1.55882C8.97188 0.519608 11.6403 0 14.5 0C17.3597 0 20.0281 0.519608 22.5052 1.55882C24.9823 2.59804 27.1472 4.03922 29 5.88235L26.4625 8.35294C24.9118 6.84314 23.1144 5.66176 21.0703 4.80882C19.0262 3.95588 16.8361 3.52941 14.5 3.52941C12.1639 3.52941 9.97378 3.95588 7.92969 4.80882C5.88559 5.66176 4.08819 6.84314 2.5375 8.35294Z" fill="#E3E3E3" style="fill:#E3E3E3;fill:color(display-p3 0.8902 0.8902 0.8902);fill-opacity:1;"/>
</svg>
