<svg width="223" height="76" viewBox="0 0 223 76" fill="none" xmlns="http://www.w3.org/2000/svg">
<rect x="0.5" y="0.5" width="222" height="74.9153" rx="7.5" stroke="white" stroke-opacity="0.51" style="stroke:white;stroke-opacity:0.51;"/>
<path d="M43.3428 20.8428H41.1572V18.6572C41.1572 17.7418 40.4154 17 39.5 17C38.5846 17 37.8428 17.7418 37.8428 18.6572V20.8428H35.6572C34.7418 20.8428 34 21.5846 34 22.5C34 23.4154 34.7418 24.1572 35.6572 24.1572H37.8428V26.3428C37.8428 27.2582 38.5846 28 39.5 28C40.4154 28 41.1572 27.2582 41.1572 26.3428V24.1572H43.3428C44.2582 24.1572 45 23.4154 45 22.5C45 21.5846 44.2582 20.8428 43.3428 20.8428Z" fill="#95EB1D" style="fill:#95EB1D;fill:color(display-p3 0.5843 0.9216 0.1137);fill-opacity:1;"/>
<path d="M49.2826 26.5L53.0266 18.1H54.9466L58.7026 26.5H56.6626L53.5906 19.084H54.3586L51.2746 26.5H49.2826ZM51.1546 24.7L51.6706 23.224H55.9906L56.5186 24.7H51.1546ZM62.3341 26.644C61.6621 26.644 61.0181 26.556 60.4021 26.38C59.7861 26.196 59.2901 25.96 58.9141 25.672L59.5741 24.208C59.9341 24.464 60.3581 24.676 60.8461 24.844C61.3421 25.004 61.8421 25.084 62.3461 25.084C62.7301 25.084 63.0381 25.048 63.2701 24.976C63.5101 24.896 63.6861 24.788 63.7981 24.652C63.9101 24.516 63.9661 24.36 63.9661 24.184C63.9661 23.96 63.8781 23.784 63.7021 23.656C63.5261 23.52 63.2941 23.412 63.0061 23.332C62.7181 23.244 62.3981 23.164 62.0461 23.092C61.7021 23.012 61.3541 22.916 61.0021 22.804C60.6581 22.692 60.3421 22.548 60.0541 22.372C59.7661 22.196 59.5301 21.964 59.3461 21.676C59.1701 21.388 59.0821 21.02 59.0821 20.572C59.0821 20.092 59.2101 19.656 59.4661 19.264C59.7301 18.864 60.1221 18.548 60.6421 18.316C61.1701 18.076 61.8301 17.956 62.6221 17.956C63.1501 17.956 63.6701 18.02 64.1821 18.148C64.6941 18.268 65.1461 18.452 65.5381 18.7L64.9381 20.176C64.5461 19.952 64.1541 19.788 63.7621 19.684C63.3701 19.572 62.9861 19.516 62.6101 19.516C62.2341 19.516 61.9261 19.56 61.6861 19.648C61.4461 19.736 61.2741 19.852 61.1701 19.996C61.0661 20.132 61.0141 20.292 61.0141 20.476C61.0141 20.692 61.1021 20.868 61.2781 21.004C61.4541 21.132 61.6861 21.236 61.9741 21.316C62.2621 21.396 62.5781 21.476 62.9221 21.556C63.2741 21.636 63.6221 21.728 63.9661 21.832C64.3181 21.936 64.6381 22.076 64.9261 22.252C65.2141 22.428 65.4461 22.66 65.6221 22.948C65.8061 23.236 65.8981 23.6 65.8981 24.04C65.8981 24.512 65.7661 24.944 65.5021 25.336C65.2381 25.728 64.8421 26.044 64.3141 26.284C63.7941 26.524 63.1341 26.644 62.3341 26.644ZM69.9865 26.644C69.3145 26.644 68.6705 26.556 68.0545 26.38C67.4385 26.196 66.9425 25.96 66.5665 25.672L67.2265 24.208C67.5865 24.464 68.0105 24.676 68.4985 24.844C68.9945 25.004 69.4945 25.084 69.9985 25.084C70.3825 25.084 70.6905 25.048 70.9225 24.976C71.1625 24.896 71.3385 24.788 71.4505 24.652C71.5625 24.516 71.6185 24.36 71.6185 24.184C71.6185 23.96 71.5305 23.784 71.3545 23.656C71.1785 23.52 70.9465 23.412 70.6585 23.332C70.3705 23.244 70.0505 23.164 69.6985 23.092C69.3545 23.012 69.0065 22.916 68.6545 22.804C68.3105 22.692 67.9945 22.548 67.7065 22.372C67.4185 22.196 67.1825 21.964 66.9985 21.676C66.8225 21.388 66.7345 21.02 66.7345 20.572C66.7345 20.092 66.8625 19.656 67.1185 19.264C67.3825 18.864 67.7745 18.548 68.2945 18.316C68.8225 18.076 69.4825 17.956 70.2745 17.956C70.8025 17.956 71.3225 18.02 71.8345 18.148C72.3465 18.268 72.7985 18.452 73.1905 18.7L72.5905 20.176C72.1985 19.952 71.8065 19.788 71.4145 19.684C71.0225 19.572 70.6385 19.516 70.2625 19.516C69.8865 19.516 69.5785 19.56 69.3385 19.648C69.0985 19.736 68.9265 19.852 68.8225 19.996C68.7185 20.132 68.6665 20.292 68.6665 20.476C68.6665 20.692 68.7545 20.868 68.9305 21.004C69.1065 21.132 69.3385 21.236 69.6265 21.316C69.9145 21.396 70.2305 21.476 70.5745 21.556C70.9265 21.636 71.2745 21.728 71.6185 21.832C71.9705 21.936 72.2905 22.076 72.5785 22.252C72.8665 22.428 73.0985 22.66 73.2745 22.948C73.4585 23.236 73.5505 23.6 73.5505 24.04C73.5505 24.512 73.4185 24.944 73.1545 25.336C72.8905 25.728 72.4945 26.044 71.9665 26.284C71.4465 26.524 70.7865 26.644 69.9865 26.644ZM74.8788 26.5V18.1H76.8228V26.5H74.8788ZM78.8163 26.5V18.1H80.4243L85.3803 24.148H84.6003V18.1H86.5203V26.5H84.9243L79.9563 20.452H80.7363V26.5H78.8163ZM87.4037 26.5L91.1477 18.1H93.0677L96.8237 26.5H94.7837L91.7117 19.084H92.4797L89.3957 26.5H87.4037ZM89.2757 24.7L89.7917 23.224H94.1117L94.6397 24.7H89.2757ZM99.0133 26.5V19.684H96.3253V18.1H103.645V19.684H100.957V26.5H99.0133ZM108.259 26.644C107.067 26.644 106.135 26.312 105.463 25.648C104.791 24.984 104.455 24.036 104.455 22.804V18.1H106.399V22.732C106.399 23.532 106.563 24.108 106.891 24.46C107.219 24.812 107.679 24.988 108.271 24.988C108.863 24.988 109.323 24.812 109.651 24.46C109.979 24.108 110.143 23.532 110.143 22.732V18.1H112.063V22.804C112.063 24.036 111.727 24.984 111.055 25.648C110.383 26.312 109.451 26.644 108.259 26.644ZM113.984 26.5V18.1H117.572C118.74 18.1 119.648 18.372 120.296 18.916C120.944 19.452 121.268 20.196 121.268 21.148C121.268 21.772 121.12 22.312 120.824 22.768C120.528 23.216 120.108 23.56 119.564 23.8C119.02 24.04 118.372 24.16 117.62 24.16H115.064L115.928 23.308V26.5H113.984ZM119.324 26.5L117.224 23.452H119.3L121.424 26.5H119.324ZM115.928 23.524L115.064 22.612H117.512C118.112 22.612 118.56 22.484 118.856 22.228C119.152 21.964 119.3 21.604 119.3 21.148C119.3 20.684 119.152 20.324 118.856 20.068C118.56 19.812 118.112 19.684 117.512 19.684H115.064L115.928 18.76V23.524ZM121.704 26.5L125.449 18.1H127.369L131.125 26.5H129.085L126.013 19.084H126.781L123.697 26.5H121.704ZM123.576 24.7L124.093 23.224H128.413L128.941 24.7H123.576ZM135.684 26.5V18.1H136.572V26.5H135.684ZM139.306 26.5V18.1H140.038L145.834 25.396H145.45V18.1H146.326V26.5H145.594L139.81 19.204H140.194V26.5H139.306ZM152.715 26.572C152.083 26.572 151.499 26.468 150.963 26.26C150.427 26.044 149.963 25.744 149.571 25.36C149.179 24.976 148.871 24.524 148.647 24.004C148.431 23.484 148.323 22.916 148.323 22.3C148.323 21.684 148.431 21.116 148.647 20.596C148.871 20.076 149.179 19.624 149.571 19.24C149.971 18.856 150.439 18.56 150.975 18.352C151.511 18.136 152.095 18.028 152.727 18.028C153.335 18.028 153.907 18.132 154.443 18.34C154.979 18.54 155.431 18.844 155.799 19.252L155.235 19.816C154.891 19.464 154.511 19.212 154.095 19.06C153.679 18.9 153.231 18.82 152.751 18.82C152.247 18.82 151.779 18.908 151.347 19.084C150.915 19.252 150.539 19.496 150.219 19.816C149.899 20.128 149.647 20.496 149.463 20.92C149.287 21.336 149.199 21.796 149.199 22.3C149.199 22.804 149.287 23.268 149.463 23.692C149.647 24.108 149.899 24.476 150.219 24.796C150.539 25.108 150.915 25.352 151.347 25.528C151.779 25.696 152.247 25.78 152.751 25.78C153.231 25.78 153.679 25.7 154.095 25.54C154.511 25.38 154.891 25.124 155.235 24.772L155.799 25.336C155.431 25.744 154.979 26.052 154.443 26.26C153.907 26.468 153.331 26.572 152.715 26.572ZM157.575 26.5V18.1H158.463V25.732H163.167V26.5H157.575ZM167.873 26.572C166.801 26.572 165.957 26.264 165.341 25.648C164.725 25.032 164.417 24.12 164.417 22.912V18.1H165.305V22.876C165.305 23.868 165.529 24.6 165.977 25.072C166.425 25.544 167.057 25.78 167.873 25.78C168.697 25.78 169.333 25.544 169.781 25.072C170.229 24.6 170.453 23.868 170.453 22.876V18.1H171.317V22.912C171.317 24.12 171.009 25.032 170.393 25.648C169.785 26.264 168.945 26.572 167.873 26.572ZM176.309 26.572C175.685 26.572 175.085 26.472 174.509 26.272C173.941 26.064 173.501 25.8 173.189 25.48L173.537 24.796C173.833 25.084 174.229 25.328 174.725 25.528C175.229 25.72 175.757 25.816 176.309 25.816C176.837 25.816 177.265 25.752 177.593 25.624C177.929 25.488 178.173 25.308 178.325 25.084C178.485 24.86 178.565 24.612 178.565 24.34C178.565 24.012 178.469 23.748 178.277 23.548C178.093 23.348 177.849 23.192 177.545 23.08C177.241 22.96 176.905 22.856 176.537 22.768C176.169 22.68 175.801 22.588 175.433 22.492C175.065 22.388 174.725 22.252 174.413 22.084C174.109 21.916 173.861 21.696 173.669 21.424C173.485 21.144 173.393 20.78 173.393 20.332C173.393 19.916 173.501 19.536 173.717 19.192C173.941 18.84 174.281 18.56 174.737 18.352C175.193 18.136 175.777 18.028 176.489 18.028C176.961 18.028 177.429 18.096 177.893 18.232C178.357 18.36 178.757 18.54 179.093 18.772L178.793 19.48C178.433 19.24 178.049 19.064 177.641 18.952C177.241 18.84 176.853 18.784 176.477 18.784C175.973 18.784 175.557 18.852 175.229 18.988C174.901 19.124 174.657 19.308 174.497 19.54C174.345 19.764 174.269 20.02 174.269 20.308C174.269 20.636 174.361 20.9 174.545 21.1C174.737 21.3 174.985 21.456 175.289 21.568C175.601 21.68 175.941 21.78 176.309 21.868C176.677 21.956 177.041 22.052 177.401 22.156C177.769 22.26 178.105 22.396 178.409 22.564C178.721 22.724 178.969 22.94 179.153 23.212C179.345 23.484 179.441 23.84 179.441 24.28C179.441 24.688 179.329 25.068 179.105 25.42C178.881 25.764 178.537 26.044 178.073 26.26C177.617 26.468 177.029 26.572 176.309 26.572ZM180.032 26.5L183.872 18.1H184.748L188.588 26.5H187.652L184.124 18.616H184.484L180.956 26.5H180.032ZM181.544 24.256L181.808 23.536H186.692L186.956 24.256H181.544Z" fill="white" style="fill:white;fill-opacity:1;"/>
<path d="M52.6196 36.4124C52.2624 36.9839 52.7267 38.627 53.9054 40.913C56.2629 45.4136 56.0486 44.985 58.0132 49.0213C58.7275 50.4501 59.4776 51.9146 59.692 52.3075C59.9063 52.7004 60.5135 53.9148 61.0493 54.9864C62.5495 58.0583 63.5496 58.9155 65.4428 58.9155C66.6215 58.9155 67.3002 58.7012 68.1217 57.9868C68.7289 57.4868 69.229 56.8438 69.229 56.5581C69.229 56.2723 69.6933 55.3079 70.2649 54.4149L71.265 52.7718L71.9437 53.8077C72.3008 54.3435 72.9795 55.5579 73.4439 56.4509C74.3726 58.2726 75.3727 58.9155 77.4087 58.9155C78.9803 58.9155 80.3734 57.5939 81.695 54.8078C83.0166 51.986 83.6238 50.7358 84.8026 48.5569C85.0883 48.0569 85.8027 46.6281 86.4099 45.3422C86.9814 44.0563 87.6601 42.699 87.8744 42.3061C89.2675 39.8414 90.3391 37.3411 90.2319 36.841C90.0533 35.9123 83.5167 35.7695 82.2665 36.6624C81.8022 37.0196 80.4805 39.1271 79.3375 41.3059C78.2302 43.5205 77.1587 45.3422 77.0158 45.3422C76.8372 45.3422 76.4086 44.6635 76.0156 43.8063C75.6585 42.9847 75.0869 41.9132 74.8369 41.4131C74.5512 40.913 74.0154 39.9129 73.6582 39.1628C73.2653 38.377 72.5866 37.3768 72.1222 36.9125C71.3364 36.1266 71.015 36.0552 67.8002 36.0552C64.0497 36.0552 63.6925 36.2338 64.1211 37.9126C64.264 38.3412 64.7284 39.3414 65.1927 40.0558C65.6214 40.8059 66.0143 41.6274 66.0143 41.8774C66.0143 42.1275 66.1571 42.4847 66.3715 42.699C66.8001 43.1276 66.05 45.3422 65.4428 45.3422C65.2284 45.3422 64.907 44.985 64.6927 44.5207C62.228 39.3771 61.085 37.3054 60.3706 36.7339C59.6562 36.1624 58.9061 36.0552 56.1558 36.0552C54.2984 36.0552 52.7267 36.1981 52.6196 36.4124Z" fill="white" style="fill:white;fill-opacity:1;"/>
<path d="M93.4132 37.0553C92.8774 37.5911 92.4487 38.1984 92.4487 38.4127C92.4487 38.5913 91.9487 39.6986 91.3414 40.8773C89.0197 45.3779 89.234 44.9493 87.2337 49.0213C86.5193 50.4501 85.6978 52.0574 85.3763 52.6647C85.0906 53.2362 84.6977 53.9863 84.5548 54.272C84.4119 54.5578 84.019 55.3793 83.6975 56.058C82.5545 58.4155 82.876 58.7369 86.7694 58.8441C90.0555 58.9512 90.2699 58.8798 91.3414 57.9868C91.9487 57.4868 92.4487 56.9152 92.4487 56.7009C92.4487 56.1294 95.9849 48.9141 96.2707 48.9141C96.5207 48.9141 98.521 52.9861 99.5569 55.5579C99.8069 56.1651 100.45 57.1653 101.021 57.7725C102.057 58.9155 102.057 58.9155 105.629 58.9155H109.237V57.9868C109.237 56.5938 99.8069 37.6983 98.6639 36.8053C97.1994 35.6266 94.6276 35.7695 93.4132 37.0553Z" fill="white" style="fill:white;fill-opacity:1;"/>
<path d="M104.56 36.9124C103.953 38.1982 104.453 40.8058 105.489 41.7702C106.203 42.4131 106.882 42.6274 109.06 42.7703C110.525 42.8418 111.775 42.9489 111.811 42.9846C111.847 42.9846 111.954 46.5566 112.097 50.8786L112.275 58.7368H116.026H119.776L119.955 50.8786L120.133 43.0203L122.92 42.806C125.17 42.6274 125.884 42.4131 126.599 41.7345C127.384 40.9844 127.492 40.6629 127.384 38.5554L127.277 36.2337L116.097 36.1265L104.953 36.0551L104.56 36.9124Z" fill="white" style="fill:white;fill-opacity:1;"/>
<path d="M133.384 36.9482C131.491 37.6983 129.633 38.9842 129.312 39.7343C129.24 39.8772 128.812 40.4487 128.383 40.9845C127.24 42.3418 126.383 45.1279 126.383 47.4854C126.383 52.0932 128.705 55.7722 132.991 57.8797C135.027 58.8798 135.313 58.9155 139.956 58.9155C143.278 58.9155 144.957 58.7727 145.243 58.4869C145.778 57.9511 145.814 54.4863 145.278 53.4505C144.135 51.3073 142.635 50.7001 138.635 50.7001C136.241 50.7001 136.027 50.6287 135.17 49.5928C133.991 48.1998 133.955 46.5567 135.134 45.2351C135.92 44.3421 136.206 44.2706 138.599 44.2706C142.778 44.2706 144.457 43.5205 145.314 41.2345C145.814 39.9486 145.743 36.9839 145.243 36.4838C144.957 36.1981 143.314 36.0552 140.17 36.0552C136.063 36.0552 135.241 36.1624 133.384 36.9482Z" fill="white" style="fill:white;fill-opacity:1;"/>
<path d="M147.994 36.5197C147.886 36.7697 147.851 41.8418 147.886 47.8427L147.994 58.737L150.637 58.8442C153.209 58.9513 153.316 58.9156 154.459 57.8083C155.566 56.7368 155.638 56.451 155.745 54.1292L155.852 51.5932L159.031 51.486C161.353 51.4146 162.317 51.5217 162.531 51.8432C162.674 52.0932 162.817 53.2363 162.817 54.3793C162.817 56.3081 162.924 56.5939 164.032 57.7012C165.246 58.9156 165.317 58.9513 167.889 58.8442L170.497 58.737V47.4855V36.2339L167.889 36.1267C165.317 36.0196 165.246 36.0553 164.032 37.2698C162.96 38.3413 162.817 38.6985 162.817 40.4488C162.817 43.5563 162.817 43.5563 159.459 43.5563C157.674 43.5563 156.352 43.3777 156.102 43.1277C155.852 42.8777 155.673 41.7347 155.673 40.5202C155.673 38.5199 155.566 38.2342 154.494 37.1983C153.387 36.1267 153.173 36.0553 150.744 36.0553C148.994 36.0553 148.101 36.1982 147.994 36.5197Z" fill="white" style="fill:white;fill-opacity:1;"/>
</svg>
