<svg width="223" height="80" viewBox="0 0 223 80" fill="none" xmlns="http://www.w3.org/2000/svg">
<rect x="0.5" y="0.5" width="222" height="79" rx="7.5" stroke="white" stroke-opacity="0.51" style="stroke:white;stroke-opacity:0.51;"/>
<path d="M43.3428 20.8428H41.1572V18.6572C41.1572 17.7418 40.4154 17 39.5 17C38.5846 17 37.8428 17.7418 37.8428 18.6572V20.8428H35.6572C34.7418 20.8428 34 21.5846 34 22.5C34 23.4154 34.7418 24.1572 35.6572 24.1572H37.8428V26.3428C37.8428 27.2582 38.5846 28 39.5 28C40.4154 28 41.1572 27.2582 41.1572 26.3428V24.1572H43.3428C44.2582 24.1572 45 23.4154 45 22.5C45 21.5846 44.2582 20.8428 43.3428 20.8428Z" fill="#95EB1D" style="fill:#95EB1D;fill:color(display-p3 0.5843 0.9216 0.1137);fill-opacity:1;"/>
<path d="M49.2826 26.5L53.0266 18.1H54.9466L58.7026 26.5H56.6626L53.5906 19.084H54.3586L51.2746 26.5H49.2826ZM51.1546 24.7L51.6706 23.224H55.9906L56.5186 24.7H51.1546ZM62.3341 26.644C61.6621 26.644 61.0181 26.556 60.4021 26.38C59.7861 26.196 59.2901 25.96 58.9141 25.672L59.5741 24.208C59.9341 24.464 60.3581 24.676 60.8461 24.844C61.3421 25.004 61.8421 25.084 62.3461 25.084C62.7301 25.084 63.0381 25.048 63.2701 24.976C63.5101 24.896 63.6861 24.788 63.7981 24.652C63.9101 24.516 63.9661 24.36 63.9661 24.184C63.9661 23.96 63.8781 23.784 63.7021 23.656C63.5261 23.52 63.2941 23.412 63.0061 23.332C62.7181 23.244 62.3981 23.164 62.0461 23.092C61.7021 23.012 61.3541 22.916 61.0021 22.804C60.6581 22.692 60.3421 22.548 60.0541 22.372C59.7661 22.196 59.5301 21.964 59.3461 21.676C59.1701 21.388 59.0821 21.02 59.0821 20.572C59.0821 20.092 59.2101 19.656 59.4661 19.264C59.7301 18.864 60.1221 18.548 60.6421 18.316C61.1701 18.076 61.8301 17.956 62.6221 17.956C63.1501 17.956 63.6701 18.02 64.1821 18.148C64.6941 18.268 65.1461 18.452 65.5381 18.7L64.9381 20.176C64.5461 19.952 64.1541 19.788 63.7621 19.684C63.3701 19.572 62.9861 19.516 62.6101 19.516C62.2341 19.516 61.9261 19.56 61.6861 19.648C61.4461 19.736 61.2741 19.852 61.1701 19.996C61.0661 20.132 61.0141 20.292 61.0141 20.476C61.0141 20.692 61.1021 20.868 61.2781 21.004C61.4541 21.132 61.6861 21.236 61.9741 21.316C62.2621 21.396 62.5781 21.476 62.9221 21.556C63.2741 21.636 63.6221 21.728 63.9661 21.832C64.3181 21.936 64.6381 22.076 64.9261 22.252C65.2141 22.428 65.4461 22.66 65.6221 22.948C65.8061 23.236 65.8981 23.6 65.8981 24.04C65.8981 24.512 65.7661 24.944 65.5021 25.336C65.2381 25.728 64.8421 26.044 64.3141 26.284C63.7941 26.524 63.1341 26.644 62.3341 26.644ZM69.9865 26.644C69.3145 26.644 68.6705 26.556 68.0545 26.38C67.4385 26.196 66.9425 25.96 66.5665 25.672L67.2265 24.208C67.5865 24.464 68.0105 24.676 68.4985 24.844C68.9945 25.004 69.4945 25.084 69.9985 25.084C70.3825 25.084 70.6905 25.048 70.9225 24.976C71.1625 24.896 71.3385 24.788 71.4505 24.652C71.5625 24.516 71.6185 24.36 71.6185 24.184C71.6185 23.96 71.5305 23.784 71.3545 23.656C71.1785 23.52 70.9465 23.412 70.6585 23.332C70.3705 23.244 70.0505 23.164 69.6985 23.092C69.3545 23.012 69.0065 22.916 68.6545 22.804C68.3105 22.692 67.9945 22.548 67.7065 22.372C67.4185 22.196 67.1825 21.964 66.9985 21.676C66.8225 21.388 66.7345 21.02 66.7345 20.572C66.7345 20.092 66.8625 19.656 67.1185 19.264C67.3825 18.864 67.7745 18.548 68.2945 18.316C68.8225 18.076 69.4825 17.956 70.2745 17.956C70.8025 17.956 71.3225 18.02 71.8345 18.148C72.3465 18.268 72.7985 18.452 73.1905 18.7L72.5905 20.176C72.1985 19.952 71.8065 19.788 71.4145 19.684C71.0225 19.572 70.6385 19.516 70.2625 19.516C69.8865 19.516 69.5785 19.56 69.3385 19.648C69.0985 19.736 68.9265 19.852 68.8225 19.996C68.7185 20.132 68.6665 20.292 68.6665 20.476C68.6665 20.692 68.7545 20.868 68.9305 21.004C69.1065 21.132 69.3385 21.236 69.6265 21.316C69.9145 21.396 70.2305 21.476 70.5745 21.556C70.9265 21.636 71.2745 21.728 71.6185 21.832C71.9705 21.936 72.2905 22.076 72.5785 22.252C72.8665 22.428 73.0985 22.66 73.2745 22.948C73.4585 23.236 73.5505 23.6 73.5505 24.04C73.5505 24.512 73.4185 24.944 73.1545 25.336C72.8905 25.728 72.4945 26.044 71.9665 26.284C71.4465 26.524 70.7865 26.644 69.9865 26.644ZM74.8788 26.5V18.1H76.8228V26.5H74.8788ZM78.8163 26.5V18.1H80.4243L85.3803 24.148H84.6003V18.1H86.5203V26.5H84.9243L79.9563 20.452H80.7363V26.5H78.8163ZM87.4037 26.5L91.1477 18.1H93.0677L96.8237 26.5H94.7837L91.7117 19.084H92.4797L89.3957 26.5H87.4037ZM89.2757 24.7L89.7917 23.224H94.1117L94.6397 24.7H89.2757ZM99.0133 26.5V19.684H96.3253V18.1H103.645V19.684H100.957V26.5H99.0133ZM108.259 26.644C107.067 26.644 106.135 26.312 105.463 25.648C104.791 24.984 104.455 24.036 104.455 22.804V18.1H106.399V22.732C106.399 23.532 106.563 24.108 106.891 24.46C107.219 24.812 107.679 24.988 108.271 24.988C108.863 24.988 109.323 24.812 109.651 24.46C109.979 24.108 110.143 23.532 110.143 22.732V18.1H112.063V22.804C112.063 24.036 111.727 24.984 111.055 25.648C110.383 26.312 109.451 26.644 108.259 26.644ZM113.984 26.5V18.1H117.572C118.74 18.1 119.648 18.372 120.296 18.916C120.944 19.452 121.268 20.196 121.268 21.148C121.268 21.772 121.12 22.312 120.824 22.768C120.528 23.216 120.108 23.56 119.564 23.8C119.02 24.04 118.372 24.16 117.62 24.16H115.064L115.928 23.308V26.5H113.984ZM119.324 26.5L117.224 23.452H119.3L121.424 26.5H119.324ZM115.928 23.524L115.064 22.612H117.512C118.112 22.612 118.56 22.484 118.856 22.228C119.152 21.964 119.3 21.604 119.3 21.148C119.3 20.684 119.152 20.324 118.856 20.068C118.56 19.812 118.112 19.684 117.512 19.684H115.064L115.928 18.76V23.524ZM121.704 26.5L125.449 18.1H127.369L131.125 26.5H129.085L126.013 19.084H126.781L123.697 26.5H121.704ZM123.576 24.7L124.093 23.224H128.413L128.941 24.7H123.576ZM135.684 26.5V18.1H136.572V26.5H135.684ZM139.306 26.5V18.1H140.038L145.834 25.396H145.45V18.1H146.326V26.5H145.594L139.81 19.204H140.194V26.5H139.306ZM152.715 26.572C152.083 26.572 151.499 26.468 150.963 26.26C150.427 26.044 149.963 25.744 149.571 25.36C149.179 24.976 148.871 24.524 148.647 24.004C148.431 23.484 148.323 22.916 148.323 22.3C148.323 21.684 148.431 21.116 148.647 20.596C148.871 20.076 149.179 19.624 149.571 19.24C149.971 18.856 150.439 18.56 150.975 18.352C151.511 18.136 152.095 18.028 152.727 18.028C153.335 18.028 153.907 18.132 154.443 18.34C154.979 18.54 155.431 18.844 155.799 19.252L155.235 19.816C154.891 19.464 154.511 19.212 154.095 19.06C153.679 18.9 153.231 18.82 152.751 18.82C152.247 18.82 151.779 18.908 151.347 19.084C150.915 19.252 150.539 19.496 150.219 19.816C149.899 20.128 149.647 20.496 149.463 20.92C149.287 21.336 149.199 21.796 149.199 22.3C149.199 22.804 149.287 23.268 149.463 23.692C149.647 24.108 149.899 24.476 150.219 24.796C150.539 25.108 150.915 25.352 151.347 25.528C151.779 25.696 152.247 25.78 152.751 25.78C153.231 25.78 153.679 25.7 154.095 25.54C154.511 25.38 154.891 25.124 155.235 24.772L155.799 25.336C155.431 25.744 154.979 26.052 154.443 26.26C153.907 26.468 153.331 26.572 152.715 26.572ZM157.575 26.5V18.1H158.463V25.732H163.167V26.5H157.575ZM167.873 26.572C166.801 26.572 165.957 26.264 165.341 25.648C164.725 25.032 164.417 24.12 164.417 22.912V18.1H165.305V22.876C165.305 23.868 165.529 24.6 165.977 25.072C166.425 25.544 167.057 25.78 167.873 25.78C168.697 25.78 169.333 25.544 169.781 25.072C170.229 24.6 170.453 23.868 170.453 22.876V18.1H171.317V22.912C171.317 24.12 171.009 25.032 170.393 25.648C169.785 26.264 168.945 26.572 167.873 26.572ZM176.309 26.572C175.685 26.572 175.085 26.472 174.509 26.272C173.941 26.064 173.501 25.8 173.189 25.48L173.537 24.796C173.833 25.084 174.229 25.328 174.725 25.528C175.229 25.72 175.757 25.816 176.309 25.816C176.837 25.816 177.265 25.752 177.593 25.624C177.929 25.488 178.173 25.308 178.325 25.084C178.485 24.86 178.565 24.612 178.565 24.34C178.565 24.012 178.469 23.748 178.277 23.548C178.093 23.348 177.849 23.192 177.545 23.08C177.241 22.96 176.905 22.856 176.537 22.768C176.169 22.68 175.801 22.588 175.433 22.492C175.065 22.388 174.725 22.252 174.413 22.084C174.109 21.916 173.861 21.696 173.669 21.424C173.485 21.144 173.393 20.78 173.393 20.332C173.393 19.916 173.501 19.536 173.717 19.192C173.941 18.84 174.281 18.56 174.737 18.352C175.193 18.136 175.777 18.028 176.489 18.028C176.961 18.028 177.429 18.096 177.893 18.232C178.357 18.36 178.757 18.54 179.093 18.772L178.793 19.48C178.433 19.24 178.049 19.064 177.641 18.952C177.241 18.84 176.853 18.784 176.477 18.784C175.973 18.784 175.557 18.852 175.229 18.988C174.901 19.124 174.657 19.308 174.497 19.54C174.345 19.764 174.269 20.02 174.269 20.308C174.269 20.636 174.361 20.9 174.545 21.1C174.737 21.3 174.985 21.456 175.289 21.568C175.601 21.68 175.941 21.78 176.309 21.868C176.677 21.956 177.041 22.052 177.401 22.156C177.769 22.26 178.105 22.396 178.409 22.564C178.721 22.724 178.969 22.94 179.153 23.212C179.345 23.484 179.441 23.84 179.441 24.28C179.441 24.688 179.329 25.068 179.105 25.42C178.881 25.764 178.537 26.044 178.073 26.26C177.617 26.468 177.029 26.572 176.309 26.572ZM180.032 26.5L183.872 18.1H184.748L188.588 26.5H187.652L184.124 18.616H184.484L180.956 26.5H180.032ZM181.544 24.256L181.808 23.536H186.692L186.956 24.256H181.544Z" fill="white" style="fill:white;fill-opacity:1;"/>
<path d="M10.0917 40.8242C9.81319 41.2732 10.1752 42.5638 11.0943 44.3595C12.9324 47.8947 12.7653 47.5581 14.2971 50.7286C14.8541 51.8509 15.4389 53.0012 15.606 53.3098C15.7731 53.6185 16.2466 54.5724 16.6643 55.4142C17.834 57.8271 18.6138 58.5005 20.0899 58.5005C21.0089 58.5005 21.5381 58.3321 22.1787 57.771C22.6521 57.3782 23.042 56.8732 23.042 56.6487C23.042 56.4242 23.4041 55.6667 23.8497 54.9652L24.6295 53.6746L25.1586 54.4883C25.4371 54.9091 25.9663 55.8631 26.3283 56.5645C27.0524 57.9955 27.8322 58.5005 29.4197 58.5005C30.6451 58.5005 31.7313 57.4624 32.7617 55.2739C33.7922 53.0573 34.2656 52.0753 35.1847 50.3638C35.4075 49.971 35.9645 48.8487 36.4379 47.8386C36.8835 46.8286 37.4127 45.7624 37.5798 45.4537C38.6659 43.5178 39.5014 41.5537 39.4179 41.1609C39.2786 40.4314 34.1821 40.3192 33.2073 41.0206C32.8453 41.3012 31.8148 42.9566 30.9236 44.6681C30.0602 46.4077 29.2247 47.8386 29.1133 47.8386C28.9741 47.8386 28.6399 47.3055 28.3335 46.6322C28.055 45.9868 27.6094 45.1451 27.4145 44.7523C27.1917 44.3595 26.7739 43.5739 26.4954 42.9847C26.1891 42.3674 25.6599 41.5818 25.2979 41.2171C24.6852 40.5998 24.4345 40.5437 21.928 40.5437C19.0037 40.5437 18.7252 40.684 19.0594 42.0027C19.1708 42.3394 19.5329 43.125 19.8949 43.6861C20.2291 44.2753 20.5355 44.9206 20.5355 45.117C20.5355 45.3135 20.6469 45.594 20.814 45.7624C21.1482 46.0991 20.5633 47.8386 20.0899 47.8386C19.9228 47.8386 19.6721 47.5581 19.505 47.1933C17.5834 43.153 16.6922 41.5257 16.1352 41.0768C15.5782 40.6278 14.9933 40.5437 12.8489 40.5437C11.4006 40.5437 10.1752 40.6559 10.0917 40.8242Z" fill="white" style="fill:white;fill-opacity:1;"/>
<path d="M41.8973 41.3293C41.4795 41.7501 41.1453 42.2271 41.1453 42.3955C41.1453 42.5358 40.7554 43.4055 40.282 44.3314C38.4717 47.8667 38.6388 47.53 37.0792 50.7286C36.5222 51.8509 35.8817 53.1134 35.631 53.5904C35.4082 54.0393 35.1019 54.6285 34.9905 54.853C34.8791 55.0775 34.5727 55.7228 34.3221 56.2559C33.4309 58.1077 33.6815 58.3602 36.7172 58.4444C39.2794 58.5285 39.4465 58.4724 40.282 57.771C40.7554 57.3782 41.1453 56.9293 41.1453 56.7609C41.1453 56.312 43.9025 50.6444 44.1253 50.6444C44.3202 50.6444 45.8799 53.8429 46.6875 55.8631C46.8825 56.3401 47.3838 57.1257 47.8294 57.6026C48.637 58.5005 48.637 58.5005 51.422 58.5005H54.2349V57.771C54.2349 56.6767 46.8825 41.8343 45.9913 41.1329C44.8494 40.207 42.8442 40.3192 41.8973 41.3293Z" fill="white" style="fill:white;fill-opacity:1;"/>
<path d="M50.5898 41.2167C50.1164 42.2268 50.5063 44.275 51.3139 45.0325C51.8709 45.5376 52.4001 45.7059 54.0989 45.8181C55.2408 45.8743 56.2155 45.9584 56.2434 45.9865C56.2713 45.9865 56.3548 48.7922 56.4662 52.1872L56.6055 58.3599H59.5297H62.454L62.5932 52.1872L62.7325 46.0146L64.9048 45.8462C66.6594 45.7059 67.2164 45.5376 67.7734 45.0045C68.3861 44.4153 68.4696 44.1628 68.3861 42.5074L68.3025 40.6836L59.5854 40.5994L50.8962 40.5433L50.5898 41.2167Z" fill="white" style="fill:white;fill-opacity:1;"/>
<path d="M73.0641 41.2451C71.588 41.8343 70.1398 42.8444 69.8892 43.4336C69.8335 43.5458 69.4993 43.9947 69.1651 44.4156C68.2739 45.4818 67.6055 47.6703 67.6055 49.5221C67.6055 53.1415 69.4157 56.0314 72.7577 57.6868C74.3452 58.4724 74.568 58.5005 78.1885 58.5005C80.7786 58.5005 82.0875 58.3883 82.3103 58.1638C82.7281 57.7429 82.7559 55.0214 82.3382 54.2077C81.447 52.5242 80.2773 52.0473 77.1581 52.0473C75.2921 52.0473 75.125 51.9911 74.4566 51.1775C73.5375 50.0832 73.5097 48.7926 74.4287 47.7545C75.0414 47.053 75.2642 46.9969 77.1302 46.9969C80.3887 46.9969 81.6976 46.4077 82.366 44.612C82.7559 43.6019 82.7002 41.2732 82.3103 40.8804C82.0875 40.6559 80.8064 40.5437 78.3556 40.5437C75.1528 40.5437 74.5123 40.6278 73.0641 41.2451Z" fill="white" style="fill:white;fill-opacity:1;"/>
<path d="M84.4553 40.9081C84.3718 41.1045 84.3439 45.0887 84.3718 49.8024L84.4553 58.3599L86.5162 58.4441C88.5214 58.5283 88.605 58.5002 89.4962 57.6304C90.3596 56.7887 90.4153 56.5642 90.4988 54.7405L90.5824 52.7484L93.061 52.6642C94.8713 52.6081 95.6232 52.6923 95.7903 52.9448C95.9017 53.1412 96.0131 54.0391 96.0131 54.9369C96.0131 56.452 96.0967 56.6765 96.96 57.5463C97.9069 58.5002 97.9626 58.5283 99.9678 58.4441L102.001 58.3599V49.5218V40.6837L99.9678 40.5995C97.9626 40.5153 97.9069 40.5434 96.96 41.4973C96.1245 42.3391 96.0131 42.6196 96.0131 43.9945C96.0131 46.4355 96.0131 46.4355 93.3952 46.4355C92.0027 46.4355 90.9723 46.2952 90.7773 46.0988C90.5824 45.9024 90.4431 45.0045 90.4431 44.0506C90.4431 42.4794 90.3596 42.2549 89.524 41.4412C88.6607 40.5995 88.4936 40.5434 86.5998 40.5434C85.2351 40.5434 84.5389 40.6556 84.4553 40.9081Z" fill="white" style="fill:white;fill-opacity:1;"/>
<path d="M126.74 47.2402H123.76V44.2598C123.76 43.0115 122.748 42 121.5 42C120.252 42 119.24 43.0115 119.24 44.2598V47.2402H116.26C115.011 47.2402 114 48.2517 114 49.5C114 50.7483 115.011 51.7598 116.26 51.7598H119.24V54.7402C119.24 55.9885 120.252 57 121.5 57C122.748 57 123.76 55.9885 123.76 54.7402V51.7598H126.74C127.989 51.7598 129 50.7483 129 49.5C129 48.2517 127.989 47.2402 126.74 47.2402Z" fill="#95EB1D" style="fill:#95EB1D;fill:color(display-p3 0.5843 0.9216 0.1137);fill-opacity:1;"/>
<path d="M142.483 48V36.1H148.212C149.323 36.1 150.28 36.2813 151.085 36.644C151.901 37.0067 152.53 37.528 152.972 38.208C153.414 38.8767 153.635 39.67 153.635 40.588C153.635 41.506 153.414 42.2993 152.972 42.968C152.53 43.6367 151.901 44.158 151.085 44.532C150.28 44.8947 149.323 45.076 148.212 45.076H144.71L146.495 43.359V48H142.483ZM146.495 43.801L144.71 41.982H147.957C148.512 41.982 148.92 41.8573 149.181 41.608C149.453 41.3587 149.589 41.0187 149.589 40.588C149.589 40.1573 149.453 39.8173 149.181 39.568C148.92 39.3187 148.512 39.194 147.957 39.194H144.71L146.495 37.375V43.801ZM161.373 48.272C160.398 48.272 159.497 48.119 158.67 47.813C157.854 47.507 157.146 47.0763 156.545 46.521C155.944 45.9543 155.474 45.2913 155.134 44.532C154.805 43.7727 154.641 42.9453 154.641 42.05C154.641 41.1433 154.805 40.316 155.134 39.568C155.474 38.8087 155.944 38.1513 156.545 37.596C157.146 37.0293 157.854 36.593 158.67 36.287C159.497 35.981 160.393 35.828 161.356 35.828C162.331 35.828 163.226 35.981 164.042 36.287C164.858 36.593 165.566 37.0293 166.167 37.596C166.768 38.1513 167.232 38.8087 167.561 39.568C167.901 40.316 168.071 41.1433 168.071 42.05C168.071 42.9453 167.901 43.7727 167.561 44.532C167.232 45.2913 166.768 45.9543 166.167 46.521C165.566 47.0763 164.858 47.507 164.042 47.813C163.226 48.119 162.336 48.272 161.373 48.272ZM161.356 45.025C161.73 45.025 162.076 44.957 162.393 44.821C162.722 44.685 163.005 44.4923 163.243 44.243C163.492 43.9823 163.685 43.6707 163.821 43.308C163.957 42.934 164.025 42.5147 164.025 42.05C164.025 41.5853 163.957 41.1717 163.821 40.809C163.685 40.435 163.492 40.1233 163.243 39.874C163.005 39.6133 162.722 39.415 162.393 39.279C162.076 39.143 161.73 39.075 161.356 39.075C160.982 39.075 160.631 39.143 160.302 39.279C159.985 39.415 159.701 39.6133 159.452 39.874C159.214 40.1233 159.027 40.435 158.891 40.809C158.755 41.1717 158.687 41.5853 158.687 42.05C158.687 42.5147 158.755 42.934 158.891 43.308C159.027 43.6707 159.214 43.9823 159.452 44.243C159.701 44.4923 159.985 44.685 160.302 44.821C160.631 44.957 160.982 45.025 161.356 45.025ZM172.104 48L168.296 36.1H172.427L175.504 46.147H173.43L176.694 36.1H180.383L183.426 46.147H181.437L184.65 36.1H188.458L184.65 48H180.349L177.867 39.772H179.023L176.405 48H172.104ZM189.349 48V36.1H199.022V39.126H193.293V44.974H199.243V48H189.349ZM193.021 43.41V40.52H198.325V43.41H193.021ZM200.788 48V36.1H206.347C208.172 36.1 209.56 36.5023 210.512 37.307C211.464 38.1117 211.94 39.2053 211.94 40.588C211.94 41.506 211.719 42.2993 211.277 42.968C210.835 43.6253 210.206 44.1297 209.39 44.481C208.585 44.8323 207.628 45.008 206.517 45.008H203.015L204.8 43.359V48H200.788ZM207.911 48L204.987 43.665H209.237L212.195 48H207.911ZM204.8 43.801L203.015 41.982H206.262C206.817 41.982 207.225 41.8573 207.486 41.608C207.758 41.3587 207.894 41.0187 207.894 40.588C207.894 40.1573 207.758 39.8173 207.486 39.568C207.225 39.3187 206.817 39.194 206.262 39.194H203.015L204.8 37.375V43.801ZM161.553 63V54.211H158.068V51.1H169.05V54.211H165.565V63H161.553ZM176.182 63.272C175.207 63.272 174.306 63.119 173.479 62.813C172.663 62.507 171.954 62.0763 171.354 61.521C170.753 60.9543 170.283 60.2913 169.943 59.532C169.614 58.7727 169.45 57.9453 169.45 57.05C169.45 56.1433 169.614 55.316 169.943 54.568C170.283 53.8087 170.753 53.1513 171.354 52.596C171.954 52.0293 172.663 51.593 173.479 51.287C174.306 50.981 175.201 50.828 176.165 50.828C177.139 50.828 178.035 50.981 178.851 51.287C179.667 51.593 180.375 52.0293 180.976 52.596C181.576 53.1513 182.041 53.8087 182.37 54.568C182.71 55.316 182.88 56.1433 182.88 57.05C182.88 57.9453 182.71 58.7727 182.37 59.532C182.041 60.2913 181.576 60.9543 180.976 61.521C180.375 62.0763 179.667 62.507 178.851 62.813C178.035 63.119 177.145 63.272 176.182 63.272ZM176.165 60.025C176.539 60.025 176.884 59.957 177.202 59.821C177.53 59.685 177.814 59.4923 178.052 59.243C178.301 58.9823 178.494 58.6707 178.63 58.308C178.766 57.934 178.834 57.5147 178.834 57.05C178.834 56.5853 178.766 56.1717 178.63 55.809C178.494 55.435 178.301 55.1233 178.052 54.874C177.814 54.6133 177.53 54.415 177.202 54.279C176.884 54.143 176.539 54.075 176.165 54.075C175.791 54.075 175.439 54.143 175.111 54.279C174.793 54.415 174.51 54.6133 174.261 54.874C174.023 55.1233 173.836 55.435 173.7 55.809C173.564 56.1717 173.496 56.5853 173.496 57.05C173.496 57.5147 173.564 57.934 173.7 58.308C173.836 58.6707 174.023 58.9823 174.261 59.243C174.51 59.4923 174.793 59.685 175.111 59.821C175.439 59.957 175.791 60.025 176.165 60.025ZM184.336 63V51.1H190.065C191.175 51.1 192.133 51.2813 192.938 51.644C193.754 52.0067 194.383 52.528 194.825 53.208C195.267 53.8767 195.488 54.67 195.488 55.588C195.488 56.506 195.267 57.2993 194.825 57.968C194.383 58.6367 193.754 59.158 192.938 59.532C192.133 59.8947 191.175 60.076 190.065 60.076H186.563L188.348 58.359V63H184.336ZM188.348 58.801L186.563 56.982H189.81C190.365 56.982 190.773 56.8573 191.034 56.608C191.306 56.3587 191.442 56.0187 191.442 55.588C191.442 55.1573 191.306 54.8173 191.034 54.568C190.773 54.3187 190.365 54.194 189.81 54.194H186.563L188.348 52.375V58.801Z" fill="#95EB1D" style="fill:#95EB1D;fill:color(display-p3 0.5843 0.9216 0.1137);fill-opacity:1;"/>
</svg>
