<svg width="18" height="18" viewBox="0 0 18 18" fill="none" xmlns="http://www.w3.org/2000/svg">
<g clip-path="url(#clip0_6317_826)">
<path d="M13.1042 10.7865C12.8815 10.6748 11.7857 10.1363 11.5817 10.0613C11.377 9.98703 11.2285 9.95028 11.0792 10.1738C10.9315 10.3965 10.504 10.8983 10.3742 11.0468C10.2445 11.196 10.114 11.214 9.89122 11.103C9.66847 10.9905 8.94997 10.7558 8.09872 9.99678C7.43647 9.40578 6.98872 8.67603 6.85897 8.45253C6.72922 8.22978 6.84547 8.10903 6.95647 7.99803C7.05697 7.89828 7.17997 7.73778 7.29097 7.60803C7.40272 7.47753 7.43947 7.38453 7.51447 7.23528C7.58872 7.08678 7.55197 6.95703 7.49572 6.84528C7.43947 6.73353 6.99397 5.63628 6.80872 5.19003C6.62722 4.75578 6.44347 4.81503 6.30697 4.80753C6.17722 4.80153 6.02872 4.80003 5.87947 4.80003C5.73097 4.80003 5.48947 4.85553 5.28547 5.07903C5.08147 5.30178 4.50547 5.84103 4.50547 6.93828C4.50547 8.03478 5.30422 9.09453 5.41522 9.24378C5.52697 9.39228 6.98722 11.6438 9.22297 12.609C9.75472 12.8385 10.1695 12.9758 10.4935 13.0778C11.0275 13.248 11.5135 13.224 11.8967 13.1663C12.325 13.1025 13.2152 12.627 13.4012 12.1065C13.5872 11.586 13.5872 11.1398 13.531 11.0468C13.4755 10.9538 13.327 10.8983 13.1035 10.7865H13.1042ZM9.03772 16.3388H9.03472C7.70705 16.3389 6.40378 15.9819 5.26147 15.3053L4.99072 15.1448L2.18497 15.8813L2.93347 13.1453L2.75722 12.8648C2.01505 11.683 1.62242 10.3153 1.62472 8.91978C1.62547 4.83228 4.95172 1.50678 9.04072 1.50678C11.0207 1.50678 12.8822 2.27928 14.2817 3.68028C15.6765 5.06886 16.4577 6.95769 16.4515 8.92578C16.4492 13.0133 13.1237 16.3388 9.03772 16.3388ZM15.3475 2.61603C13.6783 0.935869 11.406 -0.00620649 9.03772 3.07754e-05C4.12147 3.07754e-05 0.120219 4.00128 0.117969 8.91903C0.117969 10.491 0.528219 12.0255 1.30897 13.3778L0.0429688 18L4.77172 16.7595C6.07941 17.472 7.5448 17.8453 9.03397 17.8455H9.03772C13.9532 17.8455 17.9552 13.8443 17.9575 8.92578C17.9648 6.55842 17.025 4.28646 15.3475 2.61603Z" fill="white" fill-opacity="0.8" style="fill:white;fill-opacity:0.8;"/>
</g>
<defs>
<clipPath id="clip0_6317_826">
<rect width="18" height="18" fill="white" style="fill:white;fill-opacity:1;"/>
</clipPath>
</defs>
</svg>
