<svg width="16" height="16" viewBox="0 0 16 16" fill="none" xmlns="http://www.w3.org/2000/svg">
<g clip-path="url(#clip0_6310_454)">
<path d="M13.6361 2.32606C12.9027 1.58555 12.0292 0.998501 11.0666 0.599149C10.1039 0.199797 9.07136 -0.00386082 8.02915 5.5425e-05C3.66215 5.5425e-05 0.103156 3.55806 0.0991564 7.92606C0.0991564 9.32506 0.465156 10.6861 1.15615 11.8911L0.0351562 16.0001L4.23915 14.8981C5.40164 15.5323 6.70491 15.8641 8.02915 15.8631H8.03315C12.4011 15.8631 15.9591 12.3051 15.9631 7.93306C15.964 6.89112 15.7588 5.85929 15.3592 4.897C14.9597 3.9347 14.3748 3.06095 13.6361 2.32606ZM8.02915 14.5211C6.84833 14.5201 5.68938 14.2024 4.67315 13.6011L4.43315 13.4571L1.93915 14.1111L2.60515 11.6781L2.44915 11.4271C1.78896 10.3774 1.4398 9.16208 1.44215 7.92206C1.44215 4.29606 4.39915 1.33806 8.03315 1.33806C8.89889 1.3365 9.75638 1.50633 10.5562 1.83775C11.3559 2.16916 12.0822 2.65562 12.6931 3.26906C13.306 3.8802 13.7919 4.6066 14.1228 5.40638C14.4537 6.20617 14.6231 7.06352 14.6211 7.92906C14.6171 11.5681 11.6601 14.5211 8.02915 14.5211ZM11.6441 9.58706C11.4471 9.48806 10.4741 9.00906 10.2911 8.94106C10.1091 8.87606 9.97615 8.84206 9.84615 9.04006C9.71315 9.23705 9.33315 9.68606 9.21915 9.81505C9.10515 9.94806 8.98715 9.96305 8.78915 9.86506C8.59215 9.76505 7.95315 9.55706 7.19715 8.88006C6.60715 8.35506 6.21215 7.70506 6.09415 7.50806C5.98015 7.31006 6.08315 7.20406 6.18215 7.10506C6.26915 7.01706 6.37915 6.87305 6.47815 6.75906C6.57815 6.64506 6.61115 6.56106 6.67615 6.42906C6.74115 6.29506 6.71015 6.18106 6.66115 6.08206C6.61115 5.98306 6.21615 5.00606 6.04915 4.61206C5.88915 4.22306 5.72615 4.27706 5.60415 4.27206C5.49015 4.26506 5.35715 4.26506 5.22415 4.26506C5.12373 4.26761 5.02491 4.29087 4.93389 4.33337C4.84286 4.37587 4.76159 4.4367 4.69515 4.51206C4.51315 4.71006 4.00415 5.18906 4.00415 6.16606C4.00415 7.14305 4.71415 8.08206 4.81415 8.21506C4.91215 8.34806 6.20815 10.3471 8.19715 11.2071C8.66715 11.4121 9.03715 11.5331 9.32615 11.6251C9.80115 11.7771 10.2301 11.7541 10.5721 11.7051C10.9521 11.6471 11.7431 11.2251 11.9101 10.7621C12.0741 10.2981 12.0741 9.90206 12.0241 9.81906C11.9751 9.73506 11.8421 9.68606 11.6441 9.58706Z" fill="white" style="fill:white;fill-opacity:1;"/>
</g>
<defs>
<clipPath id="clip0_6310_454">
<rect width="16" height="16" fill="white" style="fill:white;fill-opacity:1;"/>
</clipPath>
</defs>
</svg>
