<svg width="264" height="47" viewBox="0 0 264 47" fill="none" xmlns="http://www.w3.org/2000/svg">
<path d="M168.117 28.2522H163.701V23.7828C163.701 21.9109 162.202 20.394 160.353 20.394C158.503 20.394 157.004 21.9109 157.004 23.7828V28.2522H152.588C150.739 28.2522 149.24 29.769 149.24 31.6409C149.24 33.5128 150.739 35.0296 152.588 35.0296H157.004V39.499C157.004 41.3709 158.503 42.8877 160.353 42.8877C162.202 42.8877 163.701 41.3709 163.701 39.499V35.0296H168.117C169.966 35.0296 171.465 33.5128 171.465 31.6409C171.465 29.769 169.966 28.2522 168.117 28.2522Z" fill="#95EB1D" style="fill:#95EB1D;fill:color(display-p3 0.5843 0.9216 0.1137);fill-opacity:1;"/>
<path d="M82.0818 40.428C79.693 36.8853 79.5539 31.7794 80.982 27.7962C81.6866 25.8315 83.138 23.5485 85.013 22.6851C86.1747 22.1503 87.4092 21.9727 88.6793 21.9536L90.5878 21.9249L90.5747 18.9001C90.571 18.1464 90.5419 17.4046 90.3017 16.6952C90.1984 16.3909 89.8454 16.2797 89.5142 16.2694L89.437 14.7047L96.2295 13.3345L96.2397 24.9114L96.255 40.3705C96.255 40.8192 96.6342 41.2575 96.9072 41.5352C97.0979 41.7297 97.4233 41.7061 97.6955 41.7194L97.6904 43.2281L86.6609 43.1883C85.3871 43.1839 84.1701 42.5312 83.2297 41.7584C82.7559 41.3687 82.4116 40.9164 82.0811 40.4272L82.0818 40.428ZM90.0768 39.4983C90.2057 39.3863 90.3389 39.0614 90.3578 38.8972L90.5761 36.9899L90.5958 25.6871C89.0986 25.3769 87.8219 26.1703 87.2017 27.5103C86.7825 28.4165 86.5175 29.3727 86.4105 30.3841C86.2169 32.2162 86.1994 34.0307 86.4549 35.8562C86.6209 37.04 86.9943 38.1369 87.6501 39.088C88.2149 39.9079 89.2929 40.1768 90.0768 39.4983Z" fill="white" style="fill:white;fill-opacity:1;"/>
<path d="M219.319 38.0177C218.686 40.1062 216.994 41.5737 214.943 42.0333C214.133 42.2153 213.387 42.3965 212.542 42.3943L203.26 42.3715C202.223 42.3693 201.321 41.2289 201.324 39.9581L201.369 22.5077C201.372 21.4955 202.411 20.5835 203.367 20.5835L212.55 20.5791C213.809 20.5791 215.029 20.8598 216.11 21.4314C218.381 22.6315 219.443 25.1819 218.758 27.6556C218.258 29.4612 216.872 30.4174 215.116 31.02C215.854 31.2705 216.592 31.49 217.259 31.9541C219.172 33.2868 220.014 35.7222 219.318 38.0185L219.319 38.0177ZM213.276 25.5097L212.634 24.7428C212.012 24.5211 211.394 24.4481 210.73 24.4467L206.502 24.4393L206.519 29.2402L210.102 29.2454C210.775 29.2343 211.413 29.1525 212.061 29.0244C213.563 28.6715 214.03 26.4121 213.275 25.5097H213.276ZM213.609 37.3392C214.561 36.0589 214.237 34.3984 212.937 33.5476C212.418 33.3192 211.878 33.1822 211.292 33.1056L206.505 33.107L206.517 38.294L211.22 38.308L212.336 38.1201C212.83 38.0369 213.298 37.7562 213.609 37.3385L213.609 37.3392Z" fill="white" style="fill:white;fill-opacity:1;"/>
<path d="M13.1555 40.5454C13.2887 41.2261 14.0842 41.5245 14.8383 41.6195L14.8361 43.2262L5.37305 43.224L5.38033 41.5981C5.93205 41.5119 6.32583 41.1657 6.42774 40.6463C6.55584 39.9966 6.65847 39.3807 6.6592 38.6816V19.6945C6.6592 19.0072 6.56822 18.4083 6.47068 17.7622C6.38188 17.1765 5.98446 16.753 5.37596 16.6491V15.0151L18.8271 15.0586C19.9444 15.0623 20.9969 15.4549 21.8623 16.0988C22.4482 16.5356 22.8013 17.1655 22.984 17.8727C23.6987 20.6404 22.9643 23.5252 21.125 25.6896C18.9879 28.1678 15.9694 29.5962 12.8818 30.6666L12.8905 38.4061C12.8913 39.1502 13.0165 39.8353 13.1555 40.5447V40.5454ZM16.222 23.6188C16.8211 22.3959 16.9921 21.0367 16.6165 19.7232C16.2475 18.4333 14.9402 18.2388 13.6592 18.4819C12.9531 18.6153 12.8643 19.6223 12.8672 20.4607L12.884 26.6657C14.1942 25.8612 15.382 25.003 16.222 23.6188Z" fill="white" style="fill:white;fill-opacity:1;"/>
<path d="M234.581 42.3731C233.885 42.362 233.402 41.7712 233.137 41.1841L230.231 33.7481L226.573 33.751V40.7966C226.374 41.783 225.554 42.4504 224.569 42.418L222.866 42.362C222.14 42.3385 221.363 41.5649 221.363 40.7251L221.357 22.373C221.357 21.3682 222.243 20.5579 223.182 20.5586L231.55 20.5601C232.708 20.5601 233.803 20.7148 234.892 21.0345C237.708 21.8618 239.306 24.7569 239.078 27.6646C238.906 30.1332 237.495 31.7428 235.294 32.7631L238.372 40.1439C238.598 41.3005 237.734 42.3289 236.585 42.4055L234.582 42.3746L234.581 42.3731ZM232.137 24.6368L230.504 24.4998L226.565 24.4556L226.567 30.0035L230.975 29.9829C232.327 29.9763 233.367 29.0746 233.669 27.8414C233.992 26.5286 233.37 25.2409 232.137 24.6368H232.137Z" fill="white" style="fill:white;fill-opacity:1;"/>
<path d="M51.8153 37.227C50.8684 40.7815 48.291 43.5403 44.5737 43.8254C41.9621 44.0258 39.5223 43.3017 37.7732 41.2861C36.808 40.1745 36.1136 38.8882 35.7104 37.4385C34.8631 34.3938 34.8347 31.1833 35.6099 28.1232C36.0641 26.3316 36.9077 24.7345 38.2048 23.4637C40.4867 21.2286 44.0504 20.8352 46.9531 21.9601C48.6338 22.6114 50.0917 24.1156 50.9244 25.7231C52.6524 29.0602 52.7747 33.6291 51.8161 37.2263L51.8153 37.227ZM44.9886 39.5365C45.8053 38.3932 46.111 36.6414 46.1859 35.2196C46.2973 33.098 46.21 31.0117 45.8831 28.9151C45.715 27.8373 45.418 26.8296 44.8699 25.9235C44.4623 25.2487 43.6828 24.8582 42.9716 25.2501C41.9941 25.7894 41.4569 27.7585 41.3456 28.9608C41.0894 31.7322 41.0282 38.0167 42.976 39.7568C43.6056 40.3189 44.482 40.2467 44.9886 39.5372V39.5365Z" fill="white" style="fill:white;fill-opacity:1;"/>
<path d="M110.611 39.3216C112.094 38.4037 112.874 36.2593 113.301 34.5303L114.563 34.8544L112.829 43.5177C111.819 43.4168 110.902 43.4942 109.963 43.682L107.964 43.9074C105.516 43.9421 103.198 42.9866 101.537 41.1699C100.351 39.8719 99.4986 38.3735 98.9985 36.6681C97.6847 32.1899 98.318 26.4703 101.879 23.2643C103.944 21.4049 106.934 20.8303 109.524 21.8447C110.736 22.3191 111.632 23.2392 112.346 24.2956C112.91 25.2157 113.41 26.1167 113.716 27.1532L114.518 29.8693L104.701 33.3693C104.918 35.3031 105.415 37.2832 106.758 38.7146C107.758 39.7953 109.353 40.1025 110.612 39.3231L110.611 39.3216ZM104.519 30.2399L108.522 28.7835C108.401 27.5245 107.895 25.2666 106.784 25.0684C106.349 24.991 105.961 25.1082 105.656 25.4087C104.921 26.1314 104.45 27.7005 104.476 28.6531L104.519 30.2399H104.519Z" fill="white" style="fill:white;fill-opacity:1;"/>
<path d="M252.928 37.9235H245.83L244.778 41.2628C244.671 41.6025 244.385 41.8817 244.11 42.0636C243.591 42.4062 243.045 42.4128 242.443 42.4327C241.174 42.4747 240.116 41.4978 240.149 40.1844L246.019 21.9649C246.268 21.1921 247.017 20.5674 247.763 20.5689L251.155 20.5777C251.757 20.5792 252.594 21.0123 252.799 21.6606L258.611 40.0186C258.775 41.3962 257.697 42.4806 256.357 42.429C255.795 42.4076 255.256 42.4415 254.768 42.1365C254.354 41.9384 254.061 41.5907 253.93 41.1428L252.928 37.922L252.928 37.9235ZM252.137 33.8062L249.406 25.9775L246.386 33.8615L252.137 33.8055V33.8062Z" fill="white" style="fill:white;fill-opacity:1;"/>
<path d="M188.71 33.9617L182.227 34.0294L182.198 41.0448C181.989 41.9119 181.28 42.5115 180.416 42.6154L178.443 42.5808C177.574 42.5653 176.833 41.6577 176.834 40.7406L176.846 22.3678C176.846 21.3954 177.844 20.5623 178.748 20.563L190.706 20.574C191.877 20.5748 192.63 21.7697 192.582 22.846C192.532 23.9907 191.796 24.8401 190.676 24.9381H182.222L182.228 29.8923L188.659 29.8974C189.671 30.0735 190.37 30.8772 190.399 31.8916C190.425 32.7992 189.759 33.9521 188.71 33.9624V33.9617Z" fill="white" style="fill:white;fill-opacity:1;"/>
<path d="M69.8145 39.9759L65.5761 43.7278C65.4065 43.8781 65.1205 44.116 64.9203 43.853C64.6502 43.4979 64.6728 42.9197 64.849 42.4924C65.4989 40.9144 66.1526 39.4005 66.6679 37.7695L67.9555 33.692C69.4666 28.581 70.6516 23.4272 71.5228 18.1629L72.1605 13.818C71.2171 13.3244 70.5817 12.472 70.5737 11.4098C70.5657 10.3467 71.2171 9.44062 72.0826 9.0384C73.0623 8.5846 74.157 8.74373 74.9584 9.46346C75.6841 10.1154 75.9505 11.1033 75.7088 12.0728C75.4941 12.9376 74.8041 13.6817 73.8557 13.9469L74.7451 19.9383L75.5997 24.6633C76.7912 30.7497 78.6436 36.6306 81.1402 42.2846C81.4721 43.036 81.4037 43.8 81.1497 43.8663C81.0791 43.8847 80.9255 43.8464 80.8294 43.811L76.2416 40.0893L73.0354 45.1687L69.8145 39.9759ZM72.0731 24.4791L72.5055 23.8404V19.5154L71.664 23.7734L72.0731 24.4791ZM73.9641 24.4799L74.3179 23.6246L73.542 19.8683L73.4815 23.8625L73.9641 24.4799ZM71.3845 30.4396L72.4312 28.7224L71.8133 27.1975L70.7324 29.0709L71.3845 30.4396ZM74.6672 30.2989L75.2313 28.9427L74.2553 27.3713L73.6038 28.6406L74.6672 30.2989ZM70.5948 31.3133L70.1384 30.4617L69.6078 32.6474L70.5955 31.3133H70.5948ZM76.4018 32.6371L75.8515 30.4632L75.3391 31.4562L76.4018 32.6371ZM72.4385 33.3053L72.4727 30.7483L71.7295 31.7634L72.4392 33.3053H72.4385ZM74.2422 31.7664L73.5143 30.7195L73.5238 33.3171L74.2422 31.7664ZM70.1442 38.1254L72.2376 35.9116L70.918 32.7402L68.7183 36.1422L70.1442 38.1254ZM76.0335 38.2808L77.2861 36.0406L75.0392 32.7955L73.7043 36.087L76.0335 38.2815V38.2808ZM79.3307 40.8032L77.9485 37.1876L76.9673 38.8348L79.3307 40.8032ZM69.1318 38.9792L68.0312 37.2649L66.6512 40.924L69.1318 38.9799V38.9792ZM72.4429 42.1771L72.5273 37.6576L70.6101 39.2621L72.4429 42.1778V42.1771ZM75.2728 39.3085L73.5667 37.6745L73.5521 42.0636L75.2736 39.3077L75.2728 39.3085Z" fill="white" style="fill:white;fill-opacity:1;"/>
<path d="M66.3306 25.296L65.7359 27.0692L63.3565 36.3852L62.4503 40.1357C62.3018 40.75 62.5602 41.3644 62.97 41.8219L62.9889 43.2245H56.6113L56.6222 41.83C56.9272 41.4911 57.2263 41.0786 57.1215 40.6012L56.4046 37.3429L53.7347 26.2876C53.5571 25.5531 53.3359 24.8931 53.0236 24.2352C52.8191 23.8035 52.4355 23.5494 51.9587 23.4573L51.9551 21.9368H60.3868L60.3911 23.5008C59.9668 23.4462 59.6487 23.6444 59.5133 24.0334C59.4318 24.4172 59.3583 24.8253 59.4471 25.2319L61.3396 33.9314L63.339 25.4861C63.4388 24.5402 63.366 23.5663 62.5027 23.4801L62.4634 21.9383L68.0462 21.9331L68.0702 23.458C67.1691 23.5671 66.6261 24.415 66.3306 25.2953V25.296Z" fill="white" style="fill:white;fill-opacity:1;"/>
<path d="M31.5859 43.224H23.0814L23.0683 41.7366C23.7139 41.7234 24.2023 41.3131 24.286 40.6861L24.4309 39.6032V26.5456C24.4309 26.0815 24.3159 25.6447 24.2525 25.21C24.1601 24.5743 23.6637 24.1028 22.9991 24.0505L22.9395 22.5587L29.3615 21.9105C29.6745 22.9293 29.839 23.8796 30.0035 24.9522C30.5479 24.0763 31.0458 23.2328 31.8042 22.572C32.5146 21.9532 33.3844 21.5745 34.3329 21.6659L35.6037 21.8744L34.4937 28.31C33.982 27.9048 33.498 27.535 32.9295 27.2447C32.1704 26.858 31.2707 27.0333 30.8201 27.7972C30.6324 28.1162 30.4467 28.5266 30.3885 28.9052C30.2197 30.008 30.0988 31.0644 30.0981 32.1908L30.0937 38.5505C30.0937 39.1782 30.184 39.769 30.2866 40.3738C30.4067 41.0803 30.8813 41.5842 31.5851 41.761L31.5873 43.2225L31.5859 43.224Z" fill="white" style="fill:white;fill-opacity:1;"/>
<path d="M123.791 43.2217L115.284 43.2261L115.277 41.741C116.37 41.7063 116.623 40.6337 116.623 39.5324L116.622 26.4748C116.622 25.3035 116.317 24.1093 115.183 24.0497L115.117 22.5623L121.554 21.9111C121.876 22.9012 122.039 23.8935 122.207 24.9668C123.145 23.3108 124.414 21.5951 126.34 21.6304L127.814 21.8728L126.687 28.3121C126.179 27.9106 125.708 27.5312 125.146 27.2505C124.499 26.9279 123.701 26.9772 123.211 27.5459C122.972 27.8229 122.747 28.2414 122.673 28.6126C122.474 29.5954 122.322 30.5427 122.317 31.5564L122.292 38.5482C122.289 39.3372 122.384 40.1033 122.627 40.8297C122.795 41.3321 123.261 41.5877 123.775 41.7498L123.789 43.2217H123.791Z" fill="white" style="fill:white;fill-opacity:1;"/>
<path d="M197.15 42.5086C195.764 42.6139 194.398 41.5981 194.395 40.1763L194.375 29.4385L194.383 22.7244C194.591 21.8161 195.274 21.1295 196.032 20.8488C196.978 20.5063 197.941 20.6948 198.685 21.3439C199.129 21.7306 199.524 22.3236 199.523 22.9682L199.503 40.2728C199.501 41.5052 198.321 42.4202 197.149 42.5086H197.15Z" fill="white" style="fill:white;fill-opacity:1;"/>
<path d="M80.3761 18.8679C81.4388 17.7599 82.3334 16.6144 82.9448 15.214C83.677 13.5358 84.0446 11.7406 83.8058 9.90254C83.4965 7.51719 82.3071 5.39408 80.6039 3.75571C80.3332 3.49493 80.0959 3.21131 80.0311 2.85623C79.9663 2.50115 80.1432 2.1306 80.3768 1.97443C80.6985 1.76005 81.0355 1.79762 81.3544 2.00537C83.3415 3.2975 84.7477 5.26885 85.4093 7.58128C86.5914 11.714 85.4588 16.1547 82.5699 19.2863C82.23 19.6547 81.9228 20.026 81.4665 20.216C81.0654 20.384 80.6534 20.2669 80.3921 19.9648C80.1665 19.704 80.0646 19.192 80.3761 18.8672V18.8679Z" fill="white" style="fill:white;fill-opacity:1;"/>
<path d="M66.2188 19.8913C65.9335 20.4511 65.1751 20.5859 64.7136 20.1719C62.4441 18.135 60.9934 15.3268 60.6979 12.2504C60.6069 11.3023 60.6149 10.3771 60.6994 9.43412C60.81 8.20166 61.2344 7.04655 61.7679 5.94301C62.5292 4.36947 63.6807 3.08912 65.1125 2.12776C65.3519 1.96643 65.713 1.90381 65.9663 2.01358C66.2196 2.12334 66.4197 2.41948 66.4518 2.63165C66.4991 2.94842 66.4277 3.29097 66.2086 3.50829C63.624 6.07709 62.0962 9.06947 62.7709 12.8177C63.1916 15.1529 64.3395 17.2156 66.023 18.8481C66.2843 19.1015 66.3957 19.545 66.2188 19.892V19.8913Z" fill="white" style="fill:white;fill-opacity:1;"/>
<path d="M68.0903 17.3892C67.8261 17.941 67.2787 18.2394 66.7132 18.0869C62.6684 14.6923 62.3881 7.43377 66.8078 4.48191C67.1805 4.23291 67.6325 4.38687 67.8741 4.65061C68.1515 4.95412 68.2796 5.46611 67.9833 5.79393C67.3857 6.45252 66.8216 7.0809 66.3682 7.84557C64.5863 10.8497 65.566 14.2502 67.9404 16.6282C68.1325 16.8205 68.1624 17.1078 68.0903 17.39V17.3892Z" fill="white" style="fill:white;fill-opacity:1;"/>
<path d="M78.8186 17.9006C78.3513 17.6177 78.2174 17.1153 78.4358 16.6593C80.9477 14.1973 81.9165 10.6848 79.9432 7.58933L78.355 5.59956C78.1526 5.34541 78.3513 4.8953 78.5209 4.69198C78.6905 4.48865 79.0719 4.18735 79.3886 4.35311C80.6179 4.99844 81.522 6.11303 82.0941 7.40369C83.6852 10.9942 82.7601 15.2773 79.8988 17.9249C79.5989 18.2026 79.1294 18.1039 78.8179 17.8999L78.8186 17.9006Z" fill="white" style="fill:white;fill-opacity:1;"/>
<path d="M69.5936 14.2936C69.86 14.5736 70.1904 14.7592 70.2108 15.171C70.2268 15.4848 69.9357 15.7861 69.7108 15.8819C69.3919 16.0182 68.996 15.9747 68.7507 15.7412C66.1733 13.2859 65.8814 9.17446 68.7099 6.89371C69.0207 6.64324 69.3388 6.48853 69.7326 6.65429C69.9917 6.76332 70.4364 7.10955 70.2894 7.50662C70.1708 7.82708 69.8323 8.09523 69.6001 8.35748C67.9275 10.2493 67.811 12.4166 69.5936 14.2936Z" fill="white" style="fill:white;fill-opacity:1;"/>
<path d="M76.4005 15.5294C76.0788 15.2281 76.1595 14.7735 76.4405 14.4995C76.851 14.0987 77.2244 13.6855 77.5287 13.2022C78.8316 11.1321 77.7951 8.99651 76.0868 7.45685C76.0271 6.83215 76.541 6.36878 77.1356 6.40046C78.2515 7.01485 79.047 8.01525 79.4335 9.24477C80.1308 11.4629 79.3957 13.7525 77.8475 15.4255C77.4632 15.841 76.8408 15.9426 76.3998 15.5294H76.4005Z" fill="white" style="fill:white;fill-opacity:1;"/>
<path d="M139.732 43.4369C139.732 43.6638 139.498 43.8016 139.376 43.7839C139.217 43.761 139.051 43.6336 139.051 43.4148V20.4047C139.14 20.2544 139.426 20.1918 139.542 20.2677C139.691 20.3649 139.755 20.5277 139.755 20.7472L139.742 32.9687L139.732 43.4376V43.4369Z" fill="white" style="fill:white;fill-opacity:1;"/>
</svg>
