<svg width="327" height="57" viewBox="0 0 327 57" fill="none" xmlns="http://www.w3.org/2000/svg">
<path d="M173.231 54.2185C173.231 54.5136 172.923 54.6927 172.764 54.6697C172.555 54.6401 172.337 54.4743 172.337 54.1898V24.2672C172.453 24.0717 172.83 23.9903 172.982 24.089C173.177 24.2154 173.262 24.4272 173.262 24.7126L173.244 40.6056L173.231 54.2195V54.2185Z" fill="#2036CD" style="fill:#2036CD;fill:color(display-p3 0.1255 0.2118 0.8039);fill-opacity:1;"/>
<path d="M208.146 34.2658H202.347V28.4537C202.347 26.0195 200.379 24.047 197.951 24.047C195.522 24.047 193.554 26.0195 193.554 28.4537V34.2658H187.755C185.326 34.2658 183.358 36.2383 183.358 38.6725C183.358 41.1067 185.326 43.0792 187.755 43.0792H193.554V48.8913C193.554 51.3256 195.522 53.298 197.951 53.298C200.379 53.298 202.347 51.3256 202.347 48.8913V43.0792H208.146C210.575 43.0792 212.543 41.1067 212.543 38.6725C212.543 36.2383 210.575 34.2658 208.146 34.2658Z" fill="#95EB1D" style="fill:#95EB1D;fill:color(display-p3 0.5843 0.9216 0.1137);fill-opacity:1;"/>
<path d="M275.381 46.9646C274.551 49.6805 272.328 51.5888 269.636 52.1865C268.571 52.4232 267.591 52.6588 266.483 52.656L254.294 52.6263C252.932 52.6234 251.748 51.1404 251.751 49.4879L251.81 26.7952C251.814 25.4789 253.179 24.2929 254.434 24.2929L266.492 24.2872C268.147 24.2872 269.748 24.6522 271.167 25.3956C274.15 26.9561 275.545 30.2727 274.645 33.4896C273.989 35.8376 272.168 37.0811 269.862 37.8647C270.832 38.1904 271.801 38.4759 272.676 39.0794C275.189 40.8124 276.294 43.9795 275.38 46.9655L275.381 46.9646ZM267.446 30.699L266.603 29.7017C265.787 29.4134 264.975 29.3185 264.103 29.3166L258.551 29.307L258.573 35.5502L263.279 35.5569C264.162 35.5425 265 35.4362 265.851 35.2695C267.823 34.8106 268.436 31.8725 267.445 30.699H267.446ZM267.883 46.0823C269.134 44.4173 268.708 42.258 267.001 41.1515C266.319 40.8546 265.611 40.6764 264.841 40.5767L258.554 40.5787L258.57 47.3238L264.747 47.342L266.212 47.0977C266.86 46.9895 267.476 46.6245 267.884 46.0813L267.883 46.0823Z" fill="#2238CE" style="fill:#2238CE;fill:color(display-p3 0.1333 0.2196 0.8078);fill-opacity:1;"/>
<path d="M295.424 52.6286C294.509 52.6142 293.875 51.8459 293.528 51.0824L289.711 41.4125L284.908 41.4163V50.5785C284.646 51.8612 283.57 52.7292 282.276 52.687L280.039 52.6142C279.086 52.5836 278.065 51.5777 278.065 50.4856L278.059 26.6203C278.059 25.3136 279.221 24.2598 280.455 24.2608L291.443 24.2627C292.964 24.2627 294.401 24.4639 295.832 24.8796C299.529 25.9554 301.628 29.7203 301.329 33.5015C301.103 36.7117 299.25 38.8049 296.36 40.1317L300.402 49.7297C300.698 51.2338 299.564 52.5711 298.056 52.6707L295.425 52.6305L295.424 52.6286ZM292.214 29.5642L290.07 29.386L284.898 29.3285L284.9 36.5431L290.688 36.5163C292.464 36.5076 293.829 35.3351 294.226 33.7314C294.65 32.0243 293.834 30.3497 292.214 29.5642Z" fill="#2238CE" style="fill:#2238CE;fill:color(display-p3 0.1333 0.2196 0.8078);fill-opacity:1;"/>
<path d="M319.515 46.8422H310.195L308.814 51.1847C308.673 51.6263 308.297 51.9894 307.935 52.226C307.254 52.6715 306.538 52.6801 305.748 52.706C304.081 52.7606 302.691 51.4903 302.735 49.7822L310.443 26.0894C310.77 25.0844 311.753 24.2721 312.734 24.274L317.187 24.2855C317.977 24.2874 319.077 24.8507 319.346 25.6937L326.978 49.5667C327.193 51.3581 325.778 52.7683 324.018 52.7012C323.28 52.6734 322.572 52.7175 321.932 52.3209C321.389 52.0632 321.004 51.611 320.831 51.0285L319.516 46.8402L319.515 46.8422ZM318.476 41.488L314.891 31.3075L310.925 41.5598L318.476 41.487V41.488Z" fill="#2238CE" style="fill:#2238CE;fill:color(display-p3 0.1333 0.2196 0.8078);fill-opacity:1;"/>
<path d="M235.19 41.69L226.677 41.7781L226.638 50.901C226.364 52.0285 225.433 52.8083 224.299 52.9434L221.708 52.8984C220.567 52.8783 219.594 51.698 219.595 50.5053L219.611 26.6132C219.611 25.3487 220.921 24.2652 222.108 24.2661L237.811 24.2805C239.349 24.2815 240.337 25.8353 240.275 27.2349C240.209 28.7236 239.243 29.8282 237.772 29.9556H226.671L226.679 36.3981L235.123 36.4048C236.452 36.6337 237.37 37.6789 237.409 38.998C237.442 40.1783 236.567 41.6775 235.19 41.6909V41.69Z" fill="#2238CE" style="fill:#2238CE;fill:color(display-p3 0.1333 0.2196 0.8078);fill-opacity:1;"/>
<path d="M246.272 52.8046C244.452 52.9416 242.658 51.6205 242.654 49.7716L242.628 35.808L242.639 27.077C242.912 25.8958 243.809 25.0029 244.805 24.6379C246.046 24.1925 247.311 24.4377 248.289 25.2817C248.871 25.7846 249.39 26.5558 249.389 27.3941L249.362 49.8971C249.36 51.4998 247.81 52.6896 246.271 52.8046H246.272Z" fill="#2238CE" style="fill:#2238CE;fill:color(display-p3 0.1333 0.2196 0.8078);fill-opacity:1;"/>
<path d="M100.732 50.1931C97.595 45.5862 97.4124 38.9464 99.2877 33.7666C100.213 31.2116 102.119 28.2428 104.581 27.1201C106.107 26.4246 107.728 26.1937 109.396 26.1688L111.902 26.1314L111.885 22.1979C111.88 21.2179 111.842 20.2532 111.526 19.3307C111.39 18.935 110.927 18.7904 110.492 18.777L110.391 16.7422L119.31 14.9604L119.324 30.0151L119.344 50.1184C119.344 50.7018 119.842 51.2718 120.2 51.633C120.451 51.8859 120.878 51.8552 121.235 51.8724L121.229 53.8344L106.745 53.7827C105.072 53.7769 103.474 52.9281 102.239 51.9232C101.617 51.4164 101.165 50.8282 100.731 50.1921L100.732 50.1931ZM111.231 48.9841C111.4 48.8385 111.575 48.416 111.6 48.2024L111.886 45.7222L111.912 31.0238C109.946 30.6205 108.27 31.6523 107.455 33.3949C106.905 34.5732 106.557 35.8166 106.416 37.132C106.162 39.5145 106.139 41.874 106.475 44.2479C106.692 45.7873 107.183 47.2138 108.044 48.4505C108.786 49.5168 110.201 49.8664 111.231 48.9841Z" fill="#2238CE" style="fill:#2238CE;fill:color(display-p3 0.1333 0.2196 0.8078);fill-opacity:1;"/>
<path d="M10.2197 50.3452C10.3946 51.2304 11.4393 51.6184 12.4295 51.7419L12.4267 53.8313L0 53.8284L0.00955809 51.7141C0.734072 51.6021 1.25117 51.1518 1.38499 50.4764C1.55321 49.6315 1.68798 48.8306 1.68894 47.9215V23.2304C1.68894 22.3366 1.56946 21.5578 1.44138 20.7176C1.32477 19.956 0.802892 19.4052 0.00382338 19.2701V17.1453L17.6674 17.2018C19.1346 17.2066 20.5167 17.7172 21.6532 18.5545C22.4227 19.1226 22.8862 19.9417 23.1261 20.8613C24.0648 24.4605 23.1003 28.2119 20.685 31.0265C17.8787 34.2491 13.9149 36.1067 9.86027 37.4986L9.87174 47.5632C9.8727 48.5308 10.0371 49.4217 10.2197 50.3442V50.3452ZM14.2465 28.3336C15.0332 26.7433 15.2578 24.9759 14.7646 23.2678C14.28 21.5903 12.5633 21.3374 10.8811 21.6536C9.95394 21.827 9.83733 23.1365 9.84116 24.2267L9.86314 32.2958C11.5836 31.2497 13.1435 30.1336 14.2465 28.3336Z" fill="#2238CE" style="fill:#2238CE;fill:color(display-p3 0.1333 0.2196 0.8078);fill-opacity:1;"/>
<path d="M60.9854 46.0305C59.7418 50.6527 56.3573 54.2404 51.4759 54.6111C48.0464 54.8717 44.8425 53.93 42.5456 51.309C41.2782 49.8634 40.3663 48.1907 39.8368 46.3054C38.7242 42.3461 38.687 38.1712 39.7049 34.1917C40.3013 31.8619 41.4091 29.785 43.1124 28.1324C46.1089 25.2259 50.7886 24.7144 54.6005 26.1772C56.8074 27.0241 58.722 28.9803 59.8154 31.0706C62.0845 35.4102 62.2451 41.3517 60.9863 46.0295L60.9854 46.0305ZM52.0207 49.0337C53.0931 47.5469 53.4946 45.2689 53.593 43.42C53.7393 40.661 53.6246 37.9479 53.1954 35.2215C52.9746 33.82 52.5846 32.5095 51.8649 31.3312C51.3296 30.4536 50.3059 29.9459 49.3721 30.4556C48.0884 31.1568 47.383 33.7175 47.2368 35.2809C46.9003 38.8849 46.82 47.0574 49.3778 49.3202C50.2046 50.0511 51.3554 49.9572 52.0207 49.0347V49.0337Z" fill="#2238CE" style="fill:#2238CE;fill:color(display-p3 0.1333 0.2196 0.8078);fill-opacity:1;"/>
<path d="M138.196 48.7539C140.143 47.5603 141.167 44.7716 141.728 42.5232L143.386 42.9447L141.108 54.2106C139.781 54.0793 138.578 54.1799 137.344 54.4242L134.719 54.7174C131.505 54.7624 128.461 53.5199 126.28 51.1575C124.722 49.4695 123.603 47.521 122.946 45.3032C121.221 39.4797 122.053 32.0419 126.729 27.8727C129.44 25.4548 133.367 24.7075 136.769 26.0267C138.359 26.6436 139.536 27.8402 140.473 29.2139C141.214 30.4104 141.872 31.582 142.273 32.9299L143.326 36.462L130.435 41.0134C130.72 43.5281 131.372 46.1032 133.137 47.9645C134.449 49.3699 136.544 49.7694 138.197 48.7558L138.196 48.7539ZM130.195 36.9439L135.452 35.0499C135.294 33.4127 134.63 30.4765 133.17 30.2188C132.599 30.1182 132.09 30.2706 131.689 30.6614C130.724 31.6012 130.105 33.6417 130.139 34.8804L130.196 36.9439H130.195Z" fill="#2238CE" style="fill:#2238CE;fill:color(display-p3 0.1333 0.2196 0.8078);fill-opacity:1;"/>
<path d="M84.6237 49.6048L79.058 54.4838C78.8353 54.6792 78.4596 54.9887 78.1968 54.6467C77.8422 54.1849 77.8718 53.4329 78.1031 52.8773C78.9566 50.8253 79.815 48.8566 80.4917 46.7356L82.1825 41.4332C84.1668 34.7867 85.7229 28.0846 86.867 21.2389L87.7043 15.5887C86.4656 14.9468 85.6312 13.8385 85.6206 12.457C85.6101 11.0747 86.4656 9.89635 87.6021 9.3733C88.8886 8.78318 90.3262 8.9901 91.3785 9.92605C92.3315 10.7739 92.6813 12.0585 92.364 13.3192C92.082 14.4439 91.1759 15.4115 89.9305 15.7563L91.0985 23.5476L92.2206 29.6921C93.7853 37.607 96.2179 45.2546 99.4963 52.6071C99.9322 53.5843 99.8423 54.5777 99.5088 54.6639C99.416 54.6879 99.2144 54.638 99.0882 54.5921L93.0636 49.7523L88.8532 56.3576L84.6237 49.6048ZM87.5896 29.4526L88.1574 28.6221V22.9977L87.0525 28.5349L87.5896 29.4526ZM90.0729 29.4536L90.5374 28.3414L89.5185 23.4566L89.4392 28.6508L90.0729 29.4536ZM86.6854 37.2037L88.0599 34.9706L87.2484 32.9876L85.829 35.4238L86.6854 37.2037ZM90.9962 37.0207L91.737 35.2571L90.4552 33.2137L89.5997 34.8643L90.9962 37.0207ZM85.6484 38.3399L85.0491 37.2324L84.3523 40.0748L85.6493 38.3399H85.6484ZM93.2739 40.0614L92.5513 37.2343L91.8784 38.5257L93.2739 40.0614ZM88.0695 40.9302L88.1144 37.6051L87.1385 38.9252L88.0704 40.9302H88.0695ZM90.438 38.929L89.4822 37.5677L89.4946 40.9456L90.438 38.929ZM85.0567 47.1983L87.8057 44.3196L86.0728 40.1955L83.1842 44.6194L85.0567 47.1983ZM92.7903 47.4005L94.4353 44.4872L91.4846 40.2673L89.7316 44.5476L92.7903 47.4014V47.4005ZM97.1202 50.6806L95.305 45.9788L94.0166 48.1209L97.1202 50.6806ZM83.7272 48.3086L82.282 46.0794L80.4697 50.8377L83.7272 48.3096V48.3086ZM88.0752 52.4672L88.1861 46.59L85.6684 48.6765L88.0752 52.4682V52.4672ZM91.7914 48.7369L89.551 46.6121L89.5319 52.3197L91.7924 48.7359L91.7914 48.7369Z" fill="#2238CE" style="fill:#2238CE;fill:color(display-p3 0.1333 0.2196 0.8078);fill-opacity:1;"/>
<path d="M80.0478 30.5151L79.2669 32.8209L76.1423 44.9356L74.9523 49.8127C74.7573 50.6117 75.0966 51.4106 75.6347 52.0055L75.6596 53.8295H67.2847L67.299 52.0161C67.6995 51.5754 68.0923 51.0389 67.9547 50.4182L67.0132 46.181L63.5072 31.8045C63.274 30.8494 62.9835 29.9911 62.5734 29.1356C62.3048 28.5742 61.8011 28.2437 61.175 28.1239L61.1703 26.1467H72.2425L72.2482 28.1805C71.691 28.1096 71.2733 28.3673 71.0955 28.8731C70.9885 29.3722 70.8919 29.9029 71.0085 30.4317L73.4937 41.7446L76.1193 30.7622C76.2503 29.5322 76.1547 28.2657 75.0211 28.1536L74.9695 26.1486L82.3006 26.1419L82.3322 28.1249C81.1489 28.2667 80.4358 29.3693 80.0478 30.5141V30.5151Z" fill="#2238CE" style="fill:#2238CE;fill:color(display-p3 0.1333 0.2196 0.8078);fill-opacity:1;"/>
<path d="M34.4227 53.8285H23.2549L23.2377 51.8943C24.0855 51.877 24.7268 51.3434 24.8368 50.5282L25.027 49.12V32.1397C25.027 31.5362 24.876 30.9681 24.7928 30.4029C24.6714 29.5761 24.0195 28.963 23.1469 28.895L23.0685 26.9551L31.5017 26.1121C31.9127 27.437 32.1287 28.6728 32.3448 30.0676C33.0597 28.9285 33.7135 27.8316 34.7095 26.9723C35.6423 26.1676 36.7846 25.6752 38.03 25.794L39.6989 26.0651L38.2412 34.4341C37.5693 33.9072 36.9337 33.4263 36.1872 33.0488C35.1902 32.5459 34.0088 32.7739 33.4172 33.7673C33.1706 34.1821 32.9269 34.7157 32.8504 35.2081C32.6286 36.6422 32.47 38.016 32.469 39.4807L32.4633 47.751C32.4633 48.5672 32.5818 49.3355 32.7166 50.122C32.8743 51.0407 33.4975 51.696 34.4218 51.9259L34.4246 53.8265L34.4227 53.8285Z" fill="#2238CE" style="fill:#2238CE;fill:color(display-p3 0.1333 0.2196 0.8078);fill-opacity:1;"/>
<path d="M155.503 53.8253L144.332 53.8311L144.324 51.8998C145.758 51.8547 146.091 50.4599 146.091 49.0277L146.089 32.0475C146.089 30.5243 145.69 28.9714 144.2 28.8938L144.114 26.9596L152.566 26.1128C152.989 27.4003 153.203 28.6907 153.423 30.0865C154.655 27.9329 156.321 25.7018 158.85 25.7478L160.787 26.0629L159.306 34.4367C158.639 33.9146 158.022 33.4212 157.283 33.0562C156.433 32.6366 155.386 32.7008 154.742 33.4404C154.429 33.8006 154.133 34.3447 154.035 34.8275C153.774 36.1055 153.574 37.3375 153.568 38.6556L153.535 47.7479C153.531 48.7739 153.655 49.7702 153.975 50.7147C154.196 51.3681 154.808 51.7005 155.483 51.9113L155.501 53.8253H155.503Z" fill="#2238CE" style="fill:#2238CE;fill:color(display-p3 0.1333 0.2196 0.8078);fill-opacity:1;"/>
<path d="M98.4923 22.1556C99.8878 20.7148 101.063 19.2251 101.865 17.404C102.827 15.2217 103.31 12.8871 102.996 10.4969C102.59 7.39495 101.028 4.63404 98.7915 2.50348C98.4359 2.16436 98.1243 1.79553 98.0393 1.33378C97.9542 0.872036 98.1865 0.39017 98.4933 0.187078C98.9158 -0.0916956 99.3583 -0.0428384 99.7769 0.227313C102.386 1.90762 104.233 4.47118 105.102 7.47829C106.654 12.8526 105.167 18.6273 101.373 22.6997C100.927 23.1787 100.523 23.6615 99.9241 23.9087C99.3975 24.1271 98.8565 23.9748 98.5133 23.582C98.217 23.2429 98.0832 22.5771 98.4923 22.1546V22.1556Z" fill="#2238CE" style="fill:#2238CE;fill:color(display-p3 0.1333 0.2196 0.8078);fill-opacity:1;"/>
<path d="M79.901 23.4863C79.5263 24.2144 78.5303 24.3897 77.9243 23.8513C74.9441 21.2025 73.0391 17.5506 72.651 13.5501C72.5316 12.3172 72.5421 11.114 72.653 9.88774C72.7982 8.28503 73.3555 6.78291 74.0561 5.34785C75.0559 3.3016 76.568 1.63662 78.4481 0.386454C78.7626 0.176655 79.2367 0.0952265 79.5693 0.237966C79.9019 0.380706 80.1648 0.765815 80.2068 1.04171C80.269 1.45365 80.1753 1.89911 79.8876 2.18172C76.4935 5.5222 74.4872 9.41354 75.3732 14.2878C75.9257 17.3246 77.433 20.0069 79.6438 22.1298C79.987 22.4594 80.1332 23.0361 79.901 23.4873V23.4863Z" fill="#2238CE" style="fill:#2238CE;fill:color(display-p3 0.1333 0.2196 0.8078);fill-opacity:1;"/>
<path d="M82.3592 20.2329C82.0123 20.9504 81.2935 21.3384 80.5508 21.1401C75.2393 16.7257 74.8713 7.28667 80.6751 3.44803C81.1645 3.12423 81.758 3.32445 82.0754 3.66741C82.4395 4.0621 82.6078 4.7279 82.2187 5.1542C81.434 6.01064 80.6932 6.8278 80.0978 7.82219C77.7579 11.7288 79.0444 16.1509 82.1623 19.2433C82.4147 19.4933 82.4539 19.8669 82.3592 20.2338V20.2329Z" fill="#2238CE" style="fill:#2238CE;fill:color(display-p3 0.1333 0.2196 0.8078);fill-opacity:1;"/>
<path d="M96.4471 20.8979C95.8334 20.53 95.6576 19.8766 95.9443 19.2836C99.2429 16.0821 100.515 11.5144 97.9238 7.48895L95.8382 4.90144C95.5725 4.57093 95.8335 3.9856 96.0562 3.7212C96.2789 3.4568 96.7797 3.06498 97.1955 3.28053C98.8099 4.11972 99.997 5.56915 100.748 7.24754C102.838 11.9168 101.623 17.4865 97.8655 20.9295C97.4717 21.2906 96.8552 21.1623 96.4461 20.8969L96.4471 20.8979Z" fill="#2238CE" style="fill:#2238CE;fill:color(display-p3 0.1333 0.2196 0.8078);fill-opacity:1;"/>
<path d="M84.3344 16.2073C84.6842 16.5713 85.1182 16.8127 85.145 17.3482C85.166 17.7563 84.7836 18.1481 84.4883 18.2727C84.0697 18.4499 83.5497 18.3934 83.2276 18.0897C79.843 14.8968 79.4597 9.55024 83.174 6.58433C83.5822 6.25861 83.9999 6.05744 84.517 6.27298C84.8572 6.41476 85.4413 6.86502 85.2482 7.38137C85.0924 7.79809 84.6479 8.1468 84.343 8.48784C82.1465 10.9479 81.9936 13.7663 84.3344 16.2073Z" fill="#2238CE" style="fill:#2238CE;fill:color(display-p3 0.1333 0.2196 0.8078);fill-opacity:1;"/>
<path d="M93.2714 17.8141C92.8489 17.4223 92.955 16.8312 93.324 16.4749C93.8631 15.9537 94.3534 15.4163 94.7529 14.7879C96.4639 12.0959 95.1028 9.31873 92.8594 7.31654C92.7811 6.50417 93.4559 5.9016 94.2368 5.94279C95.7021 6.74175 96.7468 8.04269 97.2543 9.64157C98.17 12.5261 97.2046 15.5035 95.1716 17.6791C94.6669 18.2194 93.8497 18.3516 93.2704 17.8141H93.2714Z" fill="#2238CE" style="fill:#2238CE;fill:color(display-p3 0.1333 0.2196 0.8078);fill-opacity:1;"/>
</svg>
