<svg width="36" height="35" viewBox="0 0 36 35" fill="none" xmlns="http://www.w3.org/2000/svg">
<path d="M29.7272 12.2272H22.7728V5.27281C22.7728 2.36016 20.4127 0 17.5 0C14.5873 0 12.2272 2.36016 12.2272 5.27281V12.2272H5.27281C2.36016 12.2272 0 14.5873 0 17.5C0 20.4127 2.36016 22.7728 5.27281 22.7728H12.2272V29.7272C12.2272 32.6398 14.5873 35 17.5 35C20.4127 35 22.7728 32.6398 22.7728 29.7272V22.7728H29.7272C32.6398 22.7728 35 20.4127 35 17.5C35 14.5873 32.6398 12.2272 29.7272 12.2272Z" fill="#95EB1D" style="fill:#95EB1D;fill:color(display-p3 0.5843 0.9216 0.1137);fill-opacity:1;"/>
</svg>
