<svg width="232" height="85" viewBox="0 0 232 85" fill="none" xmlns="http://www.w3.org/2000/svg">
<path d="M30.0872 63.629C39.9292 63.629 45.1092 59.115 45.6272 50.087C41.7052 53.417 36.1922 55.082 29.0882 55.082C21.7622 55.082 15.9162 53.121 11.5502 49.199C7.1842 45.277 5.0012 39.357 5.0012 31.439C5.0012 22.263 7.8872 15.122 13.6592 10.016C19.5052 4.83599 26.8312 2.24599 35.6372 2.24599C46.7372 2.24599 55.2842 5.68699 61.2782 12.569C67.2722 19.377 70.2692 29.219 70.2692 42.095C70.2692 54.897 67.0872 64.887 60.7232 72.065C54.4332 79.243 45.3312 82.832 33.4172 82.832C25.2772 82.832 18.8762 81.426 14.2142 78.614C11.6982 77.134 10.4402 74.544 10.4402 70.844C10.4402 66.996 11.5872 62.926 13.8812 58.634C18.6912 61.964 24.0932 63.629 30.0872 63.629ZM36.1922 38.987C40.1142 38.987 43.5922 37.655 46.6262 34.991C46.5522 30.921 45.5902 27.665 43.7402 25.223C41.9642 22.707 39.7072 21.449 36.9692 21.449C31.1972 21.449 28.3112 24.594 28.3112 30.884C28.3112 33.4 28.9772 35.398 30.3092 36.878C31.7152 38.284 33.6762 38.987 36.1922 38.987ZM86.8047 72.287C80.6627 65.183 77.5917 55.267 77.5917 42.539C77.5917 29.811 80.6627 19.932 86.8047 12.902C93.0207 5.798 101.42 2.24599 112.002 2.24599C122.584 2.24599 130.946 5.798 137.088 12.902C143.304 19.932 146.412 29.811 146.412 42.539C146.412 55.267 143.304 65.183 137.088 72.287C130.946 79.317 122.584 82.832 112.002 82.832C101.42 82.832 93.0207 79.317 86.8047 72.287ZM119.439 57.302C121.141 53.75 121.992 48.829 121.992 42.539C121.992 36.249 121.141 31.365 119.439 27.887C117.737 24.335 115.258 22.559 112.002 22.559C108.746 22.559 106.267 24.335 104.565 27.887C102.863 31.365 102.012 36.249 102.012 42.539C102.012 48.829 102.863 53.75 104.565 57.302C106.267 60.78 108.746 62.519 112.002 62.519C115.258 62.519 117.737 60.78 119.439 57.302ZM160.949 72.287C154.807 65.183 151.736 55.267 151.736 42.539C151.736 29.811 154.807 19.932 160.949 12.902C167.165 5.798 175.564 2.24599 186.146 2.24599C196.728 2.24599 205.09 5.798 211.232 12.902C217.448 19.932 220.556 29.811 220.556 42.539C220.556 55.267 217.448 65.183 211.232 72.287C205.09 79.317 196.728 82.832 186.146 82.832C175.564 82.832 167.165 79.317 160.949 72.287ZM193.583 57.302C195.285 53.75 196.136 48.829 196.136 42.539C196.136 36.249 195.285 31.365 193.583 27.887C191.881 24.335 189.402 22.559 186.146 22.559C182.89 22.559 180.411 24.335 178.709 27.887C177.007 31.365 176.156 36.249 176.156 42.539C176.156 48.829 177.007 53.75 178.709 57.302C180.411 60.78 182.89 62.519 186.146 62.519C189.402 62.519 191.881 60.78 193.583 57.302Z" fill="white" style="fill:white;fill-opacity:1;"/>
<g clip-path="url(#clip0_6488_423)">
<rect x="185" y="35" width="47" height="16" rx="2" fill="#49C501" style="fill:#49C501;fill:color(display-p3 0.2863 0.7725 0.0039);fill-opacity:1;"/>
<path d="M189.02 48V38.2H190.896L195.068 45.116H194.074L198.176 38.2H200.038L200.066 48H197.938L197.924 41.462H198.316L195.04 46.964H194.018L190.672 41.462H191.148V48H189.02ZM201.391 48V38.2H208.797V40.02H203.645V46.18H208.979V48H201.391ZM203.477 43.912V42.148H208.195V43.912H203.477ZM214.516 48.168C213.741 48.168 213.027 48.0467 212.374 47.804C211.73 47.552 211.165 47.1973 210.68 46.74C210.204 46.2827 209.831 45.746 209.56 45.13C209.299 44.514 209.168 43.8373 209.168 43.1C209.168 42.3627 209.299 41.686 209.56 41.07C209.831 40.454 210.209 39.9173 210.694 39.46C211.179 39.0027 211.749 38.6527 212.402 38.41C213.055 38.158 213.774 38.032 214.558 38.032C215.426 38.032 216.205 38.1767 216.896 38.466C217.596 38.7553 218.184 39.1753 218.66 39.726L217.204 41.07C216.849 40.6967 216.462 40.4213 216.042 40.244C215.622 40.0573 215.165 39.964 214.67 39.964C214.194 39.964 213.76 40.0387 213.368 40.188C212.976 40.3373 212.635 40.552 212.346 40.832C212.066 41.112 211.847 41.4433 211.688 41.826C211.539 42.2087 211.464 42.6333 211.464 43.1C211.464 43.5573 211.539 43.9773 211.688 44.36C211.847 44.7427 212.066 45.0787 212.346 45.368C212.635 45.648 212.971 45.8627 213.354 46.012C213.746 46.1613 214.175 46.236 214.642 46.236C215.09 46.236 215.524 46.166 215.944 46.026C216.373 45.8767 216.789 45.6293 217.19 45.284L218.478 46.922C217.946 47.3233 217.325 47.6313 216.616 47.846C215.916 48.0607 215.216 48.168 214.516 48.168ZM218.478 46.922L216.406 46.628V42.946H218.478V46.922ZM218.297 48L222.665 38.2H224.905L229.287 48H226.907L223.323 39.348H224.219L220.621 48H218.297ZM220.481 45.9L221.083 44.178H226.123L226.739 45.9H220.481Z" fill="white" style="fill:white;fill-opacity:1;"/>
</g>
<defs>
<clipPath id="clip0_6488_423">
<rect x="185" y="35" width="47" height="16" rx="2" fill="white" style="fill:white;fill-opacity:1;"/>
</clipPath>
</defs>
</svg>
