<svg width="154" height="48" viewBox="0 0 154 48" fill="none" xmlns="http://www.w3.org/2000/svg">
<rect x="0.5" y="0.5" width="152.81" height="47" rx="11.5" stroke="#003F99" style="stroke:#003F99;stroke:color(display-p3 0.0000 0.2471 0.6000);stroke-opacity:1;"/>
<g clip-path="url(#clip0_6279_612)">
<path d="M23.1806 35.76C23.5506 35.9699 23.9806 35.98 24.3606 35.8L36.0106 29.07L33.2706 26L23.1806 35.76ZM20.7506 13.13C20.5697 13.3825 20.4814 13.6898 20.5006 14V34C20.4814 34.3101 20.5697 34.6174 20.7506 34.87L20.8706 34.98L32.5006 23.86V23.58L20.8706 13.02L20.7506 13.13ZM40.9006 22.27L37.6306 20.38L34.3606 23.56L37.6306 26.74L40.9306 24.84C41.4781 24.6502 41.8453 24.1344 41.8453 23.555C41.8453 22.9755 41.4781 22.4597 40.9306 22.27H40.9006ZM24.3606 12.2L36.0006 18.93L33.2606 21.56L23.1806 12.2C23.5528 12.3825 23.9885 12.3825 24.3606 12.2V12.2Z" fill="#003F99" style="fill:#003F99;fill:color(display-p3 0.0000 0.2471 0.6000);fill-opacity:1;"/>
</g>
<path d="M57.38 20C57.2 20 57.06 19.9533 56.96 19.86C56.8667 19.76 56.82 19.62 56.82 19.44V13.51C56.82 13.33 56.8667 13.1933 56.96 13.1C57.06 13 57.2 12.95 57.38 12.95H59.31C60.47 12.95 61.3633 13.2533 61.99 13.86C62.6233 14.46 62.94 15.33 62.94 16.47C62.94 17.0367 62.86 17.54 62.7 17.98C62.54 18.42 62.3033 18.79 61.99 19.09C61.6833 19.3833 61.3067 19.61 60.86 19.77C60.4133 19.9233 59.8967 20 59.31 20H57.38ZM57.86 19.13H59.25C59.69 19.13 60.07 19.0767 60.39 18.97C60.7167 18.8567 60.99 18.69 61.21 18.47C61.43 18.25 61.5933 17.9733 61.7 17.64C61.8067 17.3067 61.86 16.9167 61.86 16.47C61.86 15.5833 61.64 14.92 61.2 14.48C60.7667 14.04 60.1167 13.82 59.25 13.82H57.86V19.13ZM64.7198 20.06C64.5598 20.06 64.4364 20.0133 64.3498 19.92C64.2631 19.82 64.2198 19.6833 64.2198 19.51V15.61C64.2198 15.4367 64.2631 15.3033 64.3498 15.21C64.4364 15.1167 64.5598 15.07 64.7198 15.07C64.8798 15.07 65.0031 15.1167 65.0898 15.21C65.1831 15.3033 65.2298 15.4367 65.2298 15.61V19.51C65.2298 19.6833 65.1864 19.82 65.0998 19.92C65.0131 20.0133 64.8864 20.06 64.7198 20.06ZM64.7198 14.03C64.5198 14.03 64.3631 13.98 64.2498 13.88C64.1431 13.78 64.0898 13.64 64.0898 13.46C64.0898 13.2733 64.1431 13.1333 64.2498 13.04C64.3631 12.94 64.5198 12.89 64.7198 12.89C64.9198 12.89 65.0731 12.94 65.1798 13.04C65.2931 13.1333 65.3498 13.2733 65.3498 13.46C65.3498 13.64 65.2931 13.78 65.1798 13.88C65.0731 13.98 64.9198 14.03 64.7198 14.03ZM68.3614 20.09C68.0681 20.09 67.7647 20.0567 67.4514 19.99C67.1447 19.9233 66.8614 19.81 66.6014 19.65C66.5147 19.59 66.4547 19.5233 66.4214 19.45C66.3881 19.3767 66.3747 19.3033 66.3814 19.23C66.3947 19.15 66.4247 19.0833 66.4714 19.03C66.5247 18.97 66.5881 18.9333 66.6614 18.92C66.7414 18.9067 66.8247 18.9233 66.9114 18.97C67.1714 19.1167 67.4214 19.22 67.6614 19.28C67.9014 19.3333 68.1381 19.36 68.3714 19.36C68.7247 19.36 68.9914 19.2967 69.1714 19.17C69.3514 19.0433 69.4414 18.8733 69.4414 18.66C69.4414 18.4867 69.3814 18.3533 69.2614 18.26C69.1414 18.16 68.9614 18.0833 68.7214 18.03L67.7714 17.84C67.3581 17.7533 67.0447 17.6 66.8314 17.38C66.6181 17.16 66.5114 16.88 66.5114 16.54C66.5114 16.2333 66.5947 15.9667 66.7614 15.74C66.9281 15.5133 67.1614 15.34 67.4614 15.22C67.7614 15.0933 68.1081 15.03 68.5014 15.03C68.7947 15.03 69.0714 15.0667 69.3314 15.14C69.5914 15.2133 69.8314 15.3233 70.0514 15.47C70.1381 15.5167 70.1947 15.58 70.2214 15.66C70.2481 15.7333 70.2514 15.8067 70.2314 15.88C70.2181 15.9533 70.1847 16.02 70.1314 16.08C70.0781 16.1333 70.0114 16.1667 69.9314 16.18C69.8581 16.1867 69.7747 16.1667 69.6814 16.12C69.4814 15.9933 69.2814 15.9033 69.0814 15.85C68.8881 15.7967 68.6947 15.77 68.5014 15.77C68.1481 15.77 67.8814 15.8367 67.7014 15.97C67.5281 16.0967 67.4414 16.27 67.4414 16.49C67.4414 16.6567 67.4947 16.7933 67.6014 16.9C67.7081 17.0067 67.8747 17.0833 68.1014 17.13L69.0514 17.32C69.4847 17.4067 69.8114 17.5533 70.0314 17.76C70.2581 17.9667 70.3714 18.2467 70.3714 18.6C70.3714 19.06 70.1881 19.4233 69.8214 19.69C69.4547 19.9567 68.9681 20.09 68.3614 20.09ZM71.9952 21.87C71.8352 21.87 71.7118 21.8267 71.6252 21.74C71.5385 21.6533 71.4952 21.5267 71.4952 21.36V15.56C71.4952 15.3933 71.5385 15.2667 71.6252 15.18C71.7118 15.0933 71.8318 15.05 71.9852 15.05C72.1452 15.05 72.2685 15.0933 72.3552 15.18C72.4418 15.2667 72.4852 15.3933 72.4852 15.56V16.43L72.3752 16.22C72.4818 15.86 72.6918 15.5733 73.0052 15.36C73.3185 15.14 73.6885 15.03 74.1152 15.03C74.5485 15.03 74.9252 15.1333 75.2452 15.34C75.5718 15.5467 75.8218 15.8367 75.9952 16.21C76.1752 16.5833 76.2652 17.0333 76.2652 17.56C76.2652 18.0733 76.1752 18.5233 75.9952 18.91C75.8218 19.29 75.5752 19.5833 75.2552 19.79C74.9352 19.99 74.5552 20.09 74.1152 20.09C73.6952 20.09 73.3285 19.9833 73.0152 19.77C72.7018 19.5567 72.4918 19.2733 72.3852 18.92H72.5052V21.36C72.5052 21.5267 72.4585 21.6533 72.3652 21.74C72.2785 21.8267 72.1552 21.87 71.9952 21.87ZM73.8652 19.31C74.1452 19.31 74.3885 19.2433 74.5952 19.11C74.8018 18.9767 74.9618 18.78 75.0752 18.52C75.1885 18.26 75.2452 17.94 75.2452 17.56C75.2452 16.9867 75.1185 16.5533 74.8652 16.26C74.6185 15.9667 74.2852 15.82 73.8652 15.82C73.5918 15.82 73.3485 15.8867 73.1352 16.02C72.9285 16.1467 72.7685 16.34 72.6552 16.6C72.5418 16.86 72.4852 17.18 72.4852 17.56C72.4852 18.1267 72.6118 18.56 72.8652 18.86C73.1185 19.16 73.4518 19.31 73.8652 19.31ZM79.5234 20.09C79.03 20.09 78.6034 19.9867 78.2434 19.78C77.89 19.5733 77.6134 19.28 77.4134 18.9C77.2134 18.52 77.1134 18.0733 77.1134 17.56C77.1134 17.1667 77.17 16.8167 77.2834 16.51C77.3967 16.2033 77.5567 15.94 77.7634 15.72C77.9767 15.4933 78.23 15.3233 78.5234 15.21C78.8234 15.09 79.1567 15.03 79.5234 15.03C80.01 15.03 80.43 15.1333 80.7834 15.34C81.1434 15.5467 81.4234 15.84 81.6234 16.22C81.8234 16.5933 81.9234 17.04 81.9234 17.56C81.9234 17.9467 81.8667 18.2967 81.7534 18.61C81.64 18.9233 81.4767 19.19 81.2634 19.41C81.0567 19.63 80.8034 19.8 80.5034 19.92C80.21 20.0333 79.8834 20.09 79.5234 20.09ZM79.5234 19.31C79.7967 19.31 80.0367 19.2433 80.2434 19.11C80.45 18.9767 80.61 18.78 80.7234 18.52C80.8434 18.26 80.9034 17.94 80.9034 17.56C80.9034 16.9867 80.7767 16.5533 80.5234 16.26C80.27 15.9667 79.9367 15.82 79.5234 15.82C79.2434 15.82 79 15.8867 78.7934 16.02C78.5867 16.1467 78.4234 16.34 78.3034 16.6C78.19 16.86 78.1334 17.18 78.1334 17.56C78.1334 18.1267 78.26 18.56 78.5134 18.86C78.7667 19.16 79.1034 19.31 79.5234 19.31ZM83.5577 20.07C83.3977 20.07 83.2743 20.0267 83.1877 19.94C83.101 19.8467 83.0577 19.72 83.0577 19.56V15.56C83.0577 15.3933 83.101 15.2667 83.1877 15.18C83.2743 15.0933 83.3943 15.05 83.5477 15.05C83.7077 15.05 83.8277 15.0933 83.9077 15.18C83.9943 15.2667 84.0377 15.3933 84.0377 15.56V16.34L83.9277 16.16C84.0743 15.7867 84.3043 15.5067 84.6177 15.32C84.931 15.1267 85.291 15.03 85.6977 15.03C86.0843 15.03 86.4043 15.1033 86.6577 15.25C86.9177 15.39 87.111 15.6067 87.2377 15.9C87.3643 16.1867 87.4277 16.55 87.4277 16.99V19.56C87.4277 19.72 87.3843 19.8467 87.2977 19.94C87.211 20.0267 87.0877 20.07 86.9277 20.07C86.761 20.07 86.6343 20.0267 86.5477 19.94C86.461 19.8467 86.4177 19.72 86.4177 19.56V17.05C86.4177 16.63 86.3343 16.3233 86.1677 16.13C86.0077 15.9367 85.7543 15.84 85.4077 15.84C85.001 15.84 84.6743 15.9667 84.4277 16.22C84.1877 16.4733 84.0677 16.8133 84.0677 17.24V19.56C84.0677 19.9 83.8977 20.07 83.5577 20.07ZM89.3194 20.06C89.1594 20.06 89.036 20.0133 88.9494 19.92C88.8627 19.82 88.8194 19.6833 88.8194 19.51V15.61C88.8194 15.4367 88.8627 15.3033 88.9494 15.21C89.036 15.1167 89.1594 15.07 89.3194 15.07C89.4794 15.07 89.6027 15.1167 89.6894 15.21C89.7827 15.3033 89.8294 15.4367 89.8294 15.61V19.51C89.8294 19.6833 89.786 19.82 89.6994 19.92C89.6127 20.0133 89.486 20.06 89.3194 20.06ZM89.7094 14.42C89.656 14.5 89.5894 14.5467 89.5094 14.56C89.436 14.5733 89.3627 14.56 89.2894 14.52C89.216 14.48 89.1627 14.4233 89.1294 14.35C89.1027 14.2767 89.1094 14.1967 89.1494 14.11L89.9594 12.54C90.0127 12.4333 90.0794 12.3633 90.1594 12.33C90.246 12.2967 90.3327 12.2933 90.4194 12.32C90.5127 12.34 90.5894 12.38 90.6494 12.44C90.716 12.5 90.756 12.5767 90.7694 12.67C90.7827 12.7567 90.7594 12.8433 90.6994 12.93L89.7094 14.42ZM93.141 20.07C93.001 20.07 92.8777 20.0333 92.771 19.96C92.671 19.8867 92.5877 19.7733 92.521 19.62L90.851 15.74C90.7977 15.62 90.7777 15.5067 90.791 15.4C90.8043 15.2933 90.8543 15.21 90.941 15.15C91.0277 15.0833 91.1443 15.05 91.291 15.05C91.4177 15.05 91.5177 15.08 91.591 15.14C91.6643 15.2 91.731 15.3033 91.791 15.45L93.301 19.17H93.021L94.561 15.45C94.621 15.3033 94.6877 15.2 94.761 15.14C94.841 15.08 94.951 15.05 95.091 15.05C95.211 15.05 95.3043 15.0833 95.371 15.15C95.4443 15.21 95.4877 15.2933 95.501 15.4C95.521 15.5 95.5043 15.61 95.451 15.73L93.761 19.62C93.701 19.7733 93.6177 19.8867 93.511 19.96C93.4043 20.0333 93.281 20.07 93.141 20.07ZM98.6484 20.09C98.1151 20.09 97.6551 19.99 97.2684 19.79C96.8884 19.5833 96.5918 19.2933 96.3784 18.92C96.1718 18.54 96.0684 18.09 96.0684 17.57C96.0684 17.0633 96.1718 16.62 96.3784 16.24C96.5851 15.86 96.8684 15.5633 97.2284 15.35C97.5884 15.1367 97.9984 15.03 98.4584 15.03C98.7984 15.03 99.1018 15.0867 99.3684 15.2C99.6351 15.3067 99.8618 15.4667 100.048 15.68C100.242 15.8867 100.385 16.14 100.478 16.44C100.578 16.74 100.628 17.0767 100.628 17.45C100.628 17.5633 100.595 17.65 100.528 17.71C100.462 17.7633 100.362 17.79 100.228 17.79H96.8684V17.17H99.9484L99.7784 17.31C99.7784 16.9767 99.7284 16.6933 99.6284 16.46C99.5351 16.2267 99.3918 16.05 99.1984 15.93C99.0118 15.8033 98.7784 15.74 98.4984 15.74C98.1851 15.74 97.9184 15.8133 97.6984 15.96C97.4851 16.1067 97.3218 16.31 97.2084 16.57C97.0951 16.83 97.0384 17.1333 97.0384 17.48V17.54C97.0384 18.1267 97.1751 18.57 97.4484 18.87C97.7284 19.1633 98.1318 19.31 98.6584 19.31C98.8584 19.31 99.0684 19.2833 99.2884 19.23C99.5151 19.1767 99.7284 19.0867 99.9284 18.96C100.042 18.8933 100.142 18.8633 100.228 18.87C100.322 18.8767 100.395 18.9067 100.448 18.96C100.508 19.0133 100.545 19.08 100.558 19.16C100.572 19.24 100.558 19.3233 100.518 19.41C100.478 19.49 100.408 19.5633 100.308 19.63C100.082 19.7833 99.8184 19.9 99.5184 19.98C99.2184 20.0533 98.9284 20.09 98.6484 20.09ZM103.3 20.09C102.78 20.09 102.386 19.94 102.12 19.64C101.86 19.3333 101.73 18.8933 101.73 18.32V13.39C101.73 13.2233 101.773 13.0967 101.86 13.01C101.946 12.9233 102.07 12.88 102.23 12.88C102.39 12.88 102.513 12.9233 102.6 13.01C102.693 13.0967 102.74 13.2233 102.74 13.39V18.26C102.74 18.5933 102.806 18.8433 102.94 19.01C103.08 19.17 103.28 19.25 103.54 19.25C103.6 19.25 103.653 19.25 103.7 19.25C103.746 19.2433 103.793 19.2367 103.84 19.23C103.92 19.2233 103.976 19.2467 104.01 19.3C104.043 19.3467 104.06 19.4467 104.06 19.6C104.06 19.74 104.03 19.85 103.97 19.93C103.91 20.0033 103.813 20.05 103.68 20.07C103.62 20.0767 103.556 20.08 103.49 20.08C103.423 20.0867 103.36 20.09 103.3 20.09ZM107.923 20.07C107.763 20.07 107.64 20.0267 107.553 19.94C107.466 19.8467 107.423 19.72 107.423 19.56V15.56C107.423 15.3933 107.466 15.2667 107.553 15.18C107.64 15.0933 107.76 15.05 107.913 15.05C108.073 15.05 108.193 15.0933 108.273 15.18C108.36 15.2667 108.403 15.3933 108.403 15.56V16.34L108.293 16.16C108.44 15.7867 108.67 15.5067 108.983 15.32C109.296 15.1267 109.656 15.03 110.063 15.03C110.45 15.03 110.77 15.1033 111.023 15.25C111.283 15.39 111.476 15.6067 111.603 15.9C111.73 16.1867 111.793 16.55 111.793 16.99V19.56C111.793 19.72 111.75 19.8467 111.663 19.94C111.576 20.0267 111.453 20.07 111.293 20.07C111.126 20.07 111 20.0267 110.913 19.94C110.826 19.8467 110.783 19.72 110.783 19.56V17.05C110.783 16.63 110.7 16.3233 110.533 16.13C110.373 15.9367 110.12 15.84 109.773 15.84C109.366 15.84 109.04 15.9667 108.793 16.22C108.553 16.4733 108.433 16.8133 108.433 17.24V19.56C108.433 19.9 108.263 20.07 107.923 20.07ZM115.305 20.09C114.811 20.09 114.385 19.9867 114.025 19.78C113.671 19.5733 113.395 19.28 113.195 18.9C112.995 18.52 112.895 18.0733 112.895 17.56C112.895 17.1667 112.951 16.8167 113.065 16.51C113.178 16.2033 113.338 15.94 113.545 15.72C113.758 15.4933 114.011 15.3233 114.305 15.21C114.605 15.09 114.938 15.03 115.305 15.03C115.791 15.03 116.211 15.1333 116.565 15.34C116.925 15.5467 117.205 15.84 117.405 16.22C117.605 16.5933 117.705 17.04 117.705 17.56C117.705 17.9467 117.648 18.2967 117.535 18.61C117.421 18.9233 117.258 19.19 117.045 19.41C116.838 19.63 116.585 19.8 116.285 19.92C115.991 20.0333 115.665 20.09 115.305 20.09ZM115.305 19.31C115.578 19.31 115.818 19.2433 116.025 19.11C116.231 18.9767 116.391 18.78 116.505 18.52C116.625 18.26 116.685 17.94 116.685 17.56C116.685 16.9867 116.558 16.5533 116.305 16.26C116.051 15.9667 115.718 15.82 115.305 15.82C115.025 15.82 114.781 15.8867 114.575 16.02C114.368 16.1467 114.205 16.34 114.085 16.6C113.971 16.86 113.915 17.18 113.915 17.56C113.915 18.1267 114.041 18.56 114.295 18.86C114.548 19.16 114.885 19.31 115.305 19.31Z" fill="#003F99" style="fill:#003F99;fill:color(display-p3 0.0000 0.2471 0.6000);fill-opacity:1;"/>
<path d="M61.7673 34.1319C60.6969 34.1319 59.7935 33.9286 59.057 33.522C58.3205 33.1154 57.7616 32.534 57.3804 31.778C56.9992 31.022 56.8086 30.122 56.8086 29.0779C56.8086 28.2939 56.9182 27.5899 57.1375 26.9659C57.3567 26.3419 57.6752 25.8096 58.093 25.369C58.5108 24.9284 59.0209 24.5897 59.6233 24.3531C60.2257 24.1164 60.9087 23.9981 61.6723 23.9981C62.2328 23.9981 62.7828 24.0712 63.3222 24.2175C63.8617 24.3637 64.3554 24.6024 64.8031 24.9334C64.9321 25.0226 65.0162 25.129 65.0554 25.2527C65.0946 25.3764 65.0975 25.5011 65.0642 25.6267C65.0309 25.7524 64.9711 25.8604 64.8846 25.9508C64.7981 26.0412 64.6914 26.0957 64.5644 26.1143C64.4374 26.1328 64.2994 26.0975 64.1505 26.0083C63.7824 25.7517 63.3981 25.566 62.9976 25.451C62.5972 25.3361 62.1541 25.2786 61.6683 25.2786C60.9452 25.2786 60.3336 25.4271 59.8333 25.724C59.333 26.021 58.9564 26.4517 58.7036 27.0162C58.4507 27.5807 58.3243 28.2679 58.3243 29.0779C58.3243 30.315 58.6172 31.2565 59.2029 31.9024C59.7887 32.5483 60.662 32.8713 61.823 32.8713C62.2395 32.8713 62.6512 32.8305 63.0582 32.7491C63.4652 32.6677 63.856 32.5549 64.2308 32.4108L63.9335 33.1318V29.8745H62.1384C61.9455 29.8745 61.7969 29.824 61.6925 29.7229C61.5881 29.6218 61.5359 29.4861 61.5359 29.3159C61.5359 29.139 61.5881 29.004 61.6925 28.9109C61.7969 28.8178 61.9455 28.7713 62.1384 28.7713H64.5577C64.7506 28.7713 64.8992 28.8235 65.0036 28.9279C65.108 29.0323 65.1602 29.1809 65.1602 29.3738V32.9134C65.1602 33.081 65.1286 33.2226 65.0655 33.3383C65.0024 33.454 64.8997 33.5391 64.7574 33.5937C64.3602 33.7484 63.8916 33.8768 63.3515 33.9788C62.8114 34.0809 62.2834 34.1319 61.7673 34.1319ZM70.1891 34.1319C69.5067 34.1319 68.9144 33.9872 68.4119 33.6979C67.9095 33.4086 67.5197 32.9976 67.2425 32.465C66.9653 31.9324 66.8267 31.3047 66.8267 30.5821C66.8267 30.0369 66.905 29.5479 67.0616 29.1153C67.2182 28.6826 67.4444 28.3106 67.7403 27.9993C68.0361 27.688 68.3906 27.4507 68.8038 27.2873C69.2169 27.124 69.6787 27.0423 70.1891 27.0423C70.8714 27.0423 71.4638 27.187 71.9662 27.4763C72.4687 27.7657 72.8585 28.175 73.1356 28.7043C73.4128 29.2336 73.5514 29.8595 73.5514 30.5821C73.5514 31.1274 73.4731 31.618 73.3165 32.054C73.16 32.49 72.9337 32.8636 72.6379 33.1749C72.342 33.4862 71.9882 33.7236 71.5764 33.8869C71.1646 34.0502 70.7022 34.1319 70.1891 34.1319ZM70.1891 33.0286C70.5776 33.0286 70.9174 32.9352 71.2084 32.7483C71.4994 32.5614 71.7247 32.2861 71.8842 31.9224C72.0437 31.5586 72.1235 31.1119 72.1235 30.5821C72.1235 29.7815 71.9479 29.1752 71.5969 28.7634C71.2458 28.3515 70.7765 28.1456 70.1891 28.1456C69.8006 28.1456 69.4608 28.2374 69.1698 28.421C68.8787 28.6046 68.6535 28.8775 68.494 29.2399C68.3345 29.6023 68.2547 30.0497 68.2547 30.5821C68.2547 31.3762 68.4309 31.9824 68.7833 32.4009C69.1357 32.8194 69.6043 33.0286 70.1891 33.0286ZM78.0991 34.1319C77.4167 34.1319 76.8244 33.9872 76.3219 33.6979C75.8195 33.4086 75.4297 32.9976 75.1525 32.465C74.8753 31.9324 74.7367 31.3047 74.7367 30.5821C74.7367 30.0369 74.815 29.5479 74.9716 29.1153C75.1282 28.6826 75.3544 28.3106 75.6503 27.9993C75.9461 27.688 76.3006 27.4507 76.7138 27.2873C77.1269 27.124 77.5887 27.0423 78.0991 27.0423C78.7814 27.0423 79.3738 27.187 79.8762 27.4763C80.3786 27.7657 80.7685 28.175 81.0456 28.7043C81.3228 29.2336 81.4614 29.8595 81.4614 30.5821C81.4614 31.1274 81.3831 31.618 81.2265 32.054C81.07 32.49 80.8437 32.8636 80.5479 33.1749C80.252 33.4862 79.8982 33.7236 79.4864 33.8869C79.0746 34.0502 78.6122 34.1319 78.0991 34.1319ZM78.0991 33.0286C78.4876 33.0286 78.8274 32.9352 79.1184 32.7483C79.4094 32.5614 79.6347 32.2861 79.7942 31.9224C79.9537 31.5586 80.0335 31.1119 80.0335 30.5821C80.0335 29.7815 79.8579 29.1752 79.5068 28.7634C79.1558 28.3515 78.6865 28.1456 78.0991 28.1456C77.7106 28.1456 77.3708 28.2374 77.0798 28.421C76.7887 28.6046 76.5635 28.8775 76.404 29.2399C76.2445 29.6023 76.1647 30.0497 76.1647 30.5821C76.1647 31.3762 76.3409 31.9824 76.6933 32.4009C77.0457 32.8194 77.5143 33.0286 78.0991 33.0286ZM86.1439 36.6519C85.6426 36.6519 85.1562 36.5985 84.6849 36.4917C84.2136 36.3848 83.7866 36.2186 83.4039 35.9929C83.2644 35.9157 83.171 35.8226 83.1238 35.7136C83.0767 35.6045 83.0641 35.4944 83.086 35.3834C83.108 35.2723 83.1566 35.1743 83.2318 35.0891C83.3069 35.004 83.3984 34.9475 83.5061 34.9196C83.6138 34.8917 83.7256 34.9097 83.8413 34.9736C84.2519 35.2032 84.643 35.3565 85.0143 35.4333C85.3857 35.5102 85.7304 35.5486 86.0484 35.5486C86.6953 35.5486 87.1825 35.3835 87.51 35.0531C87.8376 34.7228 88.0013 34.2387 88.0013 33.6009V32.1668H88.1314C87.9941 32.6779 87.7004 33.0839 87.2503 33.3848C86.8002 33.6856 86.283 33.836 85.6987 33.836C85.08 33.836 84.542 33.6937 84.0847 33.409C83.6273 33.1244 83.2734 32.7261 83.0227 32.2141C82.7721 31.7021 82.6467 31.1081 82.6467 30.4322C82.6467 29.9216 82.7184 29.4593 82.8617 29.0453C83.005 28.6313 83.2097 28.2756 83.4757 27.9783C83.7417 27.681 84.063 27.4507 84.4397 27.2873C84.8163 27.124 85.236 27.0423 85.6987 27.0423C86.2963 27.0423 86.8168 27.1928 87.2602 27.4936C87.7037 27.7945 87.9907 28.1971 88.1214 28.7016L87.9774 28.9504V27.7863C87.9774 27.551 88.0395 27.3728 88.1638 27.2518C88.2881 27.1308 88.46 27.0703 88.6794 27.0703C88.9054 27.0703 89.0789 27.1308 89.1999 27.2518C89.3209 27.3728 89.3814 27.551 89.3814 27.7863V33.4233C89.3814 34.4935 89.1063 35.2991 88.5561 35.8402C88.0058 36.3813 87.2018 36.6519 86.1439 36.6519ZM86.033 32.7328C86.4375 32.7328 86.7853 32.6393 87.0763 32.4524C87.3673 32.2655 87.5926 31.9996 87.7521 31.6545C87.9116 31.3095 87.9914 30.902 87.9914 30.4322C87.9914 29.7261 87.8152 29.1685 87.4627 28.7593C87.1103 28.3502 86.6337 28.1456 86.033 28.1456C85.6312 28.1456 85.2842 28.2384 84.9918 28.4239C84.6994 28.6095 84.4735 28.8724 84.314 29.2128C84.1545 29.5532 84.0747 29.9597 84.0747 30.4322C84.0747 31.1383 84.2509 31.6982 84.6033 32.112C84.9557 32.5259 85.4323 32.7328 86.033 32.7328ZM93.5573 34.1319C92.8366 34.1319 92.2904 33.9197 91.9186 33.4952C91.5468 33.0708 91.361 32.4549 91.361 31.6475V24.7421C91.361 24.5068 91.4215 24.3286 91.5425 24.2076C91.6635 24.0866 91.837 24.0261 92.063 24.0261C92.289 24.0261 92.4642 24.0866 92.5885 24.2076C92.7128 24.3286 92.7749 24.5068 92.7749 24.7421V31.5595C92.7749 32.0293 92.872 32.3783 93.0662 32.6066C93.2603 32.8349 93.5389 32.949 93.9019 32.949C93.9819 32.949 94.0546 32.946 94.12 32.94C94.1853 32.934 94.2506 32.9276 94.316 32.921C94.4304 32.9077 94.5103 32.9367 94.5556 33.0078C94.601 33.0789 94.6236 33.2228 94.6236 33.4395C94.6236 33.6351 94.5823 33.786 94.4998 33.8924C94.4173 33.9988 94.2808 34.066 94.0904 34.094C94.0052 34.1033 93.9173 34.1119 93.8268 34.1199C93.7363 34.1279 93.6464 34.1319 93.5573 34.1319ZM98.787 34.1319C98.0421 34.1319 97.4004 33.9886 96.862 33.702C96.3235 33.4153 95.9081 33.008 95.6155 32.4801C95.323 31.9521 95.1767 31.3255 95.1767 30.6002C95.1767 29.8909 95.3197 29.2709 95.6056 28.7402C95.8915 28.2096 96.2867 27.7939 96.7912 27.4933C97.2957 27.1927 97.8725 27.0423 98.5217 27.0423C98.9935 27.0423 99.4164 27.1203 99.7902 27.2763C100.164 27.4323 100.483 27.6569 100.748 27.9501C101.012 28.2434 101.214 28.599 101.353 29.0169C101.493 29.4348 101.562 29.9058 101.562 30.4297C101.562 30.5842 101.514 30.7017 101.416 30.7823C101.318 30.8628 101.178 30.9031 100.996 30.9031H96.2911V30.0368H100.598L100.37 30.2347C100.37 29.7649 100.3 29.3684 100.162 29.0453C100.024 28.7223 99.8226 28.4743 99.5576 28.3014C99.2926 28.1285 98.9626 28.0421 98.5674 28.0421C98.1322 28.0421 97.7621 28.1439 97.4571 28.3474C97.1521 28.551 96.9205 28.834 96.7623 29.1964C96.6042 29.5588 96.5251 29.9835 96.5251 30.4705V30.5604C96.5251 31.3743 96.7196 31.9892 97.1086 32.4049C97.4976 32.8207 98.061 33.0286 98.7988 33.0286C99.0793 33.0286 99.3746 32.9929 99.6846 32.9214C99.9947 32.85 100.292 32.7247 100.576 32.5457C100.734 32.4499 100.877 32.4063 101.003 32.4149C101.129 32.4235 101.231 32.4657 101.309 32.5415C101.387 32.6173 101.436 32.7107 101.456 32.8217C101.476 32.9328 101.459 33.0475 101.403 33.1659C101.348 33.2843 101.25 33.3881 101.109 33.4773C100.793 33.6934 100.424 33.8565 100 33.9667C99.5771 34.0768 99.1726 34.1319 98.787 34.1319ZM107.675 34.1039C107.442 34.1039 107.264 34.0378 107.139 33.9055C107.015 33.7732 106.953 33.5907 106.953 33.358V24.8659C106.953 24.6239 107.017 24.4408 107.146 24.3165C107.275 24.1922 107.456 24.13 107.689 24.13H111.03C112.1 24.13 112.923 24.3939 113.5 24.9218C114.077 25.4496 114.366 26.1908 114.366 27.1452C114.366 28.0997 114.077 28.8425 113.5 29.3737C112.923 29.9048 112.1 30.1704 111.03 30.1704H108.397V33.358C108.397 33.5907 108.337 33.7732 108.217 33.9055C108.098 34.0378 107.917 34.1039 107.675 34.1039ZM108.397 29.0074H110.827C111.53 29.0074 112.059 28.8496 112.417 28.5339C112.775 28.2181 112.954 27.7553 112.954 27.1452C112.954 26.5352 112.775 26.074 112.417 25.7616C112.059 25.4492 111.53 25.293 110.827 25.293H108.397V29.0074ZM117.973 34.1319C117.253 34.1319 116.706 33.9197 116.335 33.4952C115.963 33.0708 115.777 32.4549 115.777 31.6475V24.7421C115.777 24.5068 115.837 24.3286 115.958 24.2076C116.079 24.0866 116.253 24.0261 116.479 24.0261C116.705 24.0261 116.88 24.0866 117.004 24.2076C117.129 24.3286 117.191 24.5068 117.191 24.7421V31.5595C117.191 32.0293 117.288 32.3783 117.482 32.6066C117.676 32.8349 117.955 32.949 118.318 32.949C118.398 32.949 118.471 32.946 118.536 32.94C118.601 32.934 118.667 32.9276 118.732 32.921C118.846 32.9077 118.926 32.9367 118.972 33.0078C119.017 33.0789 119.04 33.2228 119.04 33.4395C119.04 33.6351 118.998 33.786 118.916 33.8924C118.833 33.9988 118.697 34.066 118.506 34.094C118.421 34.1033 118.333 34.1119 118.243 34.1199C118.152 34.1279 118.062 34.1319 117.973 34.1319ZM122.254 34.1319C121.776 34.1319 121.348 34.0383 120.97 33.851C120.592 33.6637 120.295 33.4101 120.08 33.0902C119.865 32.7703 119.757 32.4104 119.757 32.0105C119.757 31.5065 119.886 31.1088 120.143 30.8175C120.4 30.5262 120.825 30.3173 121.417 30.1907C122.009 30.064 122.809 30.0007 123.817 30.0007H124.481V30.867H123.835C123.157 30.867 122.621 30.8984 122.229 30.9611C121.836 31.0239 121.559 31.1324 121.399 31.2866C121.238 31.4408 121.157 31.6568 121.157 31.9346C121.157 32.2831 121.279 32.5681 121.522 32.7898C121.765 33.0114 122.099 33.1222 122.525 33.1222C122.868 33.1222 123.171 33.0405 123.433 32.8769C123.695 32.7133 123.903 32.49 124.057 32.207C124.21 31.924 124.287 31.6002 124.287 31.2358V29.6298C124.287 29.1038 124.176 28.7232 123.955 28.4882C123.733 28.2532 123.366 28.1357 122.854 28.1357C122.554 28.1357 122.243 28.1737 121.922 28.2499C121.602 28.326 121.265 28.4515 120.911 28.6263C120.761 28.6996 120.629 28.7215 120.515 28.6923C120.401 28.6631 120.312 28.6009 120.249 28.5058C120.185 28.4108 120.151 28.3047 120.147 28.1876C120.143 28.0706 120.17 27.9559 120.23 27.8435C120.29 27.7311 120.393 27.6463 120.537 27.589C120.953 27.3955 121.362 27.256 121.762 27.1705C122.163 27.0851 122.537 27.0423 122.886 27.0423C123.512 27.0423 124.028 27.141 124.433 27.3382C124.839 27.5354 125.142 27.8343 125.342 28.2348C125.541 28.6353 125.641 29.15 125.641 29.7791V33.3779C125.641 33.6106 125.585 33.7898 125.472 33.9154C125.359 34.0411 125.196 34.1039 124.983 34.1039C124.77 34.1039 124.605 34.0411 124.488 33.9154C124.37 33.7898 124.311 33.6106 124.311 33.3779V32.4752H124.435C124.362 32.8153 124.225 33.1091 124.024 33.3566C123.823 33.604 123.573 33.7951 123.275 33.9298C122.976 34.0645 122.636 34.1319 122.254 34.1319ZM129.128 36.6239C128.957 36.6239 128.819 36.579 128.713 36.4892C128.606 36.3994 128.545 36.2807 128.528 36.1331C128.512 35.9854 128.537 35.8311 128.605 35.6702L129.561 33.5238V34.1223L126.94 28.038C126.87 27.8651 126.846 27.7054 126.868 27.5591C126.891 27.4129 126.961 27.2948 127.079 27.205C127.196 27.1152 127.358 27.0703 127.564 27.0703C127.741 27.0703 127.882 27.1112 127.987 27.193C128.092 27.2749 128.187 27.4228 128.27 27.6367L130.383 32.8487H129.987L132.134 27.6268C132.218 27.4167 132.316 27.2715 132.427 27.191C132.539 27.1106 132.691 27.0703 132.884 27.0703C133.057 27.0703 133.193 27.1152 133.291 27.205C133.389 27.2948 133.449 27.4112 133.47 27.5542C133.492 27.6972 133.464 27.8538 133.387 28.024L129.891 36.0734C129.794 36.2861 129.689 36.4311 129.576 36.5082C129.463 36.5853 129.314 36.6239 129.128 36.6239Z" fill="#003F99" style="fill:#003F99;fill:color(display-p3 0.0000 0.2471 0.6000);fill-opacity:1;"/>
<defs>
<clipPath id="clip0_6279_612">
<rect width="24" height="24" fill="white" style="fill:white;fill-opacity:1;" transform="translate(20 12)"/>
</clipPath>
</defs>
</svg>
