<svg width="36" height="36" viewBox="0 0 36 36" fill="none" xmlns="http://www.w3.org/2000/svg">
<rect width="36" height="36" rx="18" fill="#95EB1D" style="fill:#95EB1D;fill:color(display-p3 0.5843 0.9216 0.1137);fill-opacity:1;"/>
<path d="M12 19.3333H14C14.7359 19.3333 15.3333 19.9308 15.3333 20.6667V22.6667C15.3333 23.4026 14.7359 24 14 24H13.3333C12.5974 24 12 23.4026 12 22.6667V18C12 14.6885 14.6885 12 18 12C21.3115 12 24 14.6885 24 18V22.6667C24 23.4026 23.4026 24 22.6667 24H22C21.2641 24 20.6667 23.4026 20.6667 22.6667V20.6667C20.6667 19.9308 21.2641 19.3333 22 19.3333H24" stroke="#122AD5" style="stroke:#122AD5;stroke:color(display-p3 0.0706 0.1647 0.8353);stroke-opacity:1;" stroke-width="1.33333" stroke-linecap="round" stroke-linejoin="round"/>
</svg>
