<svg width="27" height="27" viewBox="0 0 27 27" fill="none" xmlns="http://www.w3.org/2000/svg">
<path d="M22.6663 9.19569H17.3638V3.96552C17.3638 1.775 15.5642 0 13.3434 0C11.1225 0 9.32296 1.775 9.32296 3.96552V9.19569H4.0204C1.79957 9.19569 0 10.9707 0 13.1612C0 15.3517 1.79957 17.1267 4.0204 17.1267H9.32296V22.3569C9.32296 24.5474 11.1225 26.3224 13.3434 26.3224C15.5642 26.3224 17.3638 24.5474 17.3638 22.3569V17.1267H22.6663C24.8872 17.1267 26.6867 15.3517 26.6867 13.1612C26.6867 10.9707 24.8872 9.19569 22.6663 9.19569Z" fill="#95EB1D" style="fill:#95EB1D;fill:color(display-p3 0.5843 0.9216 0.1137);fill-opacity:1;"/>
</svg>
