<svg width="36" height="36" viewBox="0 0 36 36" fill="none" xmlns="http://www.w3.org/2000/svg">
<rect width="36" height="36" rx="18" fill="#95EB1D" style="fill:#95EB1D;fill:color(display-p3 0.5843 0.9216 0.1137);fill-opacity:1;"/>
<path d="M12.667 19.3333C12.4095 19.3342 12.1745 19.1867 12.0634 18.9544C11.9522 18.7221 11.9848 18.4466 12.147 18.2466L18.747 11.4466C18.849 11.3289 19.0188 11.2975 19.1561 11.371C19.2935 11.4444 19.3616 11.6031 19.3203 11.7533L18.0403 15.7666C17.9637 15.9717 17.9926 16.2013 18.1177 16.3809C18.2428 16.5606 18.4481 16.6673 18.667 16.6666H23.3337C23.5912 16.6658 23.8261 16.8132 23.9373 17.0455C24.0484 17.2778 24.0159 17.5533 23.8537 17.7533L17.2537 24.5533C17.1517 24.671 16.9818 24.7024 16.8445 24.629C16.7072 24.5555 16.639 24.3968 16.6803 24.2466L17.9603 20.2333C18.0369 20.0282 18.008 19.7986 17.8829 19.619C17.7579 19.4394 17.5526 19.3326 17.3337 19.3333H12.667" stroke="#003F99" style="stroke:#003F99;stroke:color(display-p3 0.0000 0.2471 0.6000);stroke-opacity:1;" stroke-width="1.33333" stroke-linecap="round" stroke-linejoin="round"/>
</svg>
