<svg width="317" height="55" viewBox="0 0 317 55" fill="none" xmlns="http://www.w3.org/2000/svg">
<g clip-path="url(#clip0_6279_521)">
<path d="M98.5595 46.7826C95.691 42.6369 95.5241 36.6619 97.2389 32.0007C98.0849 29.7015 99.8277 27.03 102.079 26.0196C103.474 25.3938 104.956 25.186 106.481 25.1636L108.773 25.13L108.757 21.5903C108.753 20.7084 108.718 19.8403 108.43 19.0102C108.305 18.6541 107.882 18.5239 107.484 18.5119L107.391 16.6808L115.547 15.0774L115.56 28.6248L115.578 46.7153C115.578 47.2403 116.033 47.7533 116.361 48.0783C116.59 48.3058 116.981 48.2783 117.308 48.2938L117.302 50.0593L104.058 50.0127C102.528 50.0076 101.067 49.2438 99.9378 48.3395C99.3688 47.8834 98.9554 47.3541 98.5586 46.7817L98.5595 46.7826ZM108.16 45.6946C108.314 45.5636 108.474 45.1834 108.497 44.9912L108.759 42.7593L108.783 29.5326C106.985 29.1696 105.452 30.0981 104.707 31.6662C104.204 32.7265 103.886 33.8455 103.757 35.0291C103.525 37.1731 103.504 39.2964 103.811 41.4326C104.01 42.8179 104.458 44.1015 105.246 45.2145C105.924 46.1739 107.218 46.4886 108.16 45.6946Z" fill="white" style="fill:white;fill-opacity:1;"/>
<path d="M15.796 46.9201C15.9559 47.7166 16.9112 48.0657 17.8167 48.177L17.8141 50.0571L6.45117 50.0545L6.45991 48.1519C7.1224 48.0511 7.59524 47.6459 7.7176 47.0382C7.87142 46.2778 7.99466 45.5571 7.99553 44.739V22.5201C7.99553 21.7157 7.88628 21.0149 7.76916 20.2588C7.66254 19.5735 7.18533 19.0778 6.45467 18.9563V17.0442L22.6062 17.0951C23.9478 17.0994 25.2116 17.5588 26.2508 18.3123C26.9543 18.8235 27.3782 19.5606 27.5976 20.3882C28.4559 23.6269 27.574 27.0028 25.3654 29.5356C22.7994 32.4356 19.1749 34.1071 15.4674 35.3597L15.4778 44.4166C15.4787 45.2873 15.6291 46.089 15.796 46.9192V46.9201ZM19.4781 27.1123C20.1975 25.6813 20.4028 24.0907 19.9519 22.5537C19.5087 21.0442 17.939 20.8166 16.4008 21.1011C15.553 21.2571 15.4464 22.4356 15.4499 23.4166L15.47 30.6778C17.0432 29.7364 18.4696 28.7321 19.4781 27.1123Z" fill="white" style="fill:white;fill-opacity:1;"/>
<path d="M62.2161 43.0368C61.079 47.1963 57.9842 50.4248 53.5207 50.7584C50.3847 50.9929 47.4551 50.1454 45.3549 47.7868C44.1959 46.486 43.3621 44.9808 42.878 43.2842C41.8606 39.7213 41.8265 35.9644 42.7573 32.3834C43.3027 30.2868 44.3157 28.4179 45.8731 26.9308C48.6131 24.3153 52.8922 23.8549 56.3778 25.1713C58.3958 25.9334 60.1465 27.6937 61.1463 29.5748C63.2212 33.4799 63.368 38.8265 62.217 43.036L62.2161 43.0368ZM54.0188 45.7394C54.9995 44.4015 55.3665 42.3515 55.4566 40.6877C55.5903 38.2049 55.4854 35.7635 55.093 33.3101C54.8911 32.0489 54.5345 30.8696 53.8764 29.8092C53.3869 29.0196 52.4509 28.5627 51.597 29.0213C50.4232 29.6523 49.7782 31.9567 49.6445 33.3635C49.3368 36.6067 49.2634 43.961 51.6022 45.9972C52.3582 46.6549 53.4105 46.5704 54.0188 45.7403V45.7394Z" fill="white" style="fill:white;fill-opacity:1;"/>
<path d="M132.817 45.4878C134.597 44.4137 135.534 41.9042 136.047 39.8809L137.563 40.2602L135.48 50.3981C134.267 50.28 133.167 50.3706 132.038 50.5904L129.638 50.8542C126.699 50.8947 123.915 49.7766 121.922 47.6507C120.497 46.1318 119.474 44.3783 118.873 42.3826C117.296 37.1421 118.056 30.449 122.332 26.6973C124.811 24.5214 128.402 23.849 131.512 25.0361C132.967 25.5912 134.042 26.668 134.9 27.9042C135.577 28.9809 136.179 30.0352 136.546 31.2481L137.508 34.4266L125.721 38.5223C125.982 40.7852 126.578 43.1024 128.191 44.7775C129.391 46.0421 131.307 46.4016 132.818 45.4895L132.817 45.4878ZM125.502 34.8602L130.309 33.1559C130.164 31.6826 129.556 29.0404 128.222 28.8085C127.7 28.718 127.234 28.855 126.868 29.2068C125.985 30.0524 125.419 31.8887 125.45 33.0033L125.503 34.8602H125.502Z" fill="white" style="fill:white;fill-opacity:1;"/>
<path d="M83.8301 46.2535L78.7408 50.644C78.5372 50.8198 78.1937 51.0983 77.9533 50.7905C77.6291 50.375 77.6562 49.6983 77.8677 49.1983C78.6482 47.3517 79.433 45.5802 80.0518 43.6716L81.5979 38.9C83.4123 32.919 84.8352 26.8879 85.8814 20.7276L86.647 15.6431C85.5143 15.0655 84.7513 14.0681 84.7417 12.825C84.7321 11.581 85.5143 10.5207 86.5535 10.05C87.7299 9.51898 89.0444 9.70518 90.0067 10.5474C90.878 11.3104 91.1979 12.4664 90.9078 13.6009C90.6499 14.6129 89.8214 15.4836 88.6826 15.794L89.7506 22.8052L90.7767 28.3345C92.2074 35.4569 94.4317 42.3388 97.4296 48.9552C97.8281 49.8345 97.7459 50.7285 97.4409 50.8061C97.3561 50.8276 97.1717 50.7828 97.0564 50.7414L91.5475 46.3862L87.6976 52.3302L83.8301 46.2535ZM86.5421 28.119L87.0613 27.3716V22.3104L86.0509 27.2931L86.5421 28.119ZM88.8128 28.1198L89.2375 27.119L88.3059 22.7233L88.2333 27.3974L88.8128 28.1198ZM85.7153 35.094L86.9721 33.0845L86.2301 31.3L84.9322 33.4923L85.7153 35.094ZM89.6571 34.9293L90.3344 33.3423L89.1624 31.5035L88.3801 32.9888L89.6571 34.9293ZM84.767 36.1164L84.219 35.1198L83.5819 37.6776L84.7679 36.1164H84.767ZM91.7398 37.6655L91.0791 35.1216L90.4638 36.2836L91.7398 37.6655ZM86.9809 38.4474L87.022 35.4552L86.1296 36.6431L86.9817 38.4474H86.9809ZM89.1466 36.6466L88.2726 35.4216L88.284 38.4612L89.1466 36.6466ZM84.226 44.0879L86.7397 41.4974L85.1551 37.7862L82.5139 41.7673L84.226 44.0879ZM91.2976 44.2698L92.8017 41.6483L90.1037 37.8509L88.5008 41.7026L91.2976 44.2707V44.2698ZM95.2568 47.2216L93.5971 42.9905L92.4189 44.9181L95.2568 47.2216ZM83.0103 45.0871L81.6888 43.0811L80.0317 47.3629L83.0103 45.0879V45.0871ZM86.9861 48.8293L87.0875 43.5405L84.7854 45.4181L86.9861 48.8302V48.8293ZM90.3842 45.4724L88.3356 43.5604L88.3181 48.6966L90.3851 45.4716L90.3842 45.4724Z" fill="white" style="fill:white;fill-opacity:1;"/>
<path d="M79.6463 29.075L78.9322 31.15L76.0751 42.0517L74.987 46.4405C74.8087 47.1595 75.119 47.8784 75.611 48.4138L75.6337 50.0552H67.9758L67.9889 48.4233C68.3551 48.0267 68.7143 47.544 68.5884 46.9853L67.7275 43.1724L64.5217 30.2353C64.3084 29.3759 64.0427 28.6034 63.6678 27.8336C63.4222 27.3284 62.9616 27.031 62.3891 26.9233L62.3848 25.144H72.5092L72.5144 26.9741C72.0049 26.9103 71.623 27.1422 71.4604 27.5974C71.3625 28.0465 71.2742 28.5241 71.3809 29L73.6533 39.1802L76.0541 29.2974C76.1739 28.1905 76.0865 27.0509 75.0499 26.95L75.0027 25.1457L81.7063 25.1396L81.7351 26.9241C80.6531 27.0517 80.0011 28.044 79.6463 29.0741V29.075Z" fill="white" style="fill:white;fill-opacity:1;"/>
<path d="M37.9272 50.0545H27.7154L27.6996 48.3139C28.4749 48.2984 29.0613 47.8183 29.1618 47.0846L29.3357 45.8174V30.5372C29.3357 29.9941 29.1977 29.4829 29.1216 28.9743C29.0106 28.2303 28.4146 27.6786 27.6166 27.6174L27.5449 25.8717L35.2562 25.1131C35.632 26.3053 35.8296 27.4174 36.0271 28.6726C36.6808 27.6476 37.2787 26.6605 38.1894 25.8872C39.0424 25.1631 40.0868 24.72 41.2257 24.8269L42.7517 25.0708L41.4188 32.6019C40.8044 32.1277 40.2232 31.695 39.5406 31.3553C38.629 30.9027 37.5487 31.1079 37.0077 32.0019C36.7822 32.3751 36.5594 32.8553 36.4894 33.2984C36.2867 34.5889 36.1416 35.8251 36.1407 37.1433L36.1355 44.5855C36.1355 45.32 36.2438 46.0114 36.3671 46.7191C36.5113 47.5458 37.0811 48.1355 37.9263 48.3424L37.9289 50.0527L37.9272 50.0545Z" fill="white" style="fill:white;fill-opacity:1;"/>
<path d="M148.643 50.0517L138.429 50.0569L138.421 48.3189C139.733 48.2784 140.037 47.0232 140.037 45.7344L140.035 30.4543C140.035 29.0836 139.67 27.6862 138.308 27.6163L138.229 25.8758L145.957 25.1137C146.344 26.2724 146.54 27.4336 146.741 28.6896C147.868 26.7517 149.391 24.7439 151.704 24.7853L153.475 25.0689L152.121 32.6043C151.511 32.1344 150.946 31.6905 150.27 31.362C149.493 30.9844 148.536 31.0422 147.947 31.7077C147.661 32.0319 147.391 32.5215 147.301 32.956C147.062 34.106 146.879 35.2146 146.874 36.4008L146.844 44.5827C146.84 45.506 146.954 46.4025 147.246 47.2525C147.447 47.8405 148.008 48.1396 148.625 48.3293L148.641 50.0517H148.643Z" fill="white" style="fill:white;fill-opacity:1;"/>
<path d="M233.596 39.2106L225.811 39.2899L225.776 47.4994C225.526 48.514 224.674 49.2157 223.637 49.3373L221.268 49.2968C220.225 49.2787 219.335 48.2166 219.336 47.1433L219.351 25.6433C219.351 24.5054 220.548 23.5304 221.634 23.5313L235.993 23.5442C237.399 23.545 238.303 24.9433 238.246 26.2028C238.186 27.5425 237.302 28.5364 235.957 28.6511H225.806L225.813 34.4485L233.535 34.4545C234.75 34.6606 235.59 35.6011 235.625 36.7881C235.655 37.8502 234.856 39.1994 233.596 39.2114V39.2106Z" fill="white" style="fill:white;fill-opacity:1;"/>
<path d="M243.58 49.2015C241.916 49.3248 240.275 48.136 240.272 46.4722L240.248 33.9067L240.258 26.0498C240.508 24.9869 241.327 24.1834 242.238 23.855C243.373 23.4541 244.53 23.6748 245.424 24.4343C245.956 24.8869 246.431 25.5808 246.43 26.3351L246.405 46.5851C246.404 48.0274 244.986 49.0981 243.579 49.2015H243.58Z" fill="white" style="fill:white;fill-opacity:1;"/>
<path d="M270.037 44.0768C269.277 46.5208 267.245 48.238 264.783 48.776C263.809 48.9889 262.914 49.201 261.9 49.1984L250.755 49.1716C249.509 49.1691 248.426 47.8346 248.43 46.3475L248.483 25.9268C248.487 24.7423 249.735 23.6751 250.882 23.6751L261.909 23.6699C263.421 23.6699 264.885 23.9984 266.183 24.6673C268.911 26.0716 270.186 29.0561 269.364 31.951C268.763 34.0639 267.098 35.1829 264.99 35.888C265.876 36.1811 266.763 36.438 267.563 36.9811C269.861 38.5406 270.871 41.3906 270.036 44.0777L270.037 44.0768ZM262.781 29.4397L262.01 28.5423C261.264 28.2829 260.521 28.1975 259.724 28.1958L254.647 28.1872L254.667 33.8053L258.97 33.8113C259.778 33.7984 260.544 33.7027 261.322 33.5527C263.125 33.1397 263.686 30.4958 262.78 29.4397H262.781ZM263.18 43.2829C264.324 41.7846 263.934 39.8415 262.374 38.8458C261.75 38.5785 261.103 38.4182 260.399 38.3285L254.65 38.3303L254.665 44.4001L260.313 44.4165L261.652 44.1966C262.245 44.0992 262.808 43.7708 263.181 43.282L263.18 43.2829Z" fill="white" style="fill:white;fill-opacity:1;"/>
<path d="M288.205 49.1711C287.369 49.1582 286.788 48.4668 286.471 47.7798L282.981 39.078L278.589 39.0815V47.3263C278.35 48.4806 277.366 49.2617 276.182 49.2237L274.137 49.1582C273.266 49.1306 272.332 48.2255 272.332 47.2427L272.326 25.7668C272.326 24.591 273.389 23.6427 274.517 23.6436L284.565 23.6453C285.955 23.6453 287.27 23.8263 288.578 24.2005C291.959 25.1686 293.878 28.5565 293.605 31.9591C293.397 34.8479 291.704 36.7315 289.061 37.9255L292.757 46.5625C293.028 47.916 291.99 49.1194 290.611 49.2091L288.206 49.1729L288.205 49.1711ZM285.27 28.416L283.309 28.2556L278.58 28.2039L278.581 34.6961L283.874 34.672C285.498 34.6642 286.746 33.6091 287.11 32.166C287.497 30.6298 286.75 29.1229 285.269 28.416H285.27Z" fill="white" style="fill:white;fill-opacity:1;"/>
<path d="M310.976 43.9495H302.453L301.19 47.8573C301.062 48.2547 300.718 48.5814 300.387 48.7943C299.764 49.1952 299.109 49.2029 298.387 49.2262C296.862 49.2754 295.592 48.1322 295.632 46.5952L302.68 25.2745C302.979 24.3702 303.878 23.6391 304.775 23.6409L308.847 23.6512C309.569 23.6529 310.575 24.1598 310.821 24.9185L317.8 46.4012C317.997 48.0133 316.702 49.2823 315.093 49.2219C314.418 49.1969 313.771 49.2366 313.185 48.8797C312.689 48.6478 312.337 48.2409 312.179 47.7167L310.977 43.9478L310.976 43.9495ZM310.026 39.1314L306.747 29.9702L303.121 39.196L310.026 39.1305V39.1314Z" fill="white" style="fill:white;fill-opacity:1;"/>
<path d="M96.5125 21.5525C97.7886 20.256 98.8627 18.9155 99.5969 17.2767C100.476 15.3129 100.917 13.212 100.631 11.0612C100.259 8.26979 98.8312 5.78531 96.7861 3.86806C96.461 3.56289 96.176 3.231 96.0983 2.81548C96.0205 2.39996 96.2328 1.96634 96.5134 1.78358C96.8997 1.53272 97.3044 1.57669 97.6872 1.81979C100.073 3.33186 101.762 5.63875 102.556 8.34479C103.976 13.181 102.616 18.3775 99.1468 22.0422C98.7386 22.4732 98.3698 22.9077 97.8218 23.1301C97.3402 23.3267 96.8455 23.1896 96.5318 22.8362C96.2608 22.531 96.1385 21.9319 96.5125 21.5517V21.5525Z" fill="white" style="fill:white;fill-opacity:1;"/>
<path d="M79.5122 22.7503C79.1695 23.4055 78.2588 23.5632 77.7047 23.0787C74.9796 20.6951 73.2377 17.4089 72.8829 13.8089C72.7736 12.6994 72.7832 11.6167 72.8846 10.5132C73.0175 9.07097 73.527 7.71925 74.1676 6.42787C75.0818 4.58649 76.4645 3.08821 78.1837 1.96321C78.4712 1.77442 78.9047 1.70114 79.2089 1.82959C79.513 1.95804 79.7534 2.30459 79.7918 2.55287C79.8486 2.92356 79.763 3.32442 79.4999 3.57873C76.3963 6.58476 74.5618 10.0865 75.372 14.4727C75.8772 17.2055 77.2555 19.6192 79.277 21.5296C79.5908 21.8261 79.7245 22.3451 79.5122 22.7511V22.7503Z" fill="white" style="fill:white;fill-opacity:1;"/>
<path d="M81.7602 19.8223C81.443 20.4679 80.7857 20.8171 80.1066 20.6386C75.2498 16.6662 74.9133 8.17225 80.2202 4.71794C80.6677 4.42656 81.2105 4.60674 81.5007 4.91536C81.8336 5.27053 81.9875 5.86967 81.6318 6.25329C80.9142 7.02398 80.2368 7.75932 79.6923 8.65415C77.5528 12.1697 78.7292 16.149 81.5802 18.9317C81.8109 19.1567 81.8468 19.4929 81.7602 19.8231V19.8223Z" fill="white" style="fill:white;fill-opacity:1;"/>
<path d="M94.6418 20.4208C94.0806 20.0897 93.9198 19.5018 94.182 18.9682C97.1982 16.0871 98.3615 11.9768 95.9921 8.35439L94.085 6.02594C93.842 5.72853 94.0807 5.2018 94.2843 4.96387C94.4879 4.72594 94.9459 4.37335 95.3261 4.56732C96.8023 5.32249 97.8878 6.6268 98.5748 8.13715C100.485 12.3389 99.3745 17.3509 95.9388 20.4492C95.5787 20.7742 95.015 20.6587 94.6409 20.4199L94.6418 20.4208Z" fill="white" style="fill:white;fill-opacity:1;"/>
<path d="M83.5668 16.1997C83.8867 16.5272 84.2835 16.7445 84.308 17.2264C84.3272 17.5936 83.9776 17.9462 83.7075 18.0583C83.3247 18.2178 82.8493 18.1669 82.5547 17.8936C79.4599 15.0203 79.1094 10.2091 82.5058 7.54017C82.879 7.24707 83.2609 7.06603 83.7337 7.26C84.0449 7.38758 84.5789 7.79276 84.4024 8.25741C84.2599 8.63241 83.8535 8.9462 83.5747 9.2531C81.5662 11.4669 81.4264 14.0031 83.5668 16.1997Z" fill="white" style="fill:white;fill-opacity:1;"/>
<path d="M91.7378 17.6457C91.3515 17.2931 91.4485 16.7613 91.7859 16.4406C92.2788 15.9716 92.7272 15.488 93.0925 14.9225C94.657 12.5 93.4124 10.0009 91.3611 8.19918C91.2895 7.46815 91.9065 6.9259 92.6206 6.96297C93.9604 7.68194 94.9157 8.85263 95.3798 10.2914C96.2171 12.8871 95.3344 15.5664 93.4754 17.5242C93.0139 18.0104 92.2666 18.1294 91.737 17.6457H91.7378Z" fill="white" style="fill:white;fill-opacity:1;"/>
<path d="M167.783 50.3036C167.783 50.5691 167.501 50.7303 167.356 50.7096C167.164 50.6829 166.965 50.5338 166.965 50.2777V23.351C167.071 23.1751 167.416 23.1018 167.555 23.1906C167.733 23.3044 167.811 23.495 167.811 23.7519L167.794 38.0536L167.783 50.3044V50.3036Z" fill="white" style="fill:white;fill-opacity:1;"/>
<path d="M202.631 31.7061H196.869V25.9439C196.869 23.5305 194.913 21.575 192.5 21.575C190.087 21.575 188.131 23.5305 188.131 25.9439V31.7061H182.369C179.956 31.7061 178 33.6616 178 36.075C178 38.4883 179.956 40.4439 182.369 40.4439H188.131V46.2061C188.131 48.6194 190.087 50.5749 192.5 50.5749C194.913 50.5749 196.869 48.6194 196.869 46.2061V40.4439H202.631C205.044 40.4439 207 38.4883 207 36.075C207 33.6616 205.044 31.7061 202.631 31.7061Z" fill="#95EB1D" style="fill:#95EB1D;fill:color(display-p3 0.5843 0.9216 0.1137);fill-opacity:1;"/>
</g>
<defs>
<clipPath id="clip0_6279_521">
<rect width="317" height="55" fill="white" style="fill:white;fill-opacity:1;"/>
</clipPath>
</defs>
</svg>
